<?xml version="1.0" encoding="UTF-8"?>
<svg width="15px" height="15px" viewBox="0 0 15 15" version="1.1" xmlns="http://www.w3.org/2000/svg" xmlns:xlink="http://www.w3.org/1999/xlink">
    <!-- Generator: Sketch 50.2 (55047) - http://www.bohemiancoding.com/sketch -->
    <title>Group 14</title>
    <desc>Created with Sketch.</desc>
    <defs></defs>
    <g id="January-Sprint" stroke="none" stroke-width="1" fill="none" fill-rule="evenodd">
        <g id="4.-App-Selected-Copy-3" transform="translate(-1143.000000, -769.000000)" fill="#3ABFA1" fill-rule="nonzero">
            <g id="Group-14" transform="translate(1143.000000, 769.000000)">
                <g id="Group-13">
                    <path d="M11.75,12.5 L11.75,6.49075481 C11.75,6.2157599 11.8632445,5.95290093 12.0630967,5.76400601 L12.625,5.23291016 C12.8331926,5.03613216 13.1614861,5.0453855 13.3582641,5.25357807 C13.4492859,5.34987986 13.5,5.47736574 13.5,5.60987615 L13.5,12.5 C13.5,13.5943966 12.5371332,14.5 11.431375,14.5 L2.49025,14.5 C1.39086041,14.5 0.5,13.6085202 0.5,12.508625 L0.5,3.561875 C0.5,2.45675767 1.40559749,1.5 2.5,1.5 L9.35606899,1.5 C9.63914979,1.5 9.86863213,1.72948233 9.86863213,2.01256313 C9.86863213,2.14850333 9.81463009,2.27887577 9.71850586,2.375 L9.13639908,2.95710678 C8.9488627,3.14464316 8.69450879,3.25 8.4292923,3.25 L2.5,3.25 C2.38554414,3.25 2.245125,3.40495022 2.245125,3.561875 L2.245125,12.508625 C2.245125,12.6445694 2.35497926,12.7545 2.49025,12.7545 L11.431375,12.7545 C11.5905376,12.7545 11.75,12.611818 11.75,12.5 Z M7.02298489,7.60847989 L8.12726805,5.37720158 C8.14627199,5.28108103 8.18325264,5.18778002 8.25798436,5.11319048 L13.2269835,0.14917909 C13.4262681,-0.0497263633 13.7490783,-0.0497263633 13.9486197,0.14917909 L14.8505366,1.05014902 C15.0498211,1.24905448 15.0498211,1.57201952 14.8505366,1.77066865 L9.88153742,6.73493636 C9.80706251,6.80926958 9.71358366,6.84669251 9.61727989,6.86540398 L7.38328937,7.96835522 C7.13161553,8.08498149 6.93027646,7.85993125 7.02298489,7.60847989 Z" id="Combined-Shape"></path>
                </g>
            </g>
        </g>
    </g>
</svg>