<?xml version="1.0" encoding="UTF-8"?>
<svg width="138px" height="22px" viewBox="0 0 138 22" version="1.1" xmlns="http://www.w3.org/2000/svg" xmlns:xlink="http://www.w3.org/1999/xlink">
    <!-- Generator: Sketch 49.3 (51167) - http://www.bohemiancoding.com/sketch -->
    <title>Group 6</title>
    <desc>Created with Sketch.</desc>
    <defs></defs>
    <g id="wireframes-2.0" stroke="none" stroke-width="1" fill="none" fill-rule="evenodd">
        <g id="Desktop-HD-Copy-4" transform="translate(-1077.000000, -111.000000)">
            <g id="fusepanel" transform="translate(1012.000000, 111.000000)">
                <g id="Group-6" transform="translate(65.000000, 0.000000)">
                    <g id="Group-2" transform="translate(26.000000, 5.000000)" fill="#35373B">
                        <path d="M0,12.8169014 L0,0 L8.97824631,0 L9.28432289,2.08732394 L2.22755732,2.08732394 L2.22755732,5.63943662 L7.92398254,5.63943662 L7.92398254,7.65352113 L2.22755732,7.65352113 L2.22755732,12.8169014 L0,12.8169014 Z M16.2401719,13 C12.5842572,13 10.8668275,11.1323944 10.8668275,7.12253521 L10.8668275,0 L13.0943848,0 L13.0943848,7.12253521 C13.0943848,9.64929577 14.0976358,10.8394366 16.2401719,10.8394366 C18.3657037,10.8394366 19.3689547,9.64929577 19.3689547,7.12253521 L19.3689547,0 L21.6135163,0 L21.6135163,7.12253521 C21.6135163,11.1323944 19.8790823,13 16.2401719,13 Z M23.9272038,12.8169014 L23.6211273,10.7295775 L29.8616886,10.7295775 C31.2730417,10.7295775 31.9192034,10.2901408 31.9192034,9.30140845 C31.9192034,8.23943662 31.0519864,7.78169014 29.7086503,7.50704225 L27.5151015,7.06760563 C25.1345059,6.5915493 23.7741655,5.6028169 23.7741655,3.36901408 C23.7741655,1.24507042 25.2025229,0 27.9402079,0 L33.1265055,0 L33.4155778,2.08732394 L28.0252291,2.08732394 C26.6478845,2.08732394 26.0697399,2.47183099 26.0697399,3.33239437 C26.0697399,4.28450704 26.8689398,4.72394366 28.2122759,4.99859155 L30.4398333,5.43802817 C32.8884459,5.93239437 34.2147777,6.92112676 34.2147777,9.24647887 C34.2147777,11.5169014 32.7184033,12.8169014 29.9467099,12.8169014 L23.9272038,12.8169014 Z M36.1543717,12.8169014 L36.1543717,0 L45.4046861,0 L45.6937584,2.08732394 L38.3989333,2.08732394 L38.3989333,5.27323944 L44.3674266,5.27323944 L44.3674266,7.28732394 L38.3989333,7.28732394 L38.3989333,10.7295775 L45.8467967,10.7295775 L45.5577244,12.8169014 L36.1543717,12.8169014 Z M57.8200097,0 C60.9998053,0 62.5471924,1.62957746 62.5471924,4.15633803 C62.5471924,6.70140845 60.9998053,8.31267606 57.8200097,8.31267606 L53.8070057,8.31267606 L53.8070057,12.8169014 L52.361644,12.8169014 L52.361644,0 L57.8200097,0 Z M57.7349884,6.95774648 C60.0645713,6.95774648 61.0678223,5.91408451 61.0678223,4.15633803 C61.0678223,2.41690141 60.0645713,1.37323944 57.7349884,1.37323944 L53.8070057,1.37323944 L53.8070057,6.95774648 L57.7349884,6.95774648 Z M73.822122,12.8169014 L72.3427519,9.02676056 L65.7621055,9.02676056 L64.2827353,12.8169014 L62.7353482,12.8169014 L67.802616,0 L70.3192456,0 L75.3695092,12.8169014 L73.822122,12.8169014 Z M66.2892373,7.67183099 L71.81562,7.67183099 L69.3500031,1.31830986 L68.7718585,1.31830986 L66.2892373,7.67183099 Z M86.6784473,0 L88.0387877,0 L88.0387877,12.8169014 L86.8995026,12.8169014 L78.6524392,2.39859155 L78.6524392,12.8169014 L77.2920989,12.8169014 L77.2920989,0 L78.4483882,0 L86.6784473,10.4 L86.6784473,0 Z M91.3047135,12.8169014 L91.3047135,0 L100.316968,0 L100.538024,1.37323944 L92.7500751,1.37323944 L92.7500751,5.52957746 L99.3137173,5.52957746 L99.3137173,6.84788732 L92.7500751,6.84788732 L92.7500751,11.443662 L100.657053,11.443662 L100.453002,12.8169014 L91.3047135,12.8169014 Z M102.987745,12.8169014 L102.987745,0 L104.433107,0 L104.433107,11.443662 L112,11.443662 L111.795949,12.8169014 L102.987745,12.8169014 Z" id="FUSE-PANEL"></path>
                    </g>
                    <g id="logomark" fill="#4A4A4A" fill-rule="nonzero">
                        <path d="M0.780554344,12.3679617 C1.12876337,12.1903175 1.50950542,12.1489058 1.92278051,12.2437266 C2.35425338,12.3427227 2.72275092,12.6074146 3.02827313,13.0378022 C3.21793719,13.2847875 3.51571836,13.3080828 3.92161662,13.1076879 C4.53046402,12.8070956 5.46420337,11.5309233 5.70397826,10.9932522 C5.9437531,10.4555812 5.90893247,9.64509533 5.5725963,9.39790974 C5.38078837,9.25694319 5.19704373,9.17331668 5.02136235,9.14703027 C4.99255208,9.14272092 4.97264199,9.11553607 4.97689172,9.08631253 C4.9777048,9.08072131 5.23937666,8.7053401 5.76190729,7.96016891 C5.83770426,7.83449988 5.77955208,7.79933067 5.58745071,7.85466129 C5.39534929,7.90999185 4.7445012,8.45929313 3.63490635,9.50256513 C3.49158553,9.64567949 3.6721011,9.72695169 4.17645303,9.7463818 C4.93298094,9.77552698 5.25959791,10.3930078 4.78097506,11.1205927 C4.46189316,11.6056492 4.17544035,11.9800272 3.92161662,12.2437266 C3.61752762,12.4437646 3.35955017,12.4437646 3.14768425,12.2437266 C2.82988537,11.9436697 2.62019502,11.7180688 1.92278051,11.5849829 C1.33612202,11.4730323 0.924703327,11.6772113 0.800855814,11.1890343 C0.778487651,10.9643568 0.760244125,10.7109234 0.746125246,10.4287342 C0.892844556,8.32763495 1.39767709,7.20138446 2.26062284,7.04998276 C3.12356859,6.89858105 3.55081908,6.71127884 3.54237431,6.48807623 C3.6234243,5.90459173 3.73714589,5.42729706 3.88353909,5.05619222 C4.02993228,4.68508739 4.31139851,4.31710226 4.72793778,3.95223681 C5.89208034,3.18269268 7.72947033,3.2278207 10.2401076,4.08762087 C11.3347697,4.20016234 11.9221618,3.86048348 12.0022842,3.06858426 C12.0824065,2.27668505 11.7846082,1.70649115 11.1088891,1.35800257 C9.49106329,0.745640432 10.0272719,0.307975268 12.7175151,0.0450070654 C16.7528798,-0.349445239 17.9376194,1.94414448 17.7015777,3.20480402 C17.5442166,4.04524371 17.6228972,4.44993339 17.9376194,4.41887305 C18.3391923,4.26552136 18.6495205,4.58625761 18.8686039,5.3810818 C19.1972291,6.57331804 18.8686039,7.99996928 18.3343176,9.22866318 C17.9781268,10.0477924 17.6673181,10.2040342 17.4018914,9.69738868 L16.9080782,8.9753404 C16.6426515,8.56675076 16.3743069,8.34501059 16.1030444,8.31011999 C15.8317819,8.27522933 15.7617864,8.40831518 15.8930579,8.70937755 C17.1739169,11.2221655 17.512257,12.8215289 16.9080782,13.5074678 C16.0615414,14.5264696 15.7931968,15.2703506 16.1030444,15.739111 C16.7717269,16.708162 16.7717269,17.7155336 16.1030444,18.7612257 C14.337435,21.573903 11.8200007,22.5546018 8.55074143,21.7033218 C5.51296568,20.9123175 3.86436861,19.4913438 3.60495028,17.4404005 C3.59720256,17.3791476 3.60124989,17.4058905 3.58542441,17.254956 C3.56959893,17.1040215 3.42186693,17.0183618 3.22546336,17.0784275 C3.02905978,17.1384931 3.13276609,17.1075498 3.08782101,17.1209443 C2.65133767,17.2510245 2.3031035,17.3077491 2.04311849,17.2911178 C1.69365602,17.2687627 1.30080252,17.0557627 0.864558008,16.6521177 C0.295050888,16.0434465 0.00689882202,15.2413099 0.000101811187,14.2457079 C-0.00590909488,13.3652516 0.25424175,12.7393362 0.780554344,12.3679617 Z M7.83503671,6.38708413 C7.821913,6.39988322 7.81622651,6.41864385 7.81999453,6.43671094 C7.82602196,6.46561138 7.85400504,6.48408346 7.88249658,6.47796958 C9.25575222,6.18328531 10.4757732,6.30280029 11.5425591,6.83651261 C11.9457969,7.05050504 13.5407258,8.00910982 15.2622748,6.39541753 C15.9582474,5.71964639 16.3226428,4.6132787 16.3554606,3.07631452 L15.4509433,4.7513788 C14.1926724,6.71225387 12.7488373,6.11918165 10.7555109,5.61284946 C9.53812322,5.41745972 8.56463181,5.67553796 7.83503671,6.38708413 Z M11.4642389,9.69033743 C10.7555109,9.32346336 10.2189957,8.48347635 8.07464171,9.63136806 C6.64507243,10.3966292 7.10604624,10.549415 9.45756309,10.0897256 C9.91228485,10.0221032 10.3116307,10.0784697 10.6556007,10.2588251 C11.2745406,10.5266682 11.1833079,10.6113479 11.4642389,10.4138482 C11.6242262,10.3068258 11.7861958,9.92031269 11.4642389,9.69033743 Z M11.5890053,18.0552647 C12.1859751,18.1345695 12.6719957,18.061045 13.0470671,17.8346911 C13.4221385,17.6083372 13.0018481,17.394336 11.7861958,17.1926876 C11.2158477,17.0505831 10.613188,16.7672185 9.97821671,16.3425937 C9.52747067,16.0411661 9.00258818,15.6186651 8.69525517,15.3988489 C8.6326512,15.3540721 8.56604562,15.3435214 8.49543849,15.3671966 C8.3284483,15.3567677 8.28887632,15.5167789 8.3767225,15.8472302 C8.50849186,16.3429072 9.32943689,17.6858313 11.5890053,18.0552647 Z M8.27407221,11.2484554 C7.7639188,11.4728071 7.50884209,11.6693368 7.50884209,11.8380445 C7.50884209,12.0067523 7.90073436,12.0547879 8.684519,11.9821513 C8.77047714,11.9734112 8.79196667,12.1388806 8.7489876,12.4785595 C8.684519,12.9880777 8.69525517,13.5074678 9.25031862,13.8060753 C9.80538212,14.1046828 10.8335588,13.7946366 10.6855693,13.014977 C10.5869096,12.4952039 10.5951141,12.2503948 10.7101827,12.2805499 C10.9820459,12.3088767 11.1282847,12.2601099 11.1488988,12.1342494 C11.1798201,11.9454586 11.306363,10.650718 8.27407221,11.2484554 Z M12.7154553,15.9551405 C12.7355246,16.0198161 13.0730708,16.6510208 13.4546303,15.862743 C13.7090033,15.3372244 13.5818168,14.9441649 13.0730708,14.6835646 C12.7799583,14.5803899 12.6923696,14.6951599 12.8103045,15.0278746 C12.9872071,15.5269466 12.5950787,15.7195764 12.7154553,15.9551405 Z M14.0059617,14.2267121 C14.1111438,14.6566122 14.2704272,14.849242 14.4838122,14.8046014 C14.9519821,14.8337118 15.2700341,14.2752178 15.4379683,13.1291193 C15.4664437,12.8024113 15.3819617,12.604419 15.1845222,12.5351427 C14.9870828,12.4658663 14.8037351,12.4678162 14.6344793,12.5409926 C14.4129842,12.6061253 14.5076782,12.1140522 14.7575463,11.8380445 C14.8475038,11.7386764 14.9487552,11.6889923 15.0613006,11.6889923 C16.039624,11.7365578 16.3118992,11.4950394 15.8781263,10.9644369 C15.5846876,10.6073017 15.1199163,10.6247471 14.4838122,11.0167729 C13.8516559,11.4680531 13.6923724,12.5380328 14.0059617,14.2267121 Z" id="Combined-Shape"></path>
                    </g>
                </g>
            </g>
        </g>
    </g>
</svg>