<?xml version="1.0" encoding="UTF-8"?>
<svg width="126px" height="32px" viewBox="0 0 126 32" version="1.1" xmlns="http://www.w3.org/2000/svg" xmlns:xlink="http://www.w3.org/1999/xlink">
    <!-- Generator: Sketch 48.2 (47327) - http://www.bohemiancoding.com/sketch -->
    <title>Mark+Logotype</title>
    <desc>Created with Sketch.</desc>
    <defs></defs>
    <g id="PFooter" stroke="none" stroke-width="1" fill="none" fill-rule="evenodd" transform="translate(-250.000000, -39.000000)">
        <g id="Footer">
            <g id="Mark+Logotype" transform="translate(250.000000, 39.000000)">
                <g id="Phusion" transform="translate(42.000000, 9.000000)" fill="#4A4A4A">
                    <path d="M5.87966864,6.02326482 L2.1263432,6.02326482 L2.1263432,5.70602372 C2.1263432,4.64025296 2.11375148,3.13937549 2.10314793,2.02695652 L5.87966864,2.02695652 C7.84811834,2.02695652 8.13921893,2.82429249 8.13921893,4.01871937 C8.13921893,5.21513834 7.84811834,6.02326482 5.87966864,6.02326482 Z M5.83095858,0.232577075 L1.06449704,0.232577075 C0.856071006,0.232577075 0.703810651,0.232577075 0.494390533,0.280719368 C0.167502959,0.351604743 0.0866508876,0.538197628 0.0735621302,0.819249012 C0.0278343195,1.62837154 0.00463905325,4.13592095 0.00463905325,5.70602372 C0.00463905325,7.28924111 0.0160710059,9.98454545 0.0735621302,10.8044585 C0.0866508876,11.0851779 0.167502959,11.2503557 0.494390533,11.3202451 C0.703810651,11.3673913 0.856071006,11.3791779 1.06449704,11.3791779 C1.27474556,11.3791779 1.42601183,11.3673913 1.63626036,11.3202451 C1.96182249,11.2503557 2.04466272,11.0851779 2.05559763,10.8044585 C2.09005917,10.2883399 2.11375148,9.05871937 2.11375148,7.80452964 L5.83095858,7.80452964 C9.08426036,7.80452964 10.2138698,6.67916206 10.2138698,4.01871937 C10.2138698,1.35811067 9.08426036,0.232577075 5.83095858,0.232577075 Z" id="Clip-38"></path>
                    <path d="M83.9153373,0.620371542 C83.903574,0.338490119 83.8232189,0.163185771 83.4958343,0.0931304348 C83.2864142,0.057770751 83.1575148,0.0463162055 82.9487574,0.0463162055 C82.7390059,0.0463162055 82.6099408,0.057770751 82.4015148,0.0931304348 C82.0858935,0.163185771 82.0043787,0.338490119 81.9805207,0.620371542 C81.9346272,1.42932806 81.9107692,4.13592095 81.9107692,5.70602372 L81.9107692,7.47583399 L75.7229349,0.561770751 C75.4664615,0.280719368 75.2696331,0.0463162055 74.7550296,0.0463162055 C74.3227692,0.0463162055 73.800213,0.0690592885 73.7756923,0.60858498 C73.7185325,1.41770751 73.7067692,4.13592095 73.7067692,5.70602372 C73.7067692,7.28924111 73.7185325,9.98454545 73.7756923,10.8044585 C73.7874556,11.0851779 73.8689704,11.2503557 74.1951953,11.3202451 C74.4062722,11.3673913 74.5346746,11.3791779 74.7435976,11.3791779 C74.9543432,11.3791779 75.0824142,11.3673913 75.2908402,11.3202451 C75.6059645,11.2503557 75.6884734,11.0851779 75.711503,10.8044585 C75.7582249,9.98454545 75.7819172,7.28924111 75.7819172,5.70602372 L75.7819172,3.93787352 L81.9697515,10.8516047 C82.2267219,11.1326561 82.423716,11.3791779 82.936497,11.3791779 C83.3672663,11.3791779 83.8929704,11.3441502 83.9153373,10.8162451 C83.9738225,9.99583399 83.9852544,7.28924111 83.9852544,5.70602372 C83.9852544,4.13592095 83.9738225,1.42932806 83.9153373,0.620371542 Z" id="Clip-41"></path>
                    <path d="M65.0594083,9.50328854 C62.2507929,9.50328854 61.5161657,7.81581818 61.5161657,5.69506719 C61.5161657,3.58560474 62.2507929,1.88618182 65.0594083,1.88618182 C67.8557633,1.88618182 68.6140828,3.58560474 68.6140828,5.69506719 C68.6140828,7.81581818 67.8557633,9.50328854 65.0594083,9.50328854 Z M65.0594083,0.0229090909 C61.095503,0.0229090909 59.4289231,2.57760474 59.4289231,5.69506719 C59.4289231,8.81286166 61.095503,11.3906324 65.0594083,11.3906324 C69.0329231,11.3906324 70.7003314,8.81286166 70.7003314,5.69506719 C70.7003314,2.57760474 69.0329231,0.0229090909 65.0594083,0.0229090909 Z" id="Clip-44"></path>
                    <path d="M37.1458935,0.0931304348 C36.9384615,0.057770751 36.7860355,0.0463162055 36.5756213,0.0463162055 C36.3666982,0.0463162055 36.2144379,0.057770751 36.0053491,0.0931304348 C35.6781302,0.163185771 35.5974438,0.338490119 35.5845207,0.620371542 C35.5266982,1.42932806 35.5155976,3.74945455 35.5155976,5.3318419 C35.5155976,8.30869565 35.0374438,9.50328854 32.5212544,9.50328854 C29.9926391,9.50328854 29.5139882,8.30869565 29.5139882,5.3318419 C29.5139882,3.74945455 29.5025562,1.42932806 29.4437396,0.620371542 C29.4319763,0.338490119 29.3512899,0.163185771 29.0244024,0.0931304348 C28.8144852,0.057770751 28.6627219,0.0463162055 28.452142,0.0463162055 C28.2417278,0.0463162055 28.092284,0.057770751 27.8823669,0.0931304348 C27.5549822,0.163185771 27.4742959,0.338490119 27.4635266,0.620371542 C27.4047101,1.42932806 27.3926154,3.92525692 27.3926154,5.49618972 C27.3926154,9.72640316 28.860213,11.3906324 32.5212544,11.3906324 C36.1678817,11.3906324 37.6373018,9.72640316 37.6373018,5.49618972 C37.6373018,3.92525692 37.623716,1.42932806 37.5667219,0.620371542 C37.555787,0.338490119 37.4727811,0.163185771 37.1458935,0.0931304348 Z" id="Clip-47"></path>
                    <path d="M55.7943905,0.0931304348 C55.5843077,0.057770751 55.4328757,0.0463162055 55.2222959,0.0463162055 C55.0133728,0.0463162055 54.8501775,0.057770751 54.6389349,0.0931304348 C54.3266272,0.163185771 54.2441183,0.338490119 54.220426,0.620371542 C54.1740355,1.42932806 54.1503432,4.13592095 54.1503432,5.70602372 C54.1503432,7.28924111 54.1740355,9.98454545 54.220426,10.8044585 C54.2441183,11.0851779 54.3266272,11.2503557 54.6389349,11.3202451 C54.8501775,11.3673913 55.0133728,11.3791779 55.2222959,11.3791779 C55.4328757,11.3791779 55.5843077,11.3673913 55.7943905,11.3202451 C56.107858,11.2503557 56.2017988,11.0851779 56.2135621,10.8044585 C56.2723787,9.98454545 56.2838107,7.28924111 56.2838107,5.70602372 C56.2838107,4.13592095 56.2723787,1.42932806 56.2135621,0.620371542 C56.2017988,0.338490119 56.107858,0.163185771 55.7943905,0.0931304348 Z" id="Clip-50"></path>
                    <path d="M43.0911716,3.23383399 C43.0911716,2.01500395 44.2211124,1.78126482 46.4238343,1.78126482 C48.1946272,1.78126482 49.6531124,2.17951779 49.8027219,2.22583399 C50.0480947,2.27264822 50.1183432,2.12008696 50.1889231,1.82724901 C50.2232189,1.66373123 50.2346509,1.49888538 50.2346509,1.32358103 C50.2346509,1.13599209 50.2232189,0.983098814 50.1889231,0.819249012 C50.1183432,0.515454545 49.9780118,0.479928854 49.7222012,0.420996047 C49.7222012,0.420996047 48.1147692,0.0229090909 46.3529231,0.0229090909 C42.4372308,0.0229090909 40.864426,1.04252964 40.864426,3.31633992 C40.864426,7.92206324 48.7320947,5.39011067 48.7320947,8.14418182 C48.7320947,9.42111462 47.6125917,9.6326087 45.3982722,9.6326087 C43.2424379,9.6326087 41.2032426,9.1286087 41.2032426,9.1286087 C40.9697988,9.07000791 40.8183669,9.19883004 40.7494438,9.49183399 C40.7008994,9.65535178 40.6902959,9.82052964 40.6902959,9.99583399 C40.6902959,10.1827589 40.7008994,10.3359842 40.7494438,10.500166 C40.8183669,10.8044585 40.9575385,10.8516047 41.2032426,10.9097075 C41.2032426,10.9097075 43.1486627,11.3906324 45.3401183,11.3906324 C48.8598343,11.3906324 50.9560237,10.8275336 50.9560237,7.99128854 C50.9560237,3.63192095 43.0911716,5.75366798 43.0911716,3.23383399 Z" id="Clip-53"></path>
                    <path d="M23.4533964,0.620371542 C23.4413018,0.338490119 23.3481893,0.163185771 23.0343905,0.0931304348 C22.824142,0.057770751 22.6710533,0.0463162055 22.4621302,0.0463162055 C22.2527101,0.0463162055 22.0895148,0.057770751 21.8791006,0.0931304348 C21.5651361,0.163185771 21.4831243,0.338490119 21.4602604,0.620371542 C21.4138698,1.42932806 21.3901775,4.13592095 21.3901775,5.70602372 L21.3901775,5.98624506 L15.4468876,5.98624506 L15.4468876,5.70602372 C15.4468876,4.13592095 15.4354556,1.42932806 15.3764734,0.620371542 C15.3657041,0.338490119 15.2712663,0.163185771 14.9574675,0.0931304348 C14.7485444,0.057770751 14.5959527,0.0463162055 14.3870296,0.0463162055 C14.1771124,0.0463162055 14.0140828,0.057770751 13.8028402,0.0931304348 C13.4883787,0.163185771 13.407858,0.338490119 13.3838343,0.620371542 C13.3369467,1.42932806 13.3140828,4.13592095 13.3140828,5.70602372 C13.3140828,7.28924111 13.3369467,9.98454545 13.3838343,10.8044585 C13.407858,11.0851779 13.4883787,11.2503557 13.8028402,11.3202451 C14.0140828,11.3673913 14.1771124,11.3791779 14.3870296,11.3791779 C14.5959527,11.3791779 14.7485444,11.3673913 14.9574675,11.3202451 C15.2712663,11.2503557 15.3657041,11.0851779 15.3764734,10.8044585 C15.4240237,10.1478972 15.4453964,7.80452964 15.4453964,7.80452964 L21.3910059,7.80452964 C21.3910059,7.80452964 21.419503,10.1032411 21.4602604,10.8044585 C21.4831243,11.0851779 21.5651361,11.2503557 21.8791006,11.3202451 C22.0895148,11.3673913 22.2527101,11.3791779 22.4621302,11.3791779 C22.6710533,11.3791779 22.824142,11.3673913 23.0343905,11.3202451 C23.3481893,11.2503557 23.4413018,11.0851779 23.4533964,10.8044585 C23.5108876,9.98454545 23.5239763,7.28924111 23.5239763,5.70602372 C23.5239763,4.13592095 23.5108876,1.42932806 23.4533964,0.620371542 Z" id="Clip-56"></path>
                </g>
                <g id="logo">
                    <path d="M0,13.8505714 C0,21.3677143 6.09428571,27.462 13.6122857,27.462 L13.6122857,22.9251429 C8.60028571,22.9251429 4.53771429,18.8622857 4.53771429,13.8505714 C4.53771429,12.5982857 3.52171429,11.5822857 2.26828571,11.5822857 C1.016,11.5822857 0,12.5982857 0,13.8505714" id="Fill-1" fill="#345FC8"></path>
                    <path d="M13.6122857,32 C21.1297143,32 27.224,25.9051429 27.224,18.3874286 L22.686,18.3874286 C22.686,23.3997143 18.6237143,27.462 13.6122857,27.462 C12.3591429,27.462 11.3431429,28.4771429 11.3431429,29.73 C11.3431429,30.984 12.3591429,32 13.6122857,32" id="Fill-4" fill="#7524B2"></path>
                    <path d="M13.6122857,27.462 C18.6237143,27.462 22.686,23.3997143 22.686,18.3874286 L18.1491429,18.3874286 C18.1491429,20.8937143 16.1171429,22.9251429 13.6122857,22.9251429 C12.3591429,22.9251429 11.3431429,23.9405714 11.3431429,25.1934286 C11.3431429,26.4471429 12.3591429,27.462 13.6122857,27.462" id="Fill-5" fill="#B936C1"></path>
                    <path d="M31.7608571,18.3874286 C31.7608571,10.8702857 25.666,4.77571429 18.1491429,4.77571429 L18.1491429,9.31371429 C23.1605714,9.31371429 27.224,13.376 27.224,18.3874286 C27.224,19.6408571 28.2391429,20.6557143 29.4914286,20.6557143 C30.7454286,20.6557143 31.7608571,19.6408571 31.7608571,18.3874286" id="Fill-6" fill="#00A181"></path>
                    <path d="M27.224,18.3874286 C27.224,13.376 23.1605714,9.31371429 18.1491429,9.31371429 L18.1491429,13.8505714 C20.6548571,13.8505714 22.686,15.8817143 22.686,18.3874286 C22.686,19.6408571 23.7022857,20.6557143 24.9545714,20.6557143 C26.2077143,20.6557143 27.224,19.6408571 27.224,18.3874286" id="Fill-7" fill="#6CB277"></path>
                    <path d="M18.1491429,0.239142857 C10.6314286,0.239142857 4.53771429,6.33285714 4.53771429,13.8505714 L9.07485714,13.8505714 C9.07485714,8.83942857 13.1371429,4.77571429 18.1491429,4.77571429 C19.4017143,4.77571429 20.4174286,3.76085714 20.4174286,2.50685714 C20.4174286,1.254 19.4017143,0.239142857 18.1491429,0.239142857" id="Fill-8" fill="#EE265F"></path>
                    <path d="M18.1491429,4.77571429 C13.1371429,4.77571429 9.07485714,8.83942857 9.07485714,13.8505714 L13.6122857,13.8505714 C13.6122857,11.3448571 15.6434286,9.31371429 18.1491429,9.31371429 C19.4017143,9.31371429 20.4174286,8.29771429 20.4174286,7.04428571 C20.4174286,5.79114286 19.4017143,4.77571429 18.1491429,4.77571429" id="Fill-9" fill="#FF7655"></path>
                    <path d="M4.53771429,13.8505714 C4.53771429,18.8622857 8.60028571,22.9251429 13.6122857,22.9251429 L13.6122857,18.3874286 C11.1057143,18.3874286 9.07485714,16.3562857 9.07485714,13.8505714 C9.07485714,12.5982857 8.05857143,11.5822857 6.806,11.5822857 C5.55314286,11.5822857 4.53771429,12.5982857 4.53771429,13.8505714" id="Fill-10" fill="#2D88ED"></path>
                    <path d="M15.88,18.3874286 L13.6122857,18.3874286 C12.3591429,18.3874286 11.3431429,19.4034286 11.3431429,20.6557143 C11.3431429,21.9088571 12.3591429,22.9251429 13.6122857,22.9251429 C16.1171429,22.9251429 18.1491429,20.8937143 18.1491429,18.3874286 L18.1491429,16.1191429 C18.1491429,17.3711429 17.1331429,18.3874286 15.88,18.3874286" id="Fill-11" fill="#E438C5"></path>
                    <path d="M18.1491429,13.8505714 L15.88,13.8505714 C17.1331429,13.8505714 18.1491429,14.8657143 18.1491429,16.1191429 L18.1491429,18.3874286 C18.1491429,19.6408571 19.1645714,20.6557143 20.4174286,20.6557143 C21.6711429,20.6557143 22.686,19.6408571 22.686,18.3874286 C22.686,15.8817143 20.6548571,13.8505714 18.1491429,13.8505714" id="Fill-12" fill="#BFCF5F"></path>
                    <path d="M13.6122857,16.1191429 L13.6122857,13.8505714 C13.6122857,12.5982857 12.5965714,11.5822857 11.3431429,11.5822857 C10.0897143,11.5822857 9.07485714,12.5982857 9.07485714,13.8505714 C9.07485714,16.3562857 11.1057143,18.3874286 13.6122857,18.3874286 L15.88,18.3874286 C14.6274286,18.3874286 13.6122857,17.3711429 13.6122857,16.1191429" id="Fill-13" fill="#2EC2FE"></path>
                    <path d="M18.1491429,9.31371429 C15.6434286,9.31371429 13.6122857,11.3448571 13.6122857,13.8505714 L13.6122857,16.1191429 C13.6122857,14.8657143 14.6274286,13.8505714 15.88,13.8505714 L18.1491429,13.8505714 C19.4017143,13.8505714 20.4174286,12.8342857 20.4174286,11.5822857 C20.4174286,10.3285714 19.4017143,9.31371429 18.1491429,9.31371429" id="Fill-14" fill="#FFCB63"></path>
                </g>
            </g>
        </g>
    </g>
</svg>