<?xml version="1.0" encoding="UTF-8"?>
<svg width="315px" height="357px" viewBox="0 0 315 357" version="1.1" xmlns="http://www.w3.org/2000/svg" xmlns:xlink="http://www.w3.org/1999/xlink">
    <!-- Generator: Sketch 49.3 (51167) - http://www.bohemiancoding.com/sketch -->
    <title>logo</title>
    <desc>Created with Sketch.</desc>
    <defs></defs>
    <g id="Page-1" stroke="none" stroke-width="1" fill="none" fill-rule="evenodd">
        <g id="logo" fill-rule="nonzero">
            <path d="M303.69,81.92 L168.13,3.65 C161.505518,-0.160408775 153.354482,-0.160408775 146.73,3.65 L11.17,81.92 C4.56260333,85.7537678 0.491308156,92.8109334 0.48,100.45 L0.48,257 C0.491329767,264.641673 4.56725497,271.700261 11.18,275.53 L146.74,353.79 C153.364482,357.600409 161.515518,357.600409 168.14,353.79 L303.7,275.53 C310.308897,271.697729 314.380739,264.639616 314.39,257 L314.39,100.45 C314.37867,92.8083269 310.302745,85.7497387 303.69,81.92 Z" id="Shape" fill="#009639"></path>
            <path d="M235.85,238.92 C235.85,248.21 227.64,255.92 216.01,255.92 C207.68,255.92 198.07,252.56 192.2,245.27 L113.93,151.6 L113.93,238.94 C113.93,248.328841 106.318841,255.94 96.93,255.94 L95.93,255.94 C86.5411593,255.94 78.93,248.328841 78.93,238.94 L78.93,118.52 C78.93,109.23 87.14,101.52 98.77,101.52 C107.1,101.52 116.71,104.88 122.58,112.17 L200.85,205.84 L200.85,118.51 C200.85,109.121159 208.461159,101.51 217.85,101.51 L218.85,101.51 C228.238841,101.51 235.85,109.121159 235.85,118.51 L235.85,238.92 Z" id="Shape" fill="#FFFFFF"></path>
        </g>
    </g>
</svg>