<svg width="161" height="27" xmlns="http://www.w3.org/2000/svg"><g fill="none" fill-rule="evenodd"><path d="M46.624 9.8c3.232 0 4.8 1.536 4.8 3.888 0 2.368-1.568 3.904-4.8 3.904h-3.168V21H41.36V9.8h5.264zm-.128 5.968c1.984 0 2.768-.736 2.768-2.08 0-1.328-.784-2.064-2.768-2.064h-3.04v4.144h3.04zM61.656 21l-1.12-2.864h-5.52L53.88 21h-2.256l4.56-11.2h3.2L63.912 21h-2.256zm-5.92-4.704h4.08l-1.872-4.752h-.32l-1.888 4.752zM65.184 21h5.664c2.608 0 4.016-1.136 4.016-3.12 0-2.032-1.248-2.896-3.552-3.328l-2.096-.384c-1.264-.24-2.016-.624-2.016-1.456 0-.752.544-1.088 1.84-1.088h5.072L73.84 9.8h-4.88c-2.576 0-3.92 1.088-3.92 2.944 0 1.952 1.28 2.816 3.52 3.232l2.064.384c1.264.24 2.08.64 2.08 1.568 0 .864-.608 1.248-1.936 1.248h-5.872L65.184 21zm11.432 0h5.664c2.608 0 4.016-1.136 4.016-3.12 0-2.032-1.248-2.896-3.552-3.328l-2.096-.384c-1.264-.24-2.016-.624-2.016-1.456 0-.752.544-1.088 1.84-1.088h5.072L85.272 9.8h-4.88c-2.576 0-3.92 1.088-3.92 2.944 0 1.952 1.28 2.816 3.52 3.232l2.064.384c1.264.24 2.08.64 2.08 1.568 0 .864-.608 1.248-1.936 1.248h-5.872L76.616 21zm11.752 0h8.848l.272-1.824H90.48v-3.008h5.616v-1.76H90.48v-2.784h6.864L97.072 9.8h-8.704V21zm19.848-11.2v7.968l-6.88-7.968H99.72V21h1.968v-7.968L108.584 21h1.6V9.8h-1.968zm12.52 5.728v3.648h-2.192c-2.576 0-3.808-1.216-3.808-3.776 0-2.56 1.232-3.776 3.808-3.776h3.872l-.272-1.824h-3.6c-4.048 0-5.952 1.792-5.952 5.6s1.904 5.6 5.952 5.6h4.304v-5.472h-2.112zm4.52 5.472h8.848l.272-1.824h-7.008v-3.008h5.616v-1.76h-5.616v-2.784h6.864L133.96 9.8h-8.704V21zm21.304 0h-2.544l-2.512-3.408h-2.8V21h-2.096V9.8h5.008c3.232 0 4.8 1.536 4.8 3.888 0 1.76-.864 3.072-2.656 3.616l2.8 3.696zm-7.856-9.376v4.128h2.784c1.984 0 2.768-.72 2.768-2.064 0-1.328-.784-2.064-2.768-2.064h-2.784zm13.136 2.098c0-2.472 1.876-4.381 4.16-4.381 2.301 0 4.16 1.909 4.16 4.38 0 2.49-1.859 4.398-4.16 4.398-2.284 0-4.16-1.909-4.16-4.397zm.717 0c0 2.08 1.551 3.664 3.443 3.664 1.91 0 3.443-1.585 3.443-3.664 0-2.063-1.534-3.648-3.443-3.648-1.892 0-3.443 1.585-3.443 3.648zm3.528.443h-.92v1.977h-.887v-4.977h1.654c1.159 0 1.892.494 1.892 1.5 0 .49-.256.852-.742 1.1.537.217.725.668.725 1.218v.324c0 .29.034.562.102.75v.085h-.903c-.086-.187-.086-.665-.086-.835v-.324c0-.545-.221-.818-.835-.818zm-.92-2.216v1.432h.886c.477 0 .904-.239.904-.682 0-.563-.273-.75-1.023-.75h-.767zM16.889 26.836h-1.81a.418.418 0 0 1-.34-.173l-1.604-2.235a.411.411 0 0 1-.07-.155l-.036-.17-.051-.043c-.093.17-.264.382-.543.404-.166.013-.895.005-1.2.001a.416.416 0 0 1-.27-.104L8.35 22.073a.417.417 0 0 1-.141-.274l-.211-2.118-.983-.902c-.1-.067-.25-.22-.25-.53 0-.131-.037-1.323-.06-2.068l-.562-.389a.42.42 0 0 1-.18-.344v-2.035a.57.57 0 0 1 .411-.534c.05-.015.422-.171.954-.403-.059-.191-.2-.586-.38-1.055a.922.922 0 0 0-.116-.112c-.11-.053-.723-.44-6.571-4.427a.418.418 0 0 1-.144-.17 1.307 1.307 0 0 1-.11-.655c.025-.224.198-1.043.272-1.385a.422.422 0 0 1 .095-.189c.165-.187.462-.344.803-.224.209.074 7.048 2.36 8.034 2.69a.795.795 0 0 0 .032-.055c.214-.401 1.021-1.088 1.263-1.289a.413.413 0 0 1 .247-.095l.163-.007c.32-.305 1.24-1.092 2.412-1.334v-.001c.055-.133.42-1.679.834-3.52a.409.409 0 0 1 .063-.144c.11-.16.285-.365.5-.43.042-.012.165-.05 1.073-.066V0l.173.005.012.168.007-.168.17-.003v.006c.916.016 1.04.054 1.082.067.215.064.39.269.5.43.03.044.052.093.063.144.413 1.84.78 3.387.833 3.52 1.173.242 2.093 1.029 2.413 1.334l.162.007a.415.415 0 0 1 .247.095c.243.201 1.05.888 1.264 1.29.012.02.022.039.032.053 1.007-.336 7.828-2.616 8.033-2.689.341-.12.639.037.804.224a.42.42 0 0 1 .095.189c.057.265.246 1.147.272 1.385.035.312-.075.58-.11.655a.416.416 0 0 1-.144.17c-5.983 4.078-6.486 4.39-6.578 4.43a1.281 1.281 0 0 0-.11.109c-.181.474-.323.871-.38 1.054.532.233.906.39.955.405.282.084.41.336.41.533v2.035a.42.42 0 0 1-.18.344l-.56.389c-.025.745-.061 1.937-.061 2.068 0 .31-.15.463-.25.53l-.983.902-.211 2.118a.417.417 0 0 1-.14.273l-2.616 2.29a.415.415 0 0 1-.27.103 28.24 28.24 0 0 1-1.2-.001c-.279-.022-.45-.234-.543-.404l-.05.042-.038.17a.414.414 0 0 1-.07.157l-1.604 2.233a.418.418 0 0 1-.338.174" fill="#4A4A4A"/><path d="M20.741 17.328s-.2 3.667-.36 5.515c0 0-.05.372-.241.422-.19.05-.13-.693-.13-.693l.27-5.194s.07-.311.27-.321c.251 0 .191.271.191.271m.05-1.562c.05.15.186 0 .186 0l.912-1.06.075-.186s.025-.316.01-.397c-.015-.08.03-.12.03-.12s1.453-1.773 1.503-1.939c.05-.166-.05-.125-.05-.125-1.253.693-1.9 1.16-1.9 1.16s-1.212.93-1.302 1.024c-.09.096 0 .216 0 .216m2.795 1.921l-.522 4.788s.014.134-.08.268c-.093.134-1.617 1.567-1.617 1.567s-.087.107-.084-.254c.004-.362.231-2.063.245-5.505l.026-.241s.014-.201.147-.322c.134-.12 1.47-1.634 1.47-1.634s.107-.08.107-.214v-.697s-.027-.147.187-.308a4.66 4.66 0 0 1 .521-.321l1.483.335s.12.04.12.268v.79s-.013.16-.173.268l-1.83 1.213m5.13-8.326l-8.725 5.278s-.484.331-.334-.188c.147-.59.535-1.835.535-1.835s.05-.186.155-.254c.245-.121 4.939-2.415 5.109-2.505.143-.074.267-.348.267-.348l.37-.729s.062-.073.156-.108l2.8-1.039s.188-.107.121.108c-.067.214-.267 1.366-.267 1.366s-.022.155-.187.254" fill="#FEFEFE"/><path d="M25.1 7.644l-.18.352s-.09.19-.28.3c-.191.112-4.93 2.311-4.93 2.311s-.075.05-.131-.14c-.06-.231-.486-.703-.486-.703s-.125-.158.135-.241c.32-.11 5.872-2.11 5.872-2.11s.135-.033 0 .231M13.52 5.846a6.819 6.819 0 0 0-2.002 1.337c-.02.02-.036-.008-.036-.008l-.38-.425c-.093-.12-.274.033-.274.033a3.794 3.794 0 0 0-.895.978c-.069.118.053.154.053.154s2.586.918 2.693.938c.203.06.219.053.253-.067.019-.066.615-2.686.629-2.826.029-.154-.04-.114-.04-.114m8.513 1.915a3.79 3.79 0 0 0-.895-.978s-.18-.154-.274-.033l-.38.425s-.016.028-.036.008a6.814 6.814 0 0 0-2.003-1.337s-.069-.04-.04.114c.014.14.61 2.76.629 2.826.034.12.05.128.253.067.107-.02 2.692-.938 2.692-.938s.123-.036.054-.154m-5.001-.258h-2.1s-.16-.002-.16-.091c0-.09.481-4.78.481-4.78s.09-.05.1.04c.01.09-.049 3.159-.049 3.159s-.006.09.11.095c.1.005.467.005.574.005h.029c.101 0 .435 0 .534-.005.116-.005.11-.095.11-.095s-.06-3.07-.05-3.16c.01-.09.1-.04.1-.04s.482 4.692.482 4.78c0 .09-.16.092-.16.092m-.21-6.298c-.02-.13-.151-.13-.151-.13l-.684-.031h-.011l-.684.03s-.13 0-.15.13c-.02.131-1.403 7.394-1.403 7.394s-.04.191.14.131c.856-.43 2.058-.461 2.102-.462.045 0 1.247.032 2.103.462.18.06.14-.13.14-.13s-1.383-7.264-1.403-7.394m-6.414 11.894s-.646-.467-1.899-1.16c0 0-.1-.04-.05.125.05.166 1.503 1.939 1.503 1.939s.045.04.03.12c-.015.08.01.397.01.397l.075.186.912 1.06s.135.15.186 0l.536-1.427s.09-.12 0-.216c-.09-.095-1.303-1.024-1.303-1.024m1.548 9.473l-.27-5.194s-.07-.311-.27-.321c-.251 0-.191.271-.191.271s.2 3.667.36 5.515c0 0 .05.372.241.422.19.05.13-.693.13-.693m-.982-5.448l-.027-.241s-.013-.201-.146-.322c-.134-.12-1.47-1.634-1.47-1.634s-.107-.08-.107-.214v-.697s.027-.147-.187-.308a4.66 4.66 0 0 0-.521-.321l-1.483.335s-.12.04-.12.267v.79s.013.161.173.269l1.83 1.213.522 4.787s-.014.134.08.268c.093.134 1.617 1.567 1.617 1.567s.087.107.083-.254c-.003-.362-.23-2.063-.244-5.505m1.871-4.099a48.575 48.575 0 0 0-.535-1.835s-.05-.186-.155-.254c-.246-.121-4.939-2.415-5.109-2.505-.144-.074-.267-.348-.267-.348l-.37-.729s-.062-.073-.156-.108L3.453 6.207s-.187-.107-.12.108c.066.214.267 1.366.267 1.366s.022.155.187.254l8.725 5.278s.484.331.334-.188" fill="#FEFEFE"/><path d="M7.047 7.996s.09.19.28.301c.19.11 4.93 2.31 4.93 2.31s.074.05.131-.14c.06-.231.486-.703.486-.703s.125-.158-.135-.241c-.32-.111-5.872-2.11-5.872-2.11s-.136-.032 0 .231l.18.352zm8.936 5.577c-.937-.017-1.731-.783-1.731-1.727 0-.943.794-1.71 1.731-1.726.938.017 1.732.783 1.732 1.726 0 .944-.794 1.71-1.732 1.727m3.152-2.805c-1.03-1.856-2.926-1.809-3.152-1.796-.225-.013-2.121-.06-3.15 1.796 0 0-.054.127-.054.228 0 .1 1.029 3.844 1.029 3.844s.02.047.107.174c.086.127 1.115.877 1.115.877s.074.1.334.114c.224.012.536.004.62.001.083.003.395.01.619 0 .26-.014.334-.115.334-.115s1.028-.75 1.115-.877c.087-.127.107-.174.107-.174s1.029-3.744 1.029-3.844c0-.1-.053-.228-.053-.228m.32 11.084v-.924c0-.12-.127.006-.127.006l-.608.442c-.193.154-.334.04-.334.04s-.654-.67-.748-.803c-.093-.134-.22-.12-.22-.12h-2.869s-.127-.014-.22.12c-.094.134-.748.804-.748.804s-.14.113-.334-.04l-.608-.443s-.127-.127-.127-.006v.924s-.007.174.14.288a67.91 67.91 0 0 0 1.182.817s.2.112.341-.174l.642-1.159s.04-.094.287-.1a86.086 86.086 0 0 1 1.76 0c.246.006.286.1.286.1l.642 1.159c.14.286.34.174.34.174s1.036-.703 1.183-.817c.147-.114.14-.288.14-.288" fill="#FEFEFE"/><path d="M19.405 17.6l-.876.38a.034.034 0 0 0-.004.002c-.02.012-.24.137-.533-.055 0 0-1.728-1.044-1.969-1.044h-.101a.044.044 0 0 0-.022.007c-.356.089-1.925 1.037-1.925 1.037-.293.192-.514.067-.533.055a.023.023 0 0 0-.004-.002l-.876-.38c-.002 0-.315-.18-.304.093 0 .02.173 2.244.173 2.244.007.391.156.503.173.514l.002.002.465.252c.001.001.255.158.365.064l.008-.005c.027-.026.22-.209.357-.432a.525.525 0 0 1 .386-.255h3.592a.525.525 0 0 1 .387.255c.136.223.33.406.357.432l.008.005c.11.094.364-.063.365-.064l.465-.252.002-.002c.017-.011.166-.123.172-.514l.174-2.244c.011-.272-.302-.093-.304-.092" fill="#FEFEFE"/></g></svg>