<?xml version="1.0" encoding="UTF-8"?>
<svg width="155px" height="28px" viewBox="0 0 155 28" version="1.1" xmlns="http://www.w3.org/2000/svg" xmlns:xlink="http://www.w3.org/1999/xlink">
    <!-- Generator: Sketch 52.4 (67378) - http://www.bohemiancoding.com/sketch -->
    <title>Group</title>
    <desc>Created with Sketch.</desc>
    <defs>
        <linearGradient x1="50%" y1="0%" x2="50%" y2="100%" id="linearGradient-1">
            <stop stop-color="#448FF6" offset="0%"></stop>
            <stop stop-color="#04129F" offset="100%"></stop>
        </linearGradient>
    </defs>
    <g id="Page-1" stroke="none" stroke-width="1" fill="none" fill-rule="evenodd">
        <g id="Group">
            <g id="passenger" transform="translate(35.000000, 10.000000)" fill="#C6C6C6" fill-rule="nonzero">
                <path d="M5.624,0.8 C8.856,0.8 10.424,2.336 10.424,4.688 C10.424,7.056 8.856,8.592 5.624,8.592 L2.456,8.592 L2.456,12 L0.36,12 L0.36,0.8 L5.624,0.8 Z M5.496,6.768 C7.48,6.768 8.264,6.032 8.264,4.688 C8.264,3.36 7.48,2.624 5.496,2.624 L2.456,2.624 L2.456,6.768 L5.496,6.768 Z M20.656,12 L19.536,9.136 L14.016,9.136 L12.88,12 L10.624,12 L15.184,0.8 L18.384,0.8 L22.912,12 L20.656,12 Z M14.736,7.296 L18.816,7.296 L16.944,2.544 L16.624,2.544 L14.736,7.296 Z M24.184,12 L29.848,12 C32.456,12 33.864,10.864 33.864,8.88 C33.864,6.848 32.616,5.984 30.312,5.552 L28.216,5.168 C26.952,4.928 26.2,4.544 26.2,3.712 C26.2,2.96 26.744,2.624 28.04,2.624 L33.112,2.624 L32.84,0.8 L27.96,0.8 C25.384,0.8 24.04,1.888 24.04,3.744 C24.04,5.696 25.32,6.56 27.56,6.976 L29.624,7.36 C30.888,7.6 31.704,8 31.704,8.928 C31.704,9.792 31.096,10.176 29.768,10.176 L23.896,10.176 L24.184,12 Z M35.616,12 L41.28,12 C43.888,12 45.296,10.864 45.296,8.88 C45.296,6.848 44.048,5.984 41.744,5.552 L39.648,5.168 C38.384,4.928 37.632,4.544 37.632,3.712 C37.632,2.96 38.176,2.624 39.472,2.624 L44.544,2.624 L44.272,0.8 L39.392,0.8 C36.816,0.8 35.472,1.888 35.472,3.744 C35.472,5.696 36.752,6.56 38.992,6.976 L41.056,7.36 C42.32,7.6 43.136,8 43.136,8.928 C43.136,9.792 42.528,10.176 41.2,10.176 L35.328,10.176 L35.616,12 Z M47.368,12 L56.216,12 L56.488,10.176 L49.48,10.176 L49.48,7.168 L55.096,7.168 L55.096,5.408 L49.48,5.408 L49.48,2.624 L56.344,2.624 L56.072,0.8 L47.368,0.8 L47.368,12 Z M67.216,0.8 L67.216,8.768 L60.336,0.8 L58.72,0.8 L58.72,12 L60.688,12 L60.688,4.032 L67.584,12 L69.184,12 L69.184,0.8 L67.216,0.8 Z M79.736,6.528 L79.736,10.176 L77.544,10.176 C74.968,10.176 73.736,8.96 73.736,6.4 C73.736,3.84 74.968,2.624 77.544,2.624 L81.416,2.624 L81.144,0.8 L77.544,0.8 C73.496,0.8 71.592,2.592 71.592,6.4 C71.592,10.208 73.496,12 77.544,12 L81.848,12 L81.848,6.528 L79.736,6.528 Z M84.256,12 L93.104,12 L93.376,10.176 L86.368,10.176 L86.368,7.168 L91.984,7.168 L91.984,5.408 L86.368,5.408 L86.368,2.624 L93.232,2.624 L92.96,0.8 L84.256,0.8 L84.256,12 Z M105.56,12 L103.016,12 L100.504,8.592 L97.704,8.592 L97.704,12 L95.608,12 L95.608,0.8 L100.616,0.8 C103.848,0.8 105.416,2.336 105.416,4.688 C105.416,6.448 104.552,7.76 102.76,8.304 L105.56,12 Z M97.704,2.624 L97.704,6.752 L100.488,6.752 C102.472,6.752 103.256,6.032 103.256,4.688 C103.256,3.36 102.472,2.624 100.488,2.624 L97.704,2.624 Z M110.84,4.722 C110.84,2.25 112.716,0.341 115,0.341 C117.301,0.341 119.16,2.25 119.16,4.721 C119.16,7.211 117.301,9.119 115,9.119 C112.716,9.119 110.84,7.21 110.84,4.722 Z M111.557,4.722 C111.557,6.802 113.108,8.386 115,8.386 C116.91,8.386 118.443,6.801 118.443,4.722 C118.443,2.659 116.909,1.074 115,1.074 C113.108,1.074 111.557,2.659 111.557,4.722 Z M115.085,5.165 L114.165,5.165 L114.165,7.142 L113.278,7.142 L113.278,2.165 L114.932,2.165 C116.091,2.165 116.824,2.659 116.824,3.665 C116.824,4.155 116.568,4.517 116.082,4.765 C116.619,4.982 116.807,5.433 116.807,5.983 L116.807,6.307 C116.807,6.597 116.841,6.869 116.909,7.057 L116.909,7.142 L116.006,7.142 C115.92,6.955 115.92,6.477 115.92,6.307 L115.92,5.983 C115.92,5.438 115.699,5.165 115.085,5.165 Z M114.165,2.949 L114.165,4.381 L115.051,4.381 C115.528,4.381 115.955,4.142 115.955,3.699 C115.955,3.136 115.682,2.949 114.932,2.949 L114.165,2.949 Z" id="Shape"></path>
            </g>
            <g id="passenger_logo-2">
                <g id="passenger_logo">
                    <g id="b-link" fill="url(#linearGradient-1)">
                        <path d="M17.4167812,27.8299259 L15.5491875,27.8299259 C15.4110626,27.8294975 15.2814864,27.762611 15.200625,27.65 L13.5454687,25.3332593 C13.5109041,25.2852312 13.4866704,25.2304876 13.4743125,25.1725185 L13.4361562,24.9951852 L13.3835625,24.9516296 C13.2876562,25.1279259 13.1113125,25.3477778 12.8230781,25.3700741 C12.6518906,25.3835556 11.9001094,25.3752593 11.5855781,25.3716296 C11.4829225,25.3703404 11.3841303,25.3320736 11.3071406,25.2637778 L8.61042187,22.89 C8.52761152,22.8174608 8.47557795,22.7157785 8.46501562,22.6058519 L8.24742187,20.4104444 L7.23473437,19.474 C7.13160937,19.405037 6.97640625,19.2474074 6.97640625,18.9243704 C6.97640625,18.789037 6.93876562,17.5528889 6.91453125,16.7802963 L6.33548437,16.3768889 C6.21931968,16.2956563 6.14999857,16.1624325 6.14985937,16.0201481 L6.14985937,13.9102963 C6.14985937,13.7054815 6.282375,13.4441481 6.5731875,13.3565185 C6.62423437,13.340963 7.00889062,13.1781481 7.55751562,12.9380741 C7.49615625,12.74 7.35126562,12.3298519 7.16564062,11.844 C7.1290669,11.8014705 7.08867775,11.7624168 7.04498437,11.7273333 C6.93154687,11.6723704 6.29990625,11.271037 0.26915625,7.13740741 C0.20435651,7.09304098 0.15283205,7.03172523 0.120140625,6.96007407 C0.0249946623,6.74756058 -0.0140745873,6.51397263 0.006703125,6.28185185 C0.032484375,6.04851852 0.21140625,5.19918519 0.28771875,4.84555556 C0.303215852,4.77273404 0.336935932,4.7050939 0.3856875,4.64903704 C0.55584375,4.45562963 0.862640625,4.29281481 1.21429688,4.41725926 C1.4293125,4.49348148 8.48254687,6.86414815 9.49884375,7.20533333 C9.51057255,7.18711081 9.52158113,7.16842958 9.53184375,7.14933333 C9.75253125,6.73348148 10.58475,6.02103704 10.8348281,5.81259259 C10.9066225,5.75235902 10.9961322,5.71755681 11.0895469,5.71355556 L11.257125,5.70681481 C11.587125,5.39051852 12.5363906,4.57385185 13.7445,4.32392593 L13.7455312,4.32237037 C13.8012187,4.18496296 14.1786562,2.58118519 14.6045625,0.672518519 C14.616331,0.619046827 14.6382125,0.568348977 14.6690156,0.523185185 C14.7824531,0.356740741 14.9634375,0.144666667 15.1846406,0.0772592593 C15.2279531,0.0642962963 15.3553125,0.0254074074 16.2916875,0.0082962963 L16.2916875,0 L16.4706094,0.00518518519 L16.4829844,0.179925926 L16.4891719,0.00466666667 L16.6655156,0.00207407407 L16.6655156,0.0082962963 C17.6091094,0.0254074074 17.7380156,0.0642962963 17.7813281,0.0772592593 C18.0020156,0.144666667 18.1835156,0.356740741 18.2964375,0.523185185 C18.327375,0.568814815 18.3495469,0.61962963 18.3614062,0.673555556 C18.7878281,2.5817037 19.1652656,4.18548148 19.2209531,4.32340741 C20.4295781,4.57385185 21.3783281,5.39051852 21.7088437,5.70681481 L21.8759062,5.71355556 C21.9694073,5.71745 22.0590618,5.75205596 22.1311406,5.81207407 C22.3812187,6.02103704 23.2134375,6.73348148 23.434125,7.14985185 C23.4459844,7.17214815 23.4568125,7.1902963 23.467125,7.20585185 C24.5055937,6.85637037 31.5402656,4.49244444 31.7516719,4.41725926 C32.1033281,4.29281481 32.410125,4.45562963 32.5802812,4.64955556 C32.6289535,4.70526665 32.6626747,4.77255216 32.67825,4.84503704 C32.7370312,5.11985185 32.9319375,6.03451852 32.95875,6.28133333 C32.9948437,6.60488889 32.8808906,6.88281481 32.8453125,6.96059259 C32.8128144,7.03177814 32.7616569,7.09272299 32.6973281,7.13688889 C26.5263281,11.3664444 26.008125,11.688963 25.9137656,11.730963 C25.9055156,11.7371852 25.8570469,11.7797037 25.7998125,11.844 C25.6602184,12.205326 25.5292124,12.5699482 25.4069062,12.9375556 C25.9570781,13.1781481 26.3417344,13.3404444 26.3932969,13.3565185 C26.6835937,13.4446667 26.8161094,13.7054815 26.8161094,13.9102963 L26.8161094,16.0201481 C26.8159702,16.1624325 26.7466491,16.2956563 26.6304844,16.3768889 L26.0514375,16.7802963 C26.0272031,17.5528889 25.9895625,18.789037 25.9895625,18.9248889 C25.9895625,19.2468889 25.8343594,19.405037 25.73175,19.4745185 L24.7180312,20.4104444 L24.5004375,22.6063704 C24.4899648,22.7159464 24.4383316,22.8173816 24.3560625,22.89 L21.6577969,25.2642963 C21.5809152,25.3323685 21.4823038,25.3704521 21.379875,25.3716296 C21.0653438,25.3757778 20.3140781,25.383037 20.142375,25.3700741 C19.8551719,25.3477778 19.6783125,25.1274074 19.5824063,24.9511111 L19.5298125,24.9951852 L19.4921719,25.1714815 C19.4796339,25.2300528 19.4550442,25.2853367 19.4199844,25.3337778 L17.7653438,27.6494815 C17.6846499,27.7623546 17.5550195,27.8294619 17.4167813,27.8299259" id="b"></path>
                    </g>
                    <g id="b-link" fill="#0E121B">
                        <path d="M17.4167812,27.8299259 L15.5491875,27.8299259 C15.4110626,27.8294975 15.2814864,27.762611 15.200625,27.65 L13.5454687,25.3332593 C13.5109041,25.2852312 13.4866704,25.2304876 13.4743125,25.1725185 L13.4361562,24.9951852 L13.3835625,24.9516296 C13.2876562,25.1279259 13.1113125,25.3477778 12.8230781,25.3700741 C12.6518906,25.3835556 11.9001094,25.3752593 11.5855781,25.3716296 C11.4829225,25.3703404 11.3841303,25.3320736 11.3071406,25.2637778 L8.61042187,22.89 C8.52761152,22.8174608 8.47557795,22.7157785 8.46501562,22.6058519 L8.24742187,20.4104444 L7.23473437,19.474 C7.13160937,19.405037 6.97640625,19.2474074 6.97640625,18.9243704 C6.97640625,18.789037 6.93876562,17.5528889 6.91453125,16.7802963 L6.33548437,16.3768889 C6.21931968,16.2956563 6.14999857,16.1624325 6.14985937,16.0201481 L6.14985937,13.9102963 C6.14985937,13.7054815 6.282375,13.4441481 6.5731875,13.3565185 C6.62423437,13.340963 7.00889062,13.1781481 7.55751562,12.9380741 C7.49615625,12.74 7.35126562,12.3298519 7.16564062,11.844 C7.1290669,11.8014705 7.08867775,11.7624168 7.04498437,11.7273333 C6.93154687,11.6723704 6.29990625,11.271037 0.26915625,7.13740741 C0.20435651,7.09304098 0.15283205,7.03172523 0.120140625,6.96007407 C0.0249946623,6.74756058 -0.0140745873,6.51397263 0.006703125,6.28185185 C0.032484375,6.04851852 0.21140625,5.19918519 0.28771875,4.84555556 C0.303215852,4.77273404 0.336935932,4.7050939 0.3856875,4.64903704 C0.55584375,4.45562963 0.862640625,4.29281481 1.21429688,4.41725926 C1.4293125,4.49348148 8.48254687,6.86414815 9.49884375,7.20533333 C9.51057255,7.18711081 9.52158113,7.16842958 9.53184375,7.14933333 C9.75253125,6.73348148 10.58475,6.02103704 10.8348281,5.81259259 C10.9066225,5.75235902 10.9961322,5.71755681 11.0895469,5.71355556 L11.257125,5.70681481 C11.587125,5.39051852 12.5363906,4.57385185 13.7445,4.32392593 L13.7455312,4.32237037 C13.8012187,4.18496296 14.1786562,2.58118519 14.6045625,0.672518519 C14.616331,0.619046827 14.6382125,0.568348977 14.6690156,0.523185185 C14.7824531,0.356740741 14.9634375,0.144666667 15.1846406,0.0772592593 C15.2279531,0.0642962963 15.3553125,0.0254074074 16.2916875,0.0082962963 L16.2916875,0 L16.4706094,0.00518518519 L16.4829844,0.179925926 L16.4891719,0.00466666667 L16.6655156,0.00207407407 L16.6655156,0.0082962963 C17.6091094,0.0254074074 17.7380156,0.0642962963 17.7813281,0.0772592593 C18.0020156,0.144666667 18.1835156,0.356740741 18.2964375,0.523185185 C18.327375,0.568814815 18.3495469,0.61962963 18.3614062,0.673555556 C18.7878281,2.5817037 19.1652656,4.18548148 19.2209531,4.32340741 C20.4295781,4.57385185 21.3783281,5.39051852 21.7088437,5.70681481 L21.8759062,5.71355556 C21.9694073,5.71745 22.0590618,5.75205596 22.1311406,5.81207407 C22.3812187,6.02103704 23.2134375,6.73348148 23.434125,7.14985185 C23.4459844,7.17214815 23.4568125,7.1902963 23.467125,7.20585185 C24.5055937,6.85637037 31.5402656,4.49244444 31.7516719,4.41725926 C32.1033281,4.29281481 32.410125,4.45562963 32.5802812,4.64955556 C32.6289535,4.70526665 32.6626747,4.77255216 32.67825,4.84503704 C32.7370312,5.11985185 32.9319375,6.03451852 32.95875,6.28133333 C32.9948437,6.60488889 32.8808906,6.88281481 32.8453125,6.96059259 C32.8128144,7.03177814 32.7616569,7.09272299 32.6973281,7.13688889 C26.5263281,11.3664444 26.008125,11.688963 25.9137656,11.730963 C25.9055156,11.7371852 25.8570469,11.7797037 25.7998125,11.844 C25.6602184,12.205326 25.5292124,12.5699482 25.4069062,12.9375556 C25.9570781,13.1781481 26.3417344,13.3404444 26.3932969,13.3565185 C26.6835937,13.4446667 26.8161094,13.7054815 26.8161094,13.9102963 L26.8161094,16.0201481 C26.8159702,16.1624325 26.7466491,16.2956563 26.6304844,16.3768889 L26.0514375,16.7802963 C26.0272031,17.5528889 25.9895625,18.789037 25.9895625,18.9248889 C25.9895625,19.2468889 25.8343594,19.405037 25.73175,19.4745185 L24.7180312,20.4104444 L24.5004375,22.6063704 C24.4899648,22.7159464 24.4383316,22.8173816 24.3560625,22.89 L21.6577969,25.2642963 C21.5809152,25.3323685 21.4823038,25.3704521 21.379875,25.3716296 C21.0653438,25.3757778 20.3140781,25.383037 20.142375,25.3700741 C19.8551719,25.3477778 19.6783125,25.1274074 19.5824063,24.9511111 L19.5298125,24.9951852 L19.4921719,25.1714815 C19.4796339,25.2300528 19.4550442,25.2853367 19.4199844,25.3337778 L17.7653438,27.6494815 C17.6846499,27.7623546 17.5550195,27.8294619 17.4167813,27.8299259" id="b"></path>
                    </g>
                    <path d="M21.3891562,17.9697778 C21.3891562,17.9697778 21.1829062,21.7720741 21.0173906,23.689037 C21.0173906,23.689037 20.9658281,24.0742963 20.769375,24.1266667 C20.5734375,24.1785185 20.6353125,23.408 20.6353125,23.408 L20.91375,18.0216296 C20.91375,18.0216296 20.9859375,17.6991111 21.1932187,17.6887407 C21.4510312,17.6882222 21.3891562,17.9697778 21.3891562,17.9697778 M20.299125,15.9434074 C20.299125,15.9434074 20.6657344,16.5531852 20.1702187,17.4071852 C19.6736719,18.2611852 18.5062969,17.6208148 18.5062969,17.6208148 C18.5062969,17.6208148 17.8395938,17.2511111 18.5527031,16.787037 C19.2658125,16.324 19.9629375,15.9434074 19.9629375,15.9434074 C19.9629375,15.9434074 20.233125,15.7883704 20.299125,15.9434074 M21.4412344,16.3499259 C21.4927969,16.506 21.6320156,16.3499259 21.6320156,16.3499259 L22.5725156,15.2506667 L22.6498594,15.0577778 C22.6498594,15.0577778 22.6756406,14.7300741 22.6601719,14.6465926 C22.6447031,14.5636296 22.6911094,14.5216296 22.6911094,14.5216296 C22.6911094,14.5216296 24.1900312,12.682963 24.2415937,12.5108148 C24.2931562,12.3391852 24.1900312,12.3806667 24.1900312,12.3806667 C22.897875,13.0993333 22.2316875,13.5836296 22.2316875,13.5836296 C22.2316875,13.5836296 20.9812969,14.5480741 20.8879687,14.6465926 C20.7951562,14.7451111 20.8879687,14.8705926 20.8879687,14.8705926 M23.7697969,16.8632593 L23.232,21.8275556 C23.232,21.8275556 23.2459219,21.9665185 23.1495,22.1054815 C23.0530781,22.2444444 21.4824844,23.731037 21.4824844,23.731037 C21.4824844,23.731037 21.39225,23.842 21.3958594,23.4665926 C21.3994688,23.0917037 21.6340781,21.3277037 21.6474844,17.7577037 L21.6753281,17.5082963 C21.6753281,17.5082963 21.68925,17.2993333 21.8269219,17.1743704 C21.9645938,17.0499259 23.3428594,15.4798519 23.3428594,15.4798519 C23.3428594,15.4798519 23.4526875,15.3968889 23.4526875,15.2574074 L23.4526875,14.5356296 C23.4526875,14.5356296 23.4253594,14.3826667 23.6455313,14.2162222 C23.816955,14.093047 23.9964574,13.9816576 24.1828125,13.8828148 L25.7126719,14.2302222 C25.7126719,14.2302222 25.8364219,14.2717037 25.8364219,14.5076296 L25.8364219,15.3268889 C25.8364219,15.3268889 25.8225,15.4938519 25.6569844,15.6048148 C25.4919844,15.7157778 23.7697969,16.8632593 23.7697969,16.8632593 M29.060625,8.22888889 L20.0629687,13.7023704 C20.0629687,13.7023704 19.5638437,14.0461481 19.7185312,13.5079259 C19.870125,12.8965926 20.27025,11.604963 20.27025,11.604963 C20.27025,11.604963 20.3207812,11.4120741 20.4300937,11.341037 C20.68275,11.2165926 25.5229219,8.83762963 25.69875,8.74325926 C25.8467344,8.66755556 25.9740937,8.38237037 25.9740937,8.38237037 L26.3556562,7.62688889 C26.3556562,7.62688889 26.4195937,7.55066667 26.5165312,7.51488889 L29.4050625,6.43792593 C29.4050625,6.43792593 29.5979063,6.32696296 29.5288125,6.54888889 C29.4602344,6.77133333 29.2534687,7.966 29.2534687,7.966 C29.2534687,7.966 29.2307813,8.12674074 29.060625,8.22992593" id="Shape" fill="#FEFEFE" fill-rule="nonzero"></path>
                    <path d="M25.884375,7.92711111 L25.69875,8.29162963 C25.69875,8.29162963 25.6059375,8.4897037 25.4094844,8.6042963 C25.2130313,8.71888889 20.3254219,10.9998519 20.3254219,10.9998519 C20.3254219,10.9998519 20.2491094,11.0527407 20.1903281,10.8546667 C20.1284531,10.6151111 19.6901719,10.1251111 19.6901719,10.1251111 C19.6901719,10.1251111 19.5602344,9.9622963 19.8293906,9.87518519 C20.1593906,9.76111111 25.884375,7.68755556 25.884375,7.68755556 C25.884375,7.68755556 26.0235938,7.65385185 25.884375,7.92711111 M13.9425,6.06251852 C12.766875,6.57222222 11.9985938,7.3302963 11.8784531,7.44851852 C11.8567969,7.4702963 11.8408125,7.44074074 11.8408125,7.44074074 L11.4489375,7 C11.3525156,6.87503704 11.166375,7.03474074 11.166375,7.03474074 C10.6357969,7.45111111 10.3259063,7.90274074 10.2434063,8.04844444 C10.17225,8.17081481 10.2985781,8.20866667 10.2985781,8.20866667 C10.2985781,8.20866667 12.9643594,9.16014815 13.0747031,9.18088889 C13.2840469,9.24311111 13.3010625,9.23585185 13.336125,9.11192593 C13.3557188,9.04296296 13.9703438,6.32644444 13.9842656,6.18022222 C14.0146875,6.02051852 13.9430156,6.06251852 13.9430156,6.06251852 M22.7225625,8.04844444 C22.6400625,7.90325926 22.3296563,7.45162963 21.7995938,7.03474074 C21.7995938,7.03474074 21.6134531,6.87503704 21.5165156,7 L21.1246406,7.44074074 C21.1246406,7.44074074 21.1091719,7.46977778 21.0875156,7.44903704 C20.967375,7.32977778 20.1990938,6.57274074 19.0229531,6.06251852 C19.0229531,6.06251852 18.9512813,6.02103704 18.9817031,6.18022222 C18.9951094,6.32644444 19.61025,9.04244444 19.6298438,9.11192593 C19.6649063,9.23585185 19.6814063,9.24362963 19.89075,9.18088889 C20.0010938,9.16014815 22.6673906,8.20814815 22.6673906,8.20814815 C22.6673906,8.20814815 22.7932031,8.17081481 22.7225625,8.04844444 M17.5657969,7.78140741 L15.4001719,7.78140741 C15.4001719,7.78140741 15.2351719,7.77881481 15.2351719,7.686 C15.2351719,7.5937037 15.7306875,2.72896296 15.7306875,2.72896296 C15.7306875,2.72896296 15.8235,2.67711111 15.8338125,2.77044444 C15.844125,2.86377778 15.7837969,6.04696296 15.7837969,6.04696296 C15.7837969,6.04696296 15.7770938,6.1402963 15.8962031,6.14548148 C15.9993281,6.15066667 16.3783125,6.15066667 16.4886563,6.15066667 L16.5185625,6.15066667 C16.6232344,6.15066667 16.9671563,6.15014815 17.0697656,6.14548148 C17.1883594,6.1402963 17.1821719,6.04696296 17.1821719,6.04696296 C17.1821719,6.04696296 17.1213281,2.8642963 17.1316406,2.76992593 C17.1419531,2.67659259 17.2347656,2.72844444 17.2347656,2.72844444 C17.2347656,2.72844444 17.7313125,7.5937037 17.7313125,7.686 C17.7313125,7.77881481 17.5657969,7.78140741 17.5657969,7.78140741 M17.3492344,1.24911111 C17.3286094,1.1142963 17.1935156,1.1142963 17.1935156,1.1142963 L16.4886563,1.08266667 L16.4773125,1.08266667 L15.7719375,1.11377778 C15.7719375,1.11377778 15.637875,1.11377778 15.61725,1.24911111 C15.596625,1.38496296 14.1704063,8.91696296 14.1704063,8.91696296 C14.1704063,8.91696296 14.1291563,9.11451852 14.3147813,9.05177778 C15.1970156,8.60585185 16.4365781,8.57422222 16.4829844,8.57318519 C16.5293906,8.57422222 17.7684375,8.60585185 18.6506719,9.0522963 C18.8368125,9.11451852 18.7950469,8.91696296 18.7950469,8.91696296 C18.7950469,8.91696296 17.3698594,1.38444444 17.3492344,1.24911111 M14.4132656,16.7875556 C13.9527196,16.4900874 13.4821948,16.2085402 13.0025156,15.9434074 C13.0025156,15.9434074 12.7328437,15.7883704 12.6668437,15.9434074 C12.6668437,15.9434074 12.2997187,16.5526667 12.79575,17.4071852 C13.2917812,18.2617037 14.4596719,17.6208148 14.4596719,17.6208148 C14.4596719,17.6208148 15.126375,17.2511111 14.4132656,16.7875556 M10.7342812,13.5841481 C10.7342812,13.5841481 10.0675781,13.0993333 8.7759375,12.3811852 C8.7759375,12.3811852 8.6728125,12.3391852 8.724375,12.5108148 C8.7759375,12.682963 10.2743437,14.5216296 10.2743437,14.5216296 C10.2743437,14.5216296 10.32075,14.5631111 10.3052812,14.6460741 C10.2898125,14.7300741 10.3155937,15.0577778 10.3155937,15.0577778 L10.3929375,15.2506667 L11.3334375,16.3499259 C11.3334375,16.3499259 11.4726562,16.506 11.5247344,16.3499259 L12.0774844,14.8705926 C12.0774844,14.8705926 12.1702969,14.7456296 12.0774844,14.6465926 C11.9846719,14.5480741 10.7342812,13.5836296 10.7342812,13.5836296 M12.3306563,23.408 L12.0522188,18.0216296 C12.0522188,18.0216296 11.9795156,17.6991111 11.77275,17.6882222 C11.5149375,17.6882222 11.5768125,17.9697778 11.5768125,17.9697778 C11.5768125,17.9697778 11.7830625,21.7720741 11.9485781,23.689037 C11.9485781,23.689037 12.0001406,24.0742963 12.1965938,24.1266667 C12.3925313,24.1785185 12.3306563,23.408 12.3306563,23.408 M11.3179687,17.7577037 L11.2906406,17.5082963 C11.2906406,17.5082963 11.2767187,17.2993333 11.1390469,17.1743704 C11.001375,17.0499259 9.62310937,15.4798519 9.62310937,15.4798519 C9.62310937,15.4798519 9.51328125,15.3968889 9.51328125,15.2574074 L9.51328125,14.5356296 C9.51328125,14.5356296 9.54060937,14.3826667 9.3204375,14.2157037 C9.14864855,14.0929655 8.96899261,13.981761 8.78264062,13.8828148 L7.25329687,14.2302222 C7.25329687,14.2302222 7.12954687,14.2717037 7.12954687,14.5076296 L7.12954687,15.3268889 C7.12954687,15.3268889 7.14346875,15.4938519 7.30846875,15.6048148 L9.19617187,16.8632593 L9.73345312,21.8275556 C9.73345312,21.8275556 9.72004687,21.9665185 9.81595312,22.1054815 C9.91289062,22.2444444 11.4834844,23.731037 11.4834844,23.731037 C11.4834844,23.731037 11.5737187,23.842 11.5701094,23.4665926 C11.5659844,23.0917037 11.3318906,21.3277037 11.3179687,17.7577037 M13.2469219,13.5074074 C13.0953281,12.8960741 12.6962344,11.6044444 12.6962344,11.6044444 C12.6962344,11.6044444 12.6446719,11.4115556 12.5363906,11.3405185 C12.2827031,11.2160741 7.44304687,8.83711111 7.26721875,8.74274074 C7.11923437,8.66703704 6.991875,8.38185185 6.991875,8.38185185 L6.6103125,7.62637037 C6.6103125,7.62637037 6.54585937,7.55014815 6.44892187,7.51437037 L3.56090625,6.43740741 C3.56090625,6.43740741 3.3680625,6.32644444 3.43715625,6.54837037 C3.50573437,6.77081481 3.7125,7.96548148 3.7125,7.96548148 C3.7125,7.96548148 3.7351875,8.12622222 3.90534375,8.22940741 L12.903,13.7018519 C12.903,13.7018519 13.402125,14.0456296 13.2469219,13.5074074" id="Shape" fill="#FEFEFE" fill-rule="nonzero"></path>
                    <path d="M7.26721875,8.29162963 C7.26721875,8.29162963 7.36003125,8.4897037 7.55648437,8.6042963 C7.75242187,8.71837037 12.6405469,11.0003704 12.6405469,11.0003704 C12.6405469,11.0003704 12.7168594,11.0522222 12.775125,10.8546667 C12.837,10.6145926 13.2757969,10.1251111 13.2757969,10.1251111 C13.2757969,10.1251111 13.4057344,9.9622963 13.1365781,9.87518519 C12.8065781,9.76059259 7.08107812,7.68703704 7.08107812,7.68703704 C7.08107812,7.68703704 6.94185937,7.65385185 7.08107812,7.92711111 L7.26721875,8.29162963 Z M16.4829844,14.0762222 C15.5161875,14.0580741 14.697375,13.2637037 14.697375,12.2852593 C14.697375,11.3068148 15.5161875,10.5119259 16.4829844,10.4942963 C17.4497812,10.5124444 18.2685937,11.3068148 18.2685937,12.2852593 C18.2685937,13.2637037 17.4497812,14.0585926 16.4829844,14.0762222 Z M19.7324531,11.1673333 C18.6702656,9.24155556 16.7150156,9.29133333 16.4829844,9.3042963 C16.2509531,9.29133333 14.2951875,9.24207407 13.2335156,11.1673333 C13.2335156,11.1673333 13.1783437,11.299037 13.1783437,11.4032593 C13.1783437,11.506963 14.2395,15.3896296 14.2395,15.3896296 C14.2395,15.3896296 14.260125,15.4383704 14.3493281,15.5700741 C14.4390469,15.7022963 15.5002031,16.4800741 15.5002031,16.4800741 C15.5002031,16.4800741 15.576,16.5837778 15.8446406,16.5982963 C16.075125,16.6102222 16.3963594,16.6014074 16.4829844,16.5982963 C16.5696094,16.6014074 16.8903281,16.6102222 17.1213281,16.5982963 C17.3899687,16.5842963 17.4657656,16.4800741 17.4657656,16.4800741 C17.4657656,16.4800741 18.5269219,15.7022963 18.6166406,15.5700741 C18.7058437,15.4383704 18.7264687,15.3896296 18.7264687,15.3896296 C18.7264687,15.3896296 19.787625,11.5074815 19.787625,11.4032593 C19.787625,11.299037 19.7324531,11.1673333 19.7324531,11.1673333 Z M20.0629687,22.6613333 L20.0629687,21.7025926 C20.0629687,21.5781481 19.932,21.7098519 19.932,21.7098519 L19.3055156,22.1682222 C19.1054531,22.3279259 18.9605625,22.2097037 18.9605625,22.2097037 C18.9605625,22.2097037 18.2856094,21.5148889 18.1891875,21.3764444 C18.0927656,21.2374815 17.9623125,21.2514815 17.9623125,21.2514815 L15.0036562,21.2514815 C15.0036562,21.2514815 14.8726875,21.2374815 14.7767812,21.3759259 C14.6803594,21.5154074 14.0048906,22.2097037 14.0048906,22.2097037 C14.0048906,22.2097037 13.8605156,22.3279259 13.6604531,22.1682222 L13.0334531,21.7098519 C13.0334531,21.7098519 12.9024844,21.5776296 12.9024844,21.7025926 L12.9024844,22.6613333 C12.9024844,22.6613333 12.8957812,22.8417778 13.0468594,22.96 C13.1989687,23.0777037 14.2668281,23.8072593 14.2668281,23.8072593 C14.2668281,23.8072593 14.4730781,23.9234074 14.6179687,23.6268148 L15.2795156,22.4248889 C15.2795156,22.4248889 15.3207656,22.3279259 15.5754844,22.3211852 C15.8039062,22.3144444 17.1563906,22.3144444 17.3904844,22.3211852 C17.6446875,22.3279259 17.6864531,22.4248889 17.6864531,22.4248889 L18.3474844,23.6268148 C18.4934062,23.9234074 18.6991406,23.8072593 18.6991406,23.8072593 C18.6991406,23.8072593 19.7664844,23.0777037 19.9185937,22.96 C20.0701875,22.8417778 20.0629687,22.6613333 20.0629687,22.6613333 Z" id="Shape" fill="#FEFEFE" fill-rule="nonzero"></path>
                    <path d="M20.0114062,18.2523704 L19.1075156,18.6464444 C19.1062841,18.6468937 19.1050791,18.6474131 19.1039062,18.648 C19.0837969,18.6604444 18.8564062,18.7900741 18.55425,18.590963 C18.55425,18.590963 16.7727656,17.5082963 16.5237187,17.5082963 L16.5195937,17.5088148 L16.5159844,17.5082963 L16.4195625,17.5082963 C16.4117164,17.5085765 16.4040769,17.5108991 16.3973906,17.515037 C16.0302656,17.6073333 14.4112031,18.5914815 14.4112031,18.5914815 C14.1090469,18.7900741 13.8816562,18.6604444 13.8615469,18.648 C13.8604064,18.6472037 13.8591987,18.6465097 13.8579375,18.6459259 L12.9545625,18.2523704 C12.9519844,18.2513333 12.6297187,18.0657037 12.6410625,18.3482963 C12.6415781,18.369037 12.8199844,20.6748889 12.8199844,20.6748889 C12.8266875,21.0814074 12.9798281,21.197037 12.997875,21.208963 L13.0004531,21.2105185 L13.4794687,21.4723704 C13.4805,21.4734074 13.7424375,21.6357037 13.855875,21.5382222 L13.8636094,21.533037 C13.8924844,21.5060741 14.0920312,21.3162963 14.2322812,21.0845185 C14.3173373,20.9392288 14.4645298,20.8417626 14.6308594,20.8205926 L18.3351094,20.8205926 C18.3526406,20.8221481 18.5877656,20.8444444 18.7336875,21.085037 C18.8739375,21.3162963 19.0734844,21.5060741 19.1023594,21.533037 C19.1044219,21.5351111 19.1075156,21.5361481 19.1100937,21.5382222 C19.2230156,21.6357037 19.4849531,21.4734074 19.4865,21.4723704 L19.9655156,21.2105185 L19.9680937,21.2084444 C19.985625,21.197037 20.1392812,21.0814074 20.1459844,20.6748889 C20.1459844,20.6748889 20.323875,18.369037 20.3249062,18.3482963 C20.3367656,18.0662222 20.0139844,18.2513333 20.0114062,18.2523704" id="Path" fill="#FEFEFE"></path>
                </g>
            </g>
        </g>
    </g>
</svg>