<svg height="113" viewBox="0 0 112 113" width="112" xmlns="http://www.w3.org/2000/svg" xmlns:xlink="http://www.w3.org/1999/xlink"><linearGradient id="a" x1=".000000106341%" x2="74.5209927%" y1=".000000091486%" y2="64.1103734%"><stop offset="0" stop-color="#5a9fd4"/><stop offset="1" stop-color="#306998"/></linearGradient><linearGradient id="b" x1="49.9999998%" x2="23.4426562%" y1="82.2756107%" y2="44.914431%"><stop offset="0" stop-color="#ffd43b"/><stop offset="1" stop-color="#ffe873"/></linearGradient><g fill="none"><path d="m55.510156.3979729c-4.583653.0212983-8.960939.4122177-12.8125 1.09375-11.346216 2.0045038-13.406249 6.2001021-13.40625 13.9375001v10.21875h26.8125v3.40625h-26.8125-10.0625c-7.792459 0-14.6157592 4.683717-16.7500002 13.59375-2.46182 10.212966-2.5710151 16.586023 0 27.25 1.9059283 7.937852 6.4575432 13.593748 14.2500002 13.59375h9.21875v-12.25c0-8.849902 7.657144-16.656248 16.75-16.65625h26.78125c7.454951 0 13.406253-6.138164 13.40625-13.625v-25.53125c0-7.266339-6.12998-12.7247775-13.40625-13.9375001-4.605987-.7667253-9.385097-1.1150483-13.96875-1.09375zm-14.5 8.2187501c2.769547 0 5.03125 2.298646 5.03125 5.125-.000002 2.816336-2.261703 5.09375-5.03125 5.09375-2.779476-.000001-5.03125-2.277415-5.03125-5.09375-.000001-2.826353 2.251774-5.125 5.03125-5.125z" fill="url(#a)"/><path d="m86.228906 29.054223v11.90625c0 9.230755-7.825895 16.999999-16.75 17h-26.78125c-7.335833 0-13.406249 6.278483-13.40625 13.625v25.531247c0 7.26634 6.318588 11.54032 13.40625 13.625 8.487331 2.49561 16.626237 2.94663 26.78125 0 6.750155-1.95439 13.406253-5.88761 13.40625-13.625v-10.218747h-26.78125v-3.40625h26.78125 13.406254c7.79246 0 10.69625-5.435408 13.40624-13.59375 2.79933-8.398886 2.68022-16.475776 0-27.25-1.92578-7.757441-5.60387-13.59375-13.40624-13.59375zm-15.0625 64.65625c2.779478.000003 5.03125 2.277417 5.03125 5.093747-.000002 2.82635-2.251775 5.125-5.03125 5.125-2.76955 0-5.03125-2.29865-5.03125-5.125.000002-2.81633 2.261697-5.093747 5.03125-5.093747z" fill="url(#b)"/></g></svg>