<?xml version="1.0" encoding="UTF-8"?>
<svg width="24px" height="24px" viewBox="0 0 24 24" version="1.1" xmlns="http://www.w3.org/2000/svg" xmlns:xlink="http://www.w3.org/1999/xlink">
    <!-- Generator: Sketch 52.4 (67378) - http://www.bohemiancoding.com/sketch -->
    <title>Combined Shape</title>
    <desc>Created with Sketch.</desc>
    <defs>
        <linearGradient x1="0%" y1="0%" x2="100%" y2="96.2320964%" id="linearGradient-1">
            <stop stop-color="#FFE73C" offset="0%"></stop>
            <stop stop-color="#FB9F6B" offset="100%"></stop>
        </linearGradient>
    </defs>
    <g id="Page-1" stroke="none" stroke-width="1" fill="none" fill-rule="evenodd">
        <path d="M12,0 C12.5522847,-1.01453063e-16 13,0.44771525 13,1 L13,4 C13,4.55228475 12.5522847,5 12,5 C11.4477153,5 11,4.55228475 11,4 L11,1 C11,0.44771525 11.4477153,1.01453063e-16 12,0 Z M12,19 C12.5522847,19 13,19.4477153 13,20 L13,23 C13,23.5522847 12.5522847,24 12,24 C11.4477153,24 11,23.5522847 11,23 L11,20 C11,19.4477153 11.4477153,19 12,19 Z M3.51471863,3.51471863 C3.90524292,3.12419433 4.5384079,3.12419433 4.92893219,3.51471863 L7.05025253,5.63603897 C7.44077682,6.02656326 7.44077682,6.65972824 7.05025253,7.05025253 C6.65972824,7.44077682 6.02656326,7.44077682 5.63603897,7.05025253 L3.51471863,4.92893219 C3.12419433,4.5384079 3.12419433,3.90524292 3.51471863,3.51471863 Z M16.9497475,16.9497475 C17.3402718,16.5592232 17.9734367,16.5592232 18.363961,16.9497475 L20.4852814,19.0710678 C20.8758057,19.4615921 20.8758057,20.0947571 20.4852814,20.4852814 C20.0947571,20.8758057 19.4615921,20.8758057 19.0710678,20.4852814 L16.9497475,18.363961 C16.5592232,17.9734367 16.5592232,17.3402718 16.9497475,16.9497475 Z M20.4852814,3.51471863 C20.8758057,3.90524292 20.8758057,4.5384079 20.4852814,4.92893219 L18.363961,7.05025253 C17.9734367,7.44077682 17.3402718,7.44077682 16.9497475,7.05025253 C16.5592232,6.65972824 16.5592232,6.02656326 16.9497475,5.63603897 L19.0710678,3.51471863 C19.4615921,3.12419433 20.0947571,3.12419433 20.4852814,3.51471863 Z M7.05025253,16.9497475 C7.44077682,17.3402718 7.44077682,17.9734367 7.05025253,18.363961 L4.92893219,20.4852814 C4.5384079,20.8758057 3.90524292,20.8758057 3.51471863,20.4852814 C3.12419433,20.0947571 3.12419433,19.4615921 3.51471863,19.0710678 L5.63603897,16.9497475 C6.02656326,16.5592232 6.65972824,16.5592232 7.05025253,16.9497475 Z M0,12 C0,11.4477153 0.44771525,11 1,11 L4,11 C4.55228475,11 5,11.4477153 5,12 C5,12.5522847 4.55228475,13 4,13 L1,13 C0.44771525,13 0,12.5522847 0,12 Z M19,12 C19,11.4477153 19.4477153,11 20,11 L23,11 C23.5522847,11 24,11.4477153 24,12 C24,12.5522847 23.5522847,13 23,13 L20,13 C19.4477153,13 19,12.5522847 19,12 Z M12,17 C9.23857625,17 7,14.7614237 7,12 C7,9.23857625 9.23857625,7 12,7 C14.7614237,7 17,9.23857625 17,12 C17,14.7614237 14.7614237,17 12,17 Z M12,14 C13.1045695,14 14,13.1045695 14,12 C14,10.8954305 13.1045695,10 12,10 C10.8954305,10 10,10.8954305 10,12 C10,13.1045695 10.8954305,14 12,14 Z" id="Combined-Shape" fill="url(#linearGradient-1)" fill-rule="nonzero"></path>
    </g>
</svg>