<?xml version="1.0" encoding="UTF-8"?>
<svg width="32px" height="32px" viewBox="0 0 32 32" version="1.1" xmlns="http://www.w3.org/2000/svg" xmlns:xlink="http://www.w3.org/1999/xlink">
    <!-- Generator: Sketch 47.1 (45422) - http://www.bohemiancoding.com/sketch -->
    <title>Twitter</title>
    <desc>Created with Sketch.</desc>
    <defs></defs>
    <g id="Symbols" stroke="none" stroke-width="1" fill="none" fill-rule="evenodd">
        <g id="Footer" transform="translate(-1050.000000, -40.000000)">
            <g id="Twitter">
                <g transform="translate(1050.000000, 40.000000)">
                    <rect id="Rectangle-3" fill="#16274C" x="0" y="0" width="32" height="32" rx="16"></rect>
                    <path d="M13.0260089,22.0100002 C19.0636222,22.0100002 22.3673428,17.003199 22.3673428,12.6686664 C22.3673428,12.5278101 22.3673428,12.3869538 22.3609402,12.2460975 C23.0011961,11.7851132 23.5582188,11.2024804 23.9999954,10.5430168 C23.4109599,10.8055217 22.7771066,10.9783908 22.1112404,11.0616241 C22.7899117,10.6582628 23.308519,10.0116043 23.5582188,9.24329725 C22.9243654,9.62104824 22.2200839,9.88995572 21.4709845,10.0372146 C20.8691439,9.39695867 20.0176036,9 19.0764274,9 C17.2645031,9 15.7919145,10.4725886 15.7919145,12.2845129 C15.7919145,12.5406152 15.8239273,12.790315 15.8751478,13.0336123 C13.1476576,12.8991585 10.7274902,11.5866339 9.10764274,9.60184056 C8.82593013,10.0884351 8.66586615,10.6518603 8.66586615,11.2537008 C8.66586615,12.3933564 9.24849904,13.3985581 10.1256496,13.9875936 C9.58783467,13.9683859 9.0820325,13.8211271 8.64025592,13.5778298 L8.64025592,13.6226477 C8.64025592,15.2104824 9.77350889,16.5422147 11.2717077,16.843135 C10.9963977,16.9199657 10.7082825,16.958381 10.4073622,16.958381 C10.1960778,16.958381 9.9911959,16.9391734 9.79271657,16.900758 C10.2088829,18.2068801 11.4253692,19.1544588 12.8595424,19.1800691 C11.732692,20.0636222 10.3177264,20.5886321 8.78111222,20.5886321 C8.51860729,20.5886321 8.25610237,20.575827 8,20.5438142 C9.44697837,21.4657827 11.1756693,22.0100002 13.0260089,22.0100002" id="Shape" fill="#FFFFFF" fill-rule="nonzero"></path>
                </g>
            </g>
        </g>
    </g>
</svg>