<?xml version="1.0" encoding="UTF-8"?>
<svg width="42px" height="41px" viewBox="0 0 42 41" version="1.1" xmlns="http://www.w3.org/2000/svg" xmlns:xlink="http://www.w3.org/1999/xlink">
    <!-- Generator: Sketch 50 (54983) - http://www.bohemiancoding.com/sketch -->
    <title>Group</title>
    <desc>Created with Sketch.</desc>
    <defs></defs>
    <g id="notes" stroke="none" stroke-width="1" fill="none" fill-rule="evenodd">
        <g id="Group" transform="translate(1.000000, 1.000000)">
            <path d="M22.6832816,2.36656315 L39.5527864,36.1055728 C40.0467649,37.0935298 39.6463162,38.2948759 38.6583592,38.7888544 C38.3806483,38.9277098 38.0744222,39 37.763932,39 L2.23606798,39 C1.13149848,39 0.236067977,38.1045695 0.236067977,37 C0.236067977,36.6895098 0.308358161,36.3832837 0.447213595,36.1055728 L17.3167184,2.36656315 C18.0576862,0.884627654 19.8597053,0.283954613 21.3416408,1.02492236 C21.922223,1.31521346 22.3929905,1.78598094 22.6832816,2.36656315 Z" id="Triangle" stroke="#FAF6E4" stroke-width="2"></path>
            <path d="M21.5845412,16.4545593 L21.1868143,26.4829589 L18.6299986,26.4829589 L18.2322717,16.4545593 L21.5845412,16.4545593 Z M18.1470445,29.5227287 C18.1470445,28.5852296 18.828862,27.875003 19.8799974,27.875003 C20.9311328,27.875003 21.6413594,28.5852296 21.6413594,29.5227287 C21.6413594,30.4602278 20.9311328,31.1704544 19.8799974,31.1704544 C18.828862,31.1704544 18.1470445,30.4602278 18.1470445,29.5227287 Z" id="!" fill="#FAF6E4"></path>
        </g>
    </g>
</svg>