<?xml version="1.0" encoding="UTF-8"?>
<svg width="440px" height="233px" viewBox="0 0 440 233" version="1.1" xmlns="http://www.w3.org/2000/svg" xmlns:xlink="http://www.w3.org/1999/xlink">
    <!-- Generator: Sketch 50 (54983) - http://www.bohemiancoding.com/sketch -->
    <title>Group 18</title>
    <desc>Created with Sketch.</desc>
    <defs>
        <linearGradient x1="0%" y1="0%" x2="100%" y2="100%" id="linearGradient-1">
            <stop stop-color="#1FB4D5" offset="0%"></stop>
            <stop stop-color="#2A5B87" offset="100%"></stop>
        </linearGradient>
        <linearGradient x1="100%" y1="50%" x2="0%" y2="50%" id="linearGradient-2">
            <stop stop-color="#4CBCCA" offset="0%"></stop>
            <stop stop-color="#2580A8" offset="100%"></stop>
        </linearGradient>
        <linearGradient x1="100%" y1="50%" x2="0%" y2="50%" id="linearGradient-3">
            <stop stop-color="#72D4B4" offset="0%"></stop>
            <stop stop-color="#4CBCCA" offset="100%"></stop>
        </linearGradient>
    </defs>
    <g id="Page-1" stroke="none" stroke-width="1" fill="none" fill-rule="evenodd">
        <g id="Group-18" transform="translate(0.000000, 1.000000)">
            <g id="Group-23">
                <g id="Group-21" transform="translate(0.000000, 151.000000)">
                    <path d="M4,0.5 C2.06700338,0.5 0.5,2.06700338 0.5,4 L0.5,42 C0.5,43.9329966 2.06700338,45.5 4,45.5 L124,45.5 C125.932997,45.5 127.5,43.9329966 127.5,42 L127.5,4 C127.5,2.06700338 125.932997,0.5 124,0.5 L4,0.5 Z" id="Rectangle-Copy" stroke="#B5B4BD"></path>
                    <text id="Capistrano" font-family="Interface-Bold, Interface" font-size="15" font-weight="bold" fill="#656470">
                        <tspan x="26.3409091" y="28">Capistrano</tspan>
                    </text>
                </g>
                <g id="Group-22" transform="translate(308.000000, 0.000000)">
                    <ellipse id="Oval-Copy" stroke="#4CBCCA" cx="49" cy="46" rx="49" ry="46"></ellipse>
                    <text id="Internet" font-family="Interface-Bold, Interface" font-size="15" font-weight="bold" fill="#656470">
                        <tspan x="21.2272727" y="52">Internet</tspan>
                    </text>
                </g>
                <rect id="Rectangle-6" fill="#4CBCCA" x="356" y="92" width="1" height="24"></rect>
            </g>
            <g id="Group-11" transform="translate(156.000000, 116.000000)">
                <path d="M124,0.5 C122.067003,0.5 120.5,2.06700338 120.5,4 L120.5,54 C120.5,55.9329966 122.067003,57.5 124,57.5 L280,57.5 C281.932997,57.5 283.5,55.9329966 283.5,54 L283.5,4 C283.5,2.06700338 281.932997,0.5 280,0.5 L124,0.5 Z" id="Rectangle" stroke="#4CBCCA"></path>
                <rect id="Rectangle-2" stroke="#72D4B4" x="120.5" y="62.5" width="79" height="53" rx="4"></rect>
                <rect id="Rectangle" fill="url(#linearGradient-1)" x="0" y="0" width="116" height="116" rx="4"></rect>
                <g id="Group-9" transform="translate(29.000000, 26.000000)">
                    <g id="passenger_logo_border" transform="translate(3.000000, 0.000000)" fill-rule="nonzero">
                        <g id="Fill-1" stroke="#FFFFFF">
                            <g id="path-2-link">
                                <path d="M24.0132922,42.7387285 C23.8005889,42.7387285 23.5991511,42.6354747 23.4744259,42.4625784 L20.9184992,38.9043565 C20.8653904,38.8312183 20.828107,38.7475935 20.8085265,38.6572465 L20.7495167,38.3851298 C20.5204516,38.5886795 20.2479339,38.9266743 19.8034832,38.9610923 C19.538744,38.9815278 18.3781296,38.9696967 17.8915674,38.9632434 C17.7341187,38.9613611 17.5817663,38.9027431 17.4624056,38.797876 L13.2976587,35.1525336 C13.1691783,35.0401376 13.0897834,34.8852569 13.0731534,34.7163939 L12.7367978,31.3445128 L11.1727713,29.9067577 C11.013445,29.800815 10.7739191,29.5582762 10.7739191,29.0629807 C10.7739191,28.854322 10.7154458,26.9564961 10.6776259,25.7696154 L9.78389646,25.1503617 C9.60418497,25.0253278 9.49716275,24.8204336 9.49716275,24.6023638 L9.49716275,21.3622387 C9.49716275,21.0473684 9.70208745,20.6467223 10.1513663,20.5117394 C10.2299565,20.4872704 10.8238091,20.2380094 11.6711354,19.8688233 C11.5767198,19.5647087 11.3524828,18.935506 11.066822,18.1887983 C10.9815261,18.0949557 10.9083004,18.0298843 10.8798684,18.0099865 C10.704985,17.925555 9.72944652,17.3089901 0.415294503,10.960765 C0.315782612,10.8930047 0.23638768,10.7988931 0.185692943,10.6886482 C0.130706589,10.56953 -0.0441768421,10.141457 0.0105412865,9.64696822 C0.0502387524,9.28907556 0.326779883,7.98468991 0.443994698,7.44072537 C0.468671501,7.32832934 0.521243821,7.22453778 0.596078909,7.13983741 C0.858404055,6.84217613 1.33209139,6.59237728 1.87498105,6.78328921 C2.20731322,6.90106306 13.0997078,10.5412965 14.6696352,11.0656321 C15.0615136,10.3407045 16.3463167,9.24659092 16.7322941,8.92661176 C16.8441444,8.83357584 16.980135,8.78114228 17.1257818,8.77442002 L17.3843518,8.76366437 C17.8947861,8.27831788 19.3606419,7.0242147 21.2264228,6.63997081 C21.313328,6.42674101 21.8961834,3.96424596 22.5544103,1.03280667 C22.571845,0.952408545 22.6056415,0.874968212 22.6541904,0.803443462 C22.8288056,0.547729026 23.1085654,0.221565398 23.4505537,0.118849401 C23.5173421,0.0986826469 23.7139518,0.0395268369 25.1594224,0.0126378322 L25.4356953,0.00726003127 L25.4550076,0.276150078 L25.4649319,0.00752892131 L25.7371815,0.00349557061 C27.1949904,0.0389890568 27.3926731,0.0986826469 27.4599978,0.118849401 C27.8011815,0.221565398 28.0812095,0.547729026 28.2555565,0.803443462 C28.3038372,0.873623762 28.3379019,0.951601873 28.3558731,1.03415112 C29.0143682,3.96505263 29.5972235,6.42754768 29.6833241,6.63943304 C31.5501779,7.0242147 33.0154972,8.27831788 33.5259315,8.76366437 L33.7834287,8.77442002 C33.9296119,8.78114228 34.0656025,8.83357584 34.177721,8.92634293 C34.5639666,9.24659092 35.849038,10.3409734 36.1899534,10.9795873 C37.8446403,10.5297343 48.7083346,6.89891193 49.0350341,6.78328921 C49.5779237,6.59237728 50.0516111,6.84217613 50.3144726,7.14010631 C50.389576,7.22507556 50.44188,7.32913601 50.4660204,7.44045649 C50.5572173,7.86207608 50.8576306,9.26756433 50.8994739,9.64696822 C50.9544602,10.1436081 50.7790403,10.5703366 50.7240539,10.6894549 C50.6741639,10.7986243 50.5947689,10.8924669 50.4952571,10.9604961 C40.9657194,17.4552663 40.1647963,17.9508306 40.0194177,18.0150953 C40.0068111,18.0253132 39.9325124,18.0906534 39.8431931,18.1887983 C39.55485,18.9433038 39.3292719,19.5768088 39.2370021,19.8680167 C40.086206,20.2380094 40.680595,20.4872704 40.75999,20.5120083 C41.2081959,20.6469912 41.4128524,21.0473684 41.4128524,21.3622387 L41.4128524,24.6023638 C41.4128524,24.8204336 41.3060984,25.0253278 41.1269233,25.1500927 L40.2323892,25.7696154 C40.1945694,26.9564961 40.1360961,28.854322 40.1360961,29.0629807 C40.1360961,29.5580073 39.8968383,29.8005461 39.7377802,29.9067577 L38.1732173,31.3445128 L37.8368617,34.7166628 C37.8202317,34.8855258 37.7408368,35.0401376 37.6131611,35.1522647 L33.4470731,38.7984138 C33.3287854,38.9027431 33.1761647,38.9613611 33.0179113,38.9632434 C32.5321537,38.9696967 31.3718076,38.981259 31.1068002,38.9610923 C30.6628859,38.9266743 30.3901,38.5886795 30.2417709,38.3179073 L30.1020251,38.6564398 C30.0821763,38.7475935 30.044893,38.8312183 29.9912477,38.9051631 L27.4358574,42.4620406 C27.3114005,42.6352058 27.1099627,42.7387285 26.8969912,42.7387285 L24.0132922,42.7387285 Z" id="path-2"></path>
                            </g>
                        </g>
                        <path d="M31.3485524,24.4846974 C31.3485524,24.4846974 31.9150459,25.4207037 31.1489921,26.7326182 C30.3829383,28.0442639 28.5796541,27.0603952 28.5796541,27.0603952 C28.5796541,27.0603952 27.5502022,26.4924994 28.6515387,25.7804786 C29.7526069,25.0687266 30.829803,24.4846974 30.829803,24.4846974 C30.829803,24.4846974 31.2468946,24.2467298 31.3485524,24.4846974" id="Fill-7" fill="#FFFFFF"></path>
                        <path d="M33.1120318,25.1086568 C33.1919632,25.3485067 33.4073487,25.1086568 33.4073487,25.1086568 L34.859525,23.420834 L34.9791539,23.1247861 C34.9791539,23.1247861 35.0191195,22.6208861 34.9952474,22.4928944 C34.9713753,22.3649028 35.0429917,22.3009069 35.0429917,22.3009069 C35.0429917,22.3009069 37.3572466,19.4772926 37.4369098,19.2132426 C37.5168411,18.9491925 37.3572466,19.0131883 37.3572466,19.0131883 C35.3621807,20.116982 34.3329971,20.8610007 34.3329971,20.8610007 C34.3329971,20.8610007 32.4017691,22.3409715 32.2582681,22.4928944 C32.1144989,22.6448173 32.2582681,22.8368048 32.2582681,22.8368048" id="Fill-9" fill="#FFFFFF"></path>
                        <path d="M36.7081394,25.8968004 L35.8782478,33.5211777 C35.8782478,33.5211777 35.8994376,33.7346764 35.7505722,33.9479062 C35.6017067,34.161136 33.1758696,36.4437437 33.1758696,36.4437437 C33.1758696,36.4437437 33.036392,36.6142199 33.042293,36.0382574 C33.048194,35.4622949 33.4100311,32.7532277 33.4312209,27.2710974 L33.4738689,26.8876602 C33.4738689,26.8876602 33.4950587,26.5671433 33.707762,26.3751558 C33.9207335,26.1831683 36.0485713,23.7728379 36.0485713,23.7728379 C36.0485713,23.7728379 36.2186267,23.6448463 36.2186267,23.4313475 L36.2186267,22.3221762 C36.2186267,22.3221762 36.176247,22.087704 36.5166259,21.8317207 C36.8570049,21.5757373 37.3465176,21.319754 37.3465176,21.319754 L39.7085168,21.852963 C39.7085168,21.852963 39.9000302,21.9169588 39.9000302,22.2796915 L39.9000302,23.538097 C39.9000302,23.538097 39.8785722,23.7940803 39.6232209,23.9648255 C39.3678696,24.1353017 36.7081394,25.8968004 36.7081394,25.8968004" id="Fill-11" fill="#FFFFFF"></path>
                        <path d="M44.8791922,12.6377515 L30.9842745,21.0424477 C30.9842745,21.0424477 30.2128561,21.5702789 30.4521139,20.7437109 C30.6862752,19.8050157 31.3034635,17.8214139 31.3034635,17.8214139 C31.3034635,17.8214139 31.382322,17.5245592 31.5502316,17.4159277 C31.9415735,17.2239402 39.4159626,13.5710689 39.6871392,13.4269438 C39.9159361,13.3097077 40.1128141,12.8724926 40.1128141,12.8724926 L40.7013022,11.7119631 C40.7013022,11.7119631 40.8008141,11.5952649 40.9504842,11.5398734 C41.1001544,11.4844821 45.4110846,9.88593077 45.4110846,9.88593077 C45.4110846,9.88593077 45.7090839,9.71545448 45.602598,10.056676 C45.4963805,10.3978974 45.1771914,12.2325343 45.1771914,12.2325343 C45.1771914,12.2325343 45.1417856,12.4791064 44.8791922,12.6377515" id="Fill-13" fill="#FFFFFF"></path>
                        <path d="M39.9744361,12.1738087 L39.687166,12.7336377 C39.687166,12.7336377 39.543665,13.0377523 39.2403013,13.2136065 C38.9372058,13.3897295 31.388518,16.8933668 31.388518,16.8933668 C31.388518,16.8933668 31.2713032,16.973496 31.1809111,16.6693814 C31.0851543,16.3015398 30.4076152,15.5494543 30.4076152,15.5494543 C30.4076152,15.5494543 30.2075185,15.2988488 30.6224643,15.1654793 C31.1331668,14.9896252 39.9744361,11.8059671 39.9744361,11.8059671 C39.9744361,11.8059671 40.1898217,11.7540713 39.9744361,12.1738087" id="Fill-15" fill="#FFFFFF"></path>
                        <path d="M21.5325761,9.31004897 C19.7158806,10.0933257 18.5300528,11.2570818 18.3441722,11.4391204 C18.3109121,11.4719249 18.2859671,11.4270203 18.2859671,11.4270203 L17.6811172,10.7499552 C17.5322517,10.5579677 17.2449815,10.8031954 17.2449815,10.8031954 C16.4255507,11.4431537 15.9467671,12.1363522 15.8190915,12.3603377 C15.709387,12.547754 15.9043874,12.6058343 15.9043874,12.6058343 C15.9043874,12.6058343 20.0216583,14.0669828 20.1919819,14.0989807 C20.5151944,14.1955123 20.5412124,14.1836811 20.5951258,13.9933069 C20.6254353,13.8870953 21.575224,9.71526631 21.5964139,9.49128091 C21.6430852,9.24605318 21.5325761,9.31004897 21.5325761,9.31004897" id="Fill-17" fill="#FFFFFF"></path>
                        <path d="M35.0909505,12.3604452 C34.9632748,12.1364598 34.4844913,11.4432613 33.6653287,10.803303 C33.6653287,10.803303 33.3780585,10.5580752 33.2289248,10.7497938 L32.6240748,11.4271278 C32.6240748,11.4271278 32.599398,11.4717636 32.566138,11.439228 C32.3802573,11.2569205 31.1941614,10.0934332 29.3777341,9.31015655 C29.3777341,9.31015655 29.267225,9.24616068 29.3138963,9.49138841 C29.3350861,9.71537381 30.2846066,13.886934 30.3149161,13.9931456 C30.3690978,14.1835197 30.3951158,14.1956198 30.71806,14.0990883 C30.8883837,14.0670904 35.0059228,12.605673 35.0059228,12.605673 C35.0059228,12.605673 35.200655,12.5478616 35.0909505,12.3604452" id="Fill-19" fill="#FFFFFF"></path>
                        <path d="M27.1273974,11.9498233 L25.4584945,11.9498233 L25.4517889,11.9498233 L23.7828859,11.9498233 C23.7828859,11.9498233 23.5275346,11.9457899 23.5275346,11.803816 C23.5275346,11.661842 24.2935885,4.19046316 24.2935885,4.19046316 C24.2935885,4.19046316 24.4370894,4.11060281 24.453183,4.25445899 C24.4690083,4.39858405 24.3753974,9.28619846 24.3753974,9.28619846 C24.3753974,9.28619846 24.3652048,9.43005464 24.5489398,9.43812128 C24.7088025,9.44511244 25.2938037,9.44591909 25.4635908,9.44591909 L25.4861218,9.44591909 L25.5102622,9.44591909 C25.6714661,9.44591909 26.202822,9.44484354 26.3613437,9.43812128 C26.5448103,9.43005464 26.5348859,9.28619846 26.5348859,9.28619846 C26.5348859,9.28619846 26.441275,4.39858405 26.4571004,4.25445899 C26.4731939,4.11060281 26.6166949,4.19046316 26.6166949,4.19046316 C26.6166949,4.19046316 27.3827487,11.661842 27.3827487,11.803816 C27.3827487,11.9457899 27.1273974,11.9498233 27.1273974,11.9498233 M26.792383,1.91861116 C26.7604641,1.71075915 26.5528571,1.71075915 26.5528571,1.71075915 L25.4635908,1.66262782 L25.4464243,1.66262782 L24.3574263,1.71075915 C24.3574263,1.71075915 24.1498193,1.71075915 24.1179004,1.91861116 C24.0859815,2.12673205 21.8835768,13.6935752 21.8835768,13.6935752 C21.8835768,13.6935752 21.8197389,13.9976898 22.1070091,13.9016961 C23.4693296,13.2162953 25.3836594,13.1673574 25.4550076,13.1657441 C25.5266239,13.1673574 27.4406855,13.2162953 28.803006,13.9016961 C29.0902762,13.9976898 29.0264384,13.6935752 29.0264384,13.6935752 C29.0264384,13.6935752 26.8243019,2.12673205 26.792383,1.91861116" id="Fill-21" fill="#FFFFFF"></path>
                        <path d="M22.2587178,25.7805861 C21.1576496,25.0685653 20.0801852,24.484805 20.0801852,24.484805 C20.0801852,24.484805 19.6633619,24.2465684 19.5617042,24.484805 C19.5617042,24.484805 18.9952106,25.4205424 19.7609961,26.7324569 C20.52705,28.0443715 22.3306024,27.0605028 22.3306024,27.0605028 C22.3306024,27.0605028 23.3597861,26.492607 22.2587178,25.7805861" id="Fill-23" fill="#FFFFFF"></path>
                        <path d="M16.5772863,20.8610276 C16.5772863,20.8610276 15.5478344,20.1170088 13.5530367,19.0132152 C13.5530367,19.0132152 13.3934422,18.9492194 13.4733735,19.2132694 C13.5530367,19.4770505 15.8670235,22.3009338 15.8670235,22.3009338 C15.8670235,22.3009338 15.9389081,22.3649296 15.9150359,22.4929213 C15.8911639,22.620913 15.9308613,23.1248129 15.9308613,23.1248129 L16.0507584,23.4208609 L17.5029346,25.1086837 C17.5029346,25.1086837 17.7183202,25.3485336 17.7982515,25.1086837 L18.6520153,22.8368317 C18.6520153,22.8368317 18.7955163,22.6448442 18.6520153,22.4929213 C18.5082461,22.3409985 16.5772863,20.8610276 16.5772863,20.8610276" id="Fill-25" fill="#FFFFFF"></path>
                        <path d="M17.478982,27.2711244 L17.4363341,26.8876871 C17.4363341,26.8876871 17.4151442,26.5671702 17.2024409,26.3751827 C16.9894693,26.1831952 14.8616315,23.7728649 14.8616315,23.7728649 C14.8616315,23.7728649 14.6915761,23.6448731 14.6915761,23.4313745 L14.6915761,22.322203 C14.6915761,22.322203 14.7339559,22.087462 14.3935769,21.8314787 C14.053198,21.5757642 13.5636853,21.3197809 13.5636853,21.3197809 L11.2016861,21.8529899 C11.2016861,21.8529899 11.0101726,21.9169857 11.0101726,22.2794495 L11.0101726,23.5381238 C11.0101726,23.5381238 11.0316307,23.7941072 11.286982,23.9648523 C11.5423333,24.1353286 14.2020635,25.8968273 14.2020635,25.8968273 L15.0319551,33.5212046 C15.0319551,33.5212046 15.0107652,33.7344344 15.1596307,33.9479331 C15.3084963,34.1611629 17.7343333,36.4437705 17.7343333,36.4437705 C17.7343333,36.4437705 17.8738109,36.6142468 17.8679098,36.0382843 C17.8620089,35.4623218 17.5001719,32.7532546 17.478982,27.2711244" id="Fill-29" fill="#FFFFFF"></path>
                        <path d="M20.4580086,20.7437109 C20.2238472,19.8050157 19.6069271,17.8214139 19.6069271,17.8214139 C19.6069271,17.8214139 19.5278004,17.5245592 19.3598909,17.4159277 C18.9685489,17.2239402 11.4944281,13.5710689 11.2229832,13.4269438 C10.9941863,13.3097077 10.7975766,12.8724926 10.7975766,12.8724926 L10.2088202,11.7119631 C10.2088202,11.7119631 10.1093084,11.5952649 9.95963818,11.5398734 C9.809968,11.4844821 5.49903782,9.88593077 5.49903782,9.88593077 C5.49903782,9.88593077 5.20103859,9.71545448 5.30752437,10.056676 C5.41401013,10.3978974 5.73319922,12.2325343 5.73319922,12.2325343 C5.73319922,12.2325343 5.76860507,12.4791064 6.03093022,12.6377515 L19.925848,21.0424477 C19.925848,21.0424477 20.6972663,21.5702789 20.4580086,20.7437109" id="Fill-31" fill="#FFFFFF"></path>
                        <path d="M11.22301,12.7337453 C11.22301,12.7337453 11.3665111,13.037591 11.6698748,13.213714 C11.9729703,13.3895681 19.521658,16.8934743 19.521658,16.8934743 C19.521658,16.8934743 19.6388728,16.9733347 19.729265,16.6694889 C19.8250217,16.3013784 20.5025609,15.549293 20.5025609,15.549293 C20.5025609,15.549293 20.7026576,15.2989563 20.2877118,15.1655869 C19.7770093,14.9894639 10.9357399,11.8058058 10.9357399,11.8058058 C10.9357399,11.8058058 10.7203543,11.7541788 10.9357399,12.1739162 L11.22301,12.7337453 Z" id="Fill-33" fill="#FFFFFF"></path>
                        <path d="M25.455088,21.6167968 C23.9618732,21.5893701 22.6974553,20.3691471 22.6974553,18.8665895 C22.6974553,17.3640319 23.9618732,16.1438088 25.455088,16.1163821 C26.9483028,16.1438088 28.2127208,17.3640319 28.2127208,18.8665895 C28.2127208,20.3691471 26.9483028,21.5893701 25.455088,21.6167968 M30.4735987,17.1494576 C28.8336643,14.1927427 25.8137063,14.2685697 25.455088,14.2887364 C25.0964697,14.2685697 22.0765118,14.1927427 20.4365773,17.1494576 C20.4365773,17.1494576 20.3515496,17.3519318 20.3515496,17.5119214 C20.3515496,17.671911 21.990143,23.63401 21.990143,23.63401 C21.990143,23.63401 22.0220619,23.7087614 22.1601984,23.9115045 C22.298603,24.1139788 23.9371964,25.3086572 23.9371964,25.3086572 C23.9371964,25.3086572 24.054143,25.4686468 24.4690888,25.4898891 C24.8252931,25.5081737 25.3215114,25.4952669 25.455088,25.4909647 C25.5886646,25.4952669 26.084883,25.5081737 26.4410872,25.4898891 C26.8560331,25.4686468 26.9729796,25.3086572 26.9729796,25.3086572 C26.9729796,25.3086572 28.611573,24.1139788 28.7499777,23.9115045 C28.8881141,23.7087614 28.9200331,23.63401 28.9200331,23.63401 C28.9200331,23.63401 30.5586265,17.671911 30.5586265,17.5119214 C30.5586265,17.3519318 30.4735987,17.1494576 30.4735987,17.1494576" id="Fill-35" fill="#FFFFFF"></path>
                        <path d="M30.9841672,34.8011212 L30.9841672,33.3292171 C30.9841672,33.1372296 30.7819247,33.3399727 30.7819247,33.3399727 L29.8138966,34.0439269 C29.5051683,34.2891545 29.281736,34.1079227 29.281736,34.1079227 C29.281736,34.1079227 28.2391411,33.0412358 28.0902756,32.8280061 C27.94141,32.6147762 27.7391676,32.6360186 27.7391676,32.6360186 L23.1710085,32.6360186 C23.1710085,32.6360186 22.968766,32.6147762 22.8199005,32.8280061 C22.671035,33.0412358 21.62844,34.1079227 21.62844,34.1079227 C21.62844,34.1079227 21.4050077,34.2891545 21.0962794,34.0439269 L20.1282513,33.3399727 C20.1282513,33.3399727 19.9260089,33.1372296 19.9260089,33.3292171 L19.9260089,34.8011212 C19.9260089,34.8011212 19.9152798,35.0783468 20.1494413,35.2598477 C20.3836026,35.4410795 22.0326568,36.5610066 22.0326568,36.5610066 C22.0326568,36.5610066 22.3505048,36.7395496 22.5752783,36.2837809 L23.5966833,34.4383886 C23.5966833,34.4383886 23.6605211,34.2891545 24.0540089,34.2783989 C24.406458,34.2689878 26.4948666,34.2687189 26.8561672,34.2783989 C27.2496549,34.2891545 27.3134927,34.4383886 27.3134927,34.4383886 L28.3348978,36.2837809 C28.5596713,36.7395496 28.8775192,36.5610066 28.8775192,36.5610066 C28.8775192,36.5610066 30.5265734,35.4410795 30.7607348,35.2598477 C30.9948963,35.0783468 30.9841672,34.8011212 30.9841672,34.8011212" id="Fill-37" fill="#FFFFFF"></path>
                        <path d="M30.9042089,28.0307656 L29.5086285,28.6349616 C29.5067509,28.6357682 29.5048733,28.6365749 29.5029957,28.6376504 C29.4718815,28.6567416 29.12131,28.856258 28.65406,28.5510679 C28.65406,28.5510679 25.9025965,26.887714 25.5182285,26.887714 C25.5160826,26.887714 25.514205,26.8885207 25.5120593,26.8887895 C25.5101817,26.8887895 25.5085724,26.887714 25.5064265,26.887714 L25.3572928,26.887714 C25.3444179,26.887714 25.3331524,26.8922851 25.3226916,26.8982007 C24.7556616,27.0399058 22.2560624,28.5510679 22.2560624,28.5510679 C21.7890807,28.856258 21.4382409,28.6567416 21.4071267,28.6376504 C21.4052491,28.6365749 21.4036398,28.6357682 21.4014939,28.6349616 L20.0059135,28.0307656 C20.0024265,28.0291522 19.5037941,27.7443977 19.5217653,28.1775796 C19.5231065,28.2095775 19.7983065,31.7508594 19.7983065,31.7508594 C19.808499,32.3749532 20.0458791,32.5524207 20.0727017,32.5704362 C20.0740429,32.5715118 20.075384,32.5720496 20.0769934,32.5731252 L20.8164928,32.9753847 C20.8186386,32.9767291 21.2233918,33.2259902 21.398007,33.0767562 C21.4020304,33.0732606 21.406322,33.0719162 21.4103454,33.0684207 C21.4546028,33.0272804 21.7625263,32.7358036 21.9795213,32.3800621 C22.204563,32.010876 22.5674729,31.9769959 22.594832,31.9748448 C22.5961731,31.9748448 22.597246,31.9745759 22.5983189,31.9745759 L28.3118035,31.9745759 C28.3131446,31.9745759 28.3142176,31.9748448 28.3152904,31.9748448 C28.3429178,31.9769959 28.7055595,32.010876 28.9308694,32.3800621 C29.1475961,32.7358036 29.4557879,33.0272804 29.5000452,33.0684207 C29.5038004,33.0719162 29.5083602,33.0732606 29.5123837,33.0767562 C29.6867306,33.2259902 30.0914839,32.9767291 30.0936296,32.9753847 L30.8333973,32.5731252 C30.8350066,32.5720496 30.8360795,32.5715118 30.8376889,32.5704362 C30.8642433,32.5524207 31.1018916,32.3749532 31.111816,31.7508594 C31.111816,31.7508594 31.387016,28.2095775 31.3883571,28.1775796 C31.4063283,27.7443977 30.9079641,28.0291522 30.9042089,28.0307656" id="Fill-39" fill="#FFFFFF"></path>
                    </g>
                    <text id="Passenger" font-family="Interface-Bold, Interface" font-size="12" font-weight="bold" line-spacing="24" fill="#FFFFFF">
                        <tspan x="0" y="51">Passenger</tspan>
                    </text>
                </g>
                <rect id="Rectangle-2" stroke="#72D4B4" x="204.5" y="62.5" width="79" height="53" rx="4"></rect>
                <text id="Apache" font-family="Interface-Bold, Interface" font-size="15" font-weight="bold" fill="#656470">
                    <tspan x="175.590909" y="34">Apache</tspan>
                </text>
                <rect id="Rectangle-4" fill="url(#linearGradient-2)" x="116" y="31" width="4" height="1"></rect>
                <rect id="Rectangle-4" fill="url(#linearGradient-3)" transform="translate(160.500000, 60.000000) rotate(-270.000000) translate(-160.500000, -60.000000) " x="158.5" y="59.5" width="4" height="1"></rect>
                <rect id="Rectangle-4" fill="url(#linearGradient-3)" transform="translate(240.500000, 60.000000) rotate(-270.000000) translate(-240.500000, -60.000000) " x="238.5" y="59.5" width="4" height="1"></rect>
                <g id="Group-10" transform="translate(226.000000, 77.000000)">
                    <text id="App" font-family="Interface-Bold, Interface" font-size="12" font-weight="bold" line-spacing="24" fill="#656470">
                        <tspan x="14" y="11">App</tspan>
                    </text>
                    <g id="Group-7" transform="translate(0.000000, 6.000000)" stroke="#72D4B4">
                        <path d="M0.5,0.5 L0.5,11.5 L9.5,11.5 L9.5,2.49811931 L8.53525637,1.52669315 L7.49088864,0.5 L0.5,0.5 Z" id="Rectangle-5" fill="#E2F6F0"></path>
                        <polyline id="Path-2" points="7.30957031 0.888183594 7.2925415 3.18652344 9.09313965 3.18652344"></polyline>
                    </g>
                </g>
                <g id="Group-10" transform="translate(142.000000, 77.000000)">
                    <text id="App" font-family="Interface-Bold, Interface" font-size="12" font-weight="bold" line-spacing="24" fill="#656470">
                        <tspan x="14" y="11">App</tspan>
                    </text>
                    <g id="Group-7" transform="translate(0.000000, 6.000000)" stroke="#72D4B4">
                        <path d="M0.5,0.5 L0.5,11.5 L9.5,11.5 L9.5,2.49811931 L8.53525637,1.52669315 L7.49088864,0.5 L0.5,0.5 Z" id="Rectangle-5" fill-opacity="0.203832654" fill="#72D4B4"></path>
                        <polyline id="Path-2" points="7.30957031 0.888183594 7.2925415 3.18652344 9.09313965 3.18652344"></polyline>
                    </g>
                </g>
            </g>
        </g>
    </g>
</svg>