<?xml version="1.0" encoding="UTF-8"?>
<svg width="555px" height="247px" viewBox="0 0 555 247" version="1.1" xmlns="http://www.w3.org/2000/svg" xmlns:xlink="http://www.w3.org/1999/xlink">
    <!-- Generator: Sketch 50 (54983) - http://www.bohemiancoding.com/sketch -->
    <title>Group 17</title>
    <desc>Created with Sketch.</desc>
    <defs>
        <linearGradient x1="100%" y1="50%" x2="0%" y2="50%" id="linearGradient-1">
            <stop stop-color="#72D4B4" offset="0%"></stop>
            <stop stop-color="#4CBCCA" offset="100%"></stop>
        </linearGradient>
        <linearGradient x1="0%" y1="0%" x2="100%" y2="100%" id="linearGradient-2">
            <stop stop-color="#1FB4D5" offset="0%"></stop>
            <stop stop-color="#2A5B87" offset="100%"></stop>
        </linearGradient>
    </defs>
    <g id="Page-1" stroke="none" stroke-width="1" fill="none" fill-rule="evenodd">
        <g id="Group-17" transform="translate(0.000000, -2.000000)">
            <text id="Nginx-integration-mo" font-family="Interface-Bold, Interface" font-size="14" font-weight="bold" fill="#656470">
                <tspan x="261.045455" y="13">Nginx </tspan>
                <tspan x="225.090909" y="29">integration mode</tspan>
            </text>
            <text id="Apache-integration-m" font-family="Interface-Bold, Interface" font-size="14" font-weight="bold" fill="#656470">
                <tspan x="450.318182" y="13">Apache </tspan>
                <tspan x="420.090909" y="29">integration mode</tspan>
            </text>
            <text id="Standalone-mode" font-family="Interface-Bold, Interface" font-size="14" font-weight="bold" fill="#656470">
                <tspan x="16.3181818" y="29">Standalone mode</tspan>
            </text>
            <path d="M203,54.5 C201.067003,54.5 199.5,56.0670034 199.5,58 L199.5,108 C199.5,109.932997 201.067003,111.5 203,111.5 L356,111.5 C357.932997,111.5 359.5,109.932997 359.5,108 L359.5,58 C359.5,56.0670034 357.932997,54.5 356,54.5 L203,54.5 Z" id="Rectangle" stroke="#4CBCCA"></path>
            <text id="Nginx" font-family="Interface-Bold, Interface" font-size="15" font-weight="bold" fill="#656470">
                <tspan x="261.227273" y="88">Nginx</tspan>
            </text>
            <g id="Group-16" transform="translate(0.000000, 55.000000)">
                <rect id="Rectangle-2" stroke="#72D4B4" x="0.5" y="124.5" width="159" height="48" rx="4"></rect>
                <rect id="Rectangle-4" fill="url(#linearGradient-1)" transform="translate(80.000000, 122.000000) rotate(-270.000000) translate(-80.000000, -122.000000) " x="77.5" y="121.5" width="5" height="1"></rect>
                <rect id="Rectangle" fill="url(#linearGradient-2)" x="0" y="0" width="160" height="120" rx="4"></rect>
                <g id="Group-3" transform="translate(32.000000, 22.000000)">
                    <g id="passenger_logo_border" fill-rule="nonzero">
                        <g id="Fill-1" stroke="#FFFFFF">
                            <g id="path-2-link">
                                <path d="M15.6365624,27.8298697 C15.4980579,27.8298697 15.3668891,27.7626347 15.2856727,27.6500511 L13.6213483,25.3330693 C13.5867658,25.2854445 13.5624883,25.2309911 13.5497382,25.1721605 L13.5113132,24.9949682 C13.3621546,25.1275123 13.1847011,25.3476019 12.8952914,25.3700136 C12.7229031,25.3833205 11.9671542,25.3756165 11.650323,25.3714143 C11.5477982,25.3701886 11.448592,25.3320188 11.3708688,25.2637332 L8.65894053,22.8900219 C8.57527891,22.8168338 8.52357987,22.7159812 8.51275102,22.6060239 L8.2937288,20.4103804 L7.27529294,19.4741678 C7.17154558,19.4051819 7.01557521,19.2472496 7.01557521,18.9247316 C7.01557521,18.7888608 6.97749956,17.5530672 6.95287268,16.7802147 L6.37090933,16.3769797 C6.25388789,16.2955623 6.184199,16.1621428 6.184199,16.0201438 L6.184199,13.9102949 C6.184199,13.7052631 6.31763834,13.4443773 6.61019199,13.3564815 C6.66136701,13.3405482 7.04806174,13.1782387 7.5998091,12.9378385 C7.53832919,12.7398103 7.39231438,12.3300969 7.2063027,11.8438687 C7.15076118,11.7827619 7.1030793,11.7403898 7.08456544,11.727433 C6.97068789,11.6724544 6.33545355,11.2709703 0.270424328,7.13724231 C0.205625887,7.09311934 0.153926861,7.0318374 0.120916335,6.96005001 C0.0851112671,6.88248462 -0.0287663158,6.60373944 0.00686409355,6.28174675 C0.0327136062,6.04870036 0.212786901,5.19933296 0.289112827,4.8451235 C0.305181443,4.77193538 0.339414581,4.70435018 0.388144406,4.64919646 C0.55896078,4.45537051 0.867408344,4.29271078 1.2209179,4.41702553 C1.43732024,4.49371548 8.53004227,6.86410003 9.55232061,7.20552788 C9.80749721,6.733482 10.6441132,6.02103595 10.8954473,5.81267742 C10.9682801,5.7520959 11.0568321,5.71795311 11.1516719,5.71357583 L11.3200431,5.70657215 C11.6524189,5.39053257 12.6069296,4.57390725 13.8218567,4.32370193 C13.8784461,4.18485461 14.2579799,2.58136946 14.6865928,0.672525275 C14.6979456,0.620173006 14.7199526,0.569746743 14.7515658,0.523172487 C14.8652688,0.356660761 15.0474379,0.144275143 15.270128,0.0773903076 C15.3136181,0.0642584678 15.4416431,0.0257384054 16.3828797,0.00822928607 L16.5627783,0.00472746222 L16.5753538,0.179818655 L16.5818161,0.00490255341 L16.7590949,0.00227618551 C17.7083658,0.0253882231 17.8370895,0.0642584678 17.8809288,0.0773903076 C18.1030949,0.144275143 18.2854387,0.356660761 18.398967,0.523172487 C18.4304056,0.568871287 18.4525873,0.619647731 18.4642895,0.673400731 C18.8930769,2.58189474 19.2726107,4.18537988 19.3286762,4.32335174 C20.5443019,4.57390725 21.4984633,5.39053257 21.8308391,5.70657215 L21.9985117,5.71357583 C22.0937007,5.71795311 22.1822528,5.7520959 22.2552602,5.81250237 C22.506769,6.02103595 23.3435596,6.7336571 23.565551,7.14949869 C24.6430216,6.85657114 31.7170551,4.49231475 31.9297896,4.41702553 C32.2832992,4.29271078 32.5917468,4.45537051 32.7629124,4.64937155 C32.8118169,4.70470036 32.8458754,4.77246066 32.8615947,4.84494841 C32.9209787,5.1194914 33.1165966,6.03469305 33.1438434,6.28174675 C33.1796485,6.60514016 33.0654216,6.88300988 33.0296165,6.96057527 C32.99713,7.03166235 32.9454309,7.09276913 32.8806325,7.13706721 C26.6753522,11.3662199 26.1538208,11.688913 26.0591557,11.7307598 C26.0509468,11.7374132 26.0025662,11.7799604 25.9444048,11.8438687 C25.7566465,12.3351745 25.6097584,12.7476894 25.5496758,12.9373132 C26.1026457,13.1782387 26.4896898,13.3405482 26.5413888,13.3566566 C26.8332438,13.4445524 26.9665085,13.7052631 26.9665085,13.9102949 L26.9665085,16.0201438 C26.9665085,16.1621428 26.8969943,16.2955623 26.7803222,16.3768046 L26.1978349,16.7802147 C26.173208,17.5530672 26.1351323,18.7888608 26.1351323,18.9247316 C26.1351323,19.2470745 25.9793366,19.4050068 25.8757639,19.4741678 L24.8569787,20.4103804 L24.6379565,22.6061991 C24.6271276,22.7161563 24.5754286,22.8168338 24.492291,22.8898468 L21.7794895,25.2640834 C21.7024649,25.3320188 21.603084,25.3701886 21.5000353,25.3714143 C21.183728,25.3756165 20.4281538,25.3831454 20.2555908,25.3700136 C19.9665304,25.3476019 19.7889023,25.1275123 19.6923159,24.9511954 L19.6013187,25.1716352 C19.5883939,25.2309911 19.5641163,25.2854445 19.5291846,25.3335946 L17.8652095,27.6497009 C17.7841678,27.7624596 17.652999,27.8298697 17.5143198,27.8298697 L15.6365624,27.8298697 Z" id="path-2"></path>
                            </g>
                        </g>
                        <path d="M20.4130109,15.9435239 C20.4130109,15.9435239 20.7818904,16.5530164 20.2830646,17.4072863 C19.7842389,18.2613811 18.6100073,17.6207225 18.6100073,17.6207225 C18.6100073,17.6207225 17.9396666,17.2509298 18.6568159,16.7872884 C19.3737905,16.323822 20.0752206,15.9435239 20.0752206,15.9435239 C20.0752206,15.9435239 20.3468151,15.7885682 20.4130109,15.9435239" id="Fill-7" fill="#FFFFFF"></path>
                        <path d="M21.5613231,16.3498231 C21.6133714,16.5060044 21.7536224,16.3498231 21.7536224,16.3498231 L22.6992256,15.2507756 L22.7771234,15.0580002 C22.7771234,15.0580002 22.8031476,14.7298793 22.787603,14.6465359 C22.7720583,14.5631925 22.8186922,14.5215208 22.8186922,14.5215208 C22.8186922,14.5215208 24.325649,12.6828882 24.3775227,12.5109486 C24.429571,12.339009 24.325649,12.3806808 24.325649,12.3806808 C23.0265363,13.0994301 22.3563702,13.5839075 22.3563702,13.5839075 C22.3563702,13.5839075 21.0988264,14.5476094 21.0053839,14.6465359 C20.9117667,14.7454624 21.0053839,14.8704775 21.0053839,14.8704775" id="Fill-9" fill="#FFFFFF"></path>
                        <path d="M23.9029745,16.8630328 L23.36258,21.8277436 C23.36258,21.8277436 23.376378,21.966766 23.2794424,22.1056133 C23.1825067,22.2444607 21.6028919,23.7308098 21.6028919,23.7308098 C21.6028919,23.7308098 21.5120692,23.8418176 21.5159117,23.4667723 C21.5197543,23.0917269 21.7553691,21.3276832 21.7691671,17.7579239 L21.7969379,17.5082439 C21.7969379,17.5082439 21.8107359,17.2995352 21.9492404,17.1745201 C22.0879195,17.0495049 23.4734883,15.4799875 23.4734883,15.4799875 C23.4734883,15.4799875 23.584222,15.3966441 23.584222,15.2576217 L23.584222,14.5353705 C23.584222,14.5353705 23.556626,14.382691 23.7782681,14.2160042 C23.9999102,14.0493173 24.3186626,13.8826305 24.3186626,13.8826305 L25.8567086,14.2298364 C25.8567086,14.2298364 25.981415,14.2715081 25.981415,14.5077061 L25.981415,15.3271329 C25.981415,15.3271329 25.9674424,15.4938197 25.8011671,15.6050026 C25.6348919,15.7160104 23.9029745,16.8630328 23.9029745,16.8630328" id="Fill-11" fill="#FFFFFF"></path>
                        <path d="M29.22366,8.22923355 L20.1758066,13.702059 C20.1758066,13.702059 19.6734877,14.045763 19.8292834,13.5075327 C19.9817606,12.8962893 20.3836507,11.6046416 20.3836507,11.6046416 C20.3836507,11.6046416 20.4350004,11.4113409 20.5443369,11.3406041 C20.7991641,11.2155889 25.6662082,8.8369751 25.8427883,8.74312621 C25.9917723,8.66678644 26.1199719,8.38208819 26.1199719,8.38208819 L26.5031735,7.62639459 C26.5031735,7.62639459 26.5679719,7.55040502 26.6654316,7.5143362 C26.7628912,7.47826743 29.5700086,6.43735027 29.5700086,6.43735027 C29.5700086,6.43735027 29.7640546,6.32634245 29.694715,6.54853319 C29.6255501,6.77072392 29.4177061,7.96537114 29.4177061,7.96537114 C29.4177061,7.96537114 29.3946511,8.12592978 29.22366,8.22923355" id="Fill-13" fill="#FFFFFF"></path>
                        <path d="M26.0298654,7.92713123 L25.8428057,8.29167106 C25.8428057,8.29167106 25.7493633,8.48969919 25.5518241,8.60420887 C25.3544596,8.71889361 20.439035,11.0003318 20.439035,11.0003318 C20.439035,11.0003318 20.3627091,11.052509 20.3038491,10.8544809 C20.2414958,10.6149561 19.8003075,10.1252261 19.8003075,10.1252261 C19.8003075,10.1252261 19.670012,9.96204108 19.9402093,9.87519581 C20.2727598,9.76068619 26.0298654,7.68760647 26.0298654,7.68760647 C26.0298654,7.68760647 26.1701165,7.65381384 26.0298654,7.92713123" id="Fill-15" fill="#FFFFFF"></path>
                        <path d="M14.0212123,6.06235747 C12.8382478,6.5723981 12.0660809,7.3301928 11.9450424,7.44872956 C11.9233846,7.47009065 11.9071413,7.44085046 11.9071413,7.44085046 L11.5132856,6.99997081 C11.4163499,6.87495568 11.2292903,7.03463885 11.2292903,7.03463885 C10.6957075,7.4513559 10.3839413,7.902741 10.3008037,8.04859196 C10.2293683,8.17063053 10.3563453,8.20845024 10.3563453,8.20845024 C10.3563453,8.20845024 13.0373589,9.15989579 13.1482673,9.18073162 C13.3587312,9.24358939 13.3756732,9.23588535 13.4107796,9.11192079 C13.430516,9.04275976 14.0489831,6.32621993 14.0627811,6.18036896 C14.0931718,6.02068579 14.0212123,6.06235747 14.0212123,6.06235747" id="Fill-17" fill="#FFFFFF"></path>
                        <path d="M22.8499213,8.04866201 C22.7667836,7.90281105 22.4550176,7.45142596 21.9216094,7.0347089 C21.9216094,7.0347089 21.7345497,6.87502573 21.6374394,6.99986576 L21.2435836,7.44092046 C21.2435836,7.44092046 21.227515,7.4699856 21.2058573,7.44879961 C21.0848187,7.33008775 20.3124772,6.57246816 19.1296873,6.06242752 C19.1296873,6.06242752 19.0577279,6.02075579 19.0881185,6.18043896 C19.1019166,6.32628993 19.720209,9.0426547 19.7399454,9.11181574 C19.7752265,9.2357803 19.7921684,9.24365939 20.0024577,9.18080167 C20.1133661,9.15996584 22.7945544,8.20834519 22.7945544,8.20834519 C22.7945544,8.20834519 22.9213567,8.17070059 22.8499213,8.04866201" id="Fill-19" fill="#FFFFFF"></path>
                        <path d="M17.6643518,7.78128027 L16.5776243,7.78128027 L16.5732579,7.78128027 L15.4865304,7.78128027 C15.4865304,7.78128027 15.3202551,7.77865387 15.3202551,7.68620575 C15.3202551,7.59375758 15.8190809,2.72867369 15.8190809,2.72867369 C15.8190809,2.72867369 15.9125234,2.6766716 15.9230029,2.77034539 C15.9333078,2.86419427 15.8723518,6.0468269 15.8723518,6.0468269 C15.8723518,6.0468269 15.8657148,6.1405007 15.9853561,6.14575339 C16.0894528,6.15030578 16.4703838,6.15083104 16.5809428,6.15083104 L16.5956142,6.15083104 L16.6113335,6.15083104 C16.7163035,6.15083104 17.0623027,6.15013067 17.1655261,6.14575339 C17.2849928,6.1405007 17.2785304,6.0468269 17.2785304,6.0468269 C17.2785304,6.0468269 17.2175744,2.86419427 17.2278793,2.77034539 C17.2383588,2.6766716 17.3318013,2.72867369 17.3318013,2.72867369 C17.3318013,2.72867369 17.8306271,7.59375758 17.8306271,7.68620575 C17.8306271,7.77865387 17.6643518,7.78128027 17.6643518,7.78128027 M17.4462029,1.24932819 C17.4254185,1.1139827 17.2902325,1.1139827 17.2902325,1.1139827 L16.5809428,1.08264137 L16.5697647,1.08264137 L15.8606497,1.1139827 C15.8606497,1.1139827 15.7254637,1.1139827 15.7046793,1.24932819 C15.6838949,1.38484877 14.2497709,8.91674664 14.2497709,8.91674664 C14.2497709,8.91674664 14.2082021,9.11477477 14.3952617,9.05226721 C15.2823542,8.60595976 16.5288945,8.57409316 16.5753538,8.57304264 C16.6219877,8.57409316 17.8683534,8.60595976 18.7554457,9.05226721 C18.9425054,9.11477477 18.9009366,8.91674664 18.9009366,8.91674664 C18.9009366,8.91674664 17.4669873,1.38484877 17.4462029,1.24932819" id="Fill-21" fill="#FFFFFF"></path>
                        <path d="M14.4940488,16.7873584 C13.7770742,16.3237169 13.0754695,15.943594 13.0754695,15.943594 C13.0754695,15.943594 12.8040496,15.7884631 12.7378539,15.943594 C12.7378539,15.943594 12.3689743,16.5529113 12.8676254,17.4071812 C13.3664512,18.2614512 14.5408574,17.6207925 14.5408574,17.6207925 C14.5408574,17.6207925 15.2110235,17.2509999 14.4940488,16.7873584" id="Fill-23" fill="#FFFFFF"></path>
                        <path d="M10.794512,13.583925 C10.794512,13.583925 10.1241712,13.0994476 8.8252332,12.3806983 C8.8252332,12.3806983 8.7213112,12.3390266 8.77335952,12.5109661 C8.8252332,12.6827306 10.3320153,14.5215383 10.3320153,14.5215383 C10.3320153,14.5215383 10.3788239,14.56321 10.3632792,14.6465534 C10.3477346,14.7298968 10.3735841,15.0580177 10.3735841,15.0580177 L10.4516566,15.2507931 L11.3972597,16.3498405 C11.3972597,16.3498405 11.5375108,16.5060219 11.5895591,16.3498405 L12.1454983,14.8704951 C12.1454983,14.8704951 12.2389408,14.7454799 12.1454983,14.6465534 C12.0518812,14.5476269 10.794512,13.583925 10.794512,13.583925" id="Fill-25" fill="#FFFFFF"></path>
                        <path d="M11.3816627,17.7579414 L11.3538919,17.5082614 C11.3538919,17.5082614 11.3400939,17.2995527 11.2015894,17.1745376 C11.0629102,17.0495225 9.67734144,15.480005 9.67734144,15.480005 C9.67734144,15.480005 9.56660771,15.3966616 9.56660771,15.2576392 L9.56660771,14.535388 C9.56660771,14.535388 9.59420384,14.3825334 9.3725617,14.2158466 C9.15091961,14.0493349 8.83216719,13.8826481 8.83216719,13.8826481 L7.29412118,14.2298539 C7.29412118,14.2298539 7.16941473,14.2715256 7.16941473,14.5075485 L7.16941473,15.3271504 C7.16941473,15.3271504 7.18338745,15.4938372 7.3496627,15.6050201 C7.51593796,15.7160279 9.2478553,16.8630503 9.2478553,16.8630503 L9.7882498,21.8277611 C9.7882498,21.8277611 9.77445176,21.9666084 9.87138745,22.1056309 C9.96832314,22.2444781 11.547938,23.7308273 11.547938,23.7308273 C11.547938,23.7308273 11.6387606,23.8418351 11.634918,23.4667898 C11.6310756,23.0917445 11.3954607,21.3277007 11.3816627,17.7579414" id="Fill-29" fill="#FFFFFF"></path>
                        <path d="M13.3214939,13.5075327 C13.1690168,12.8962893 12.7673013,11.6046416 12.7673013,11.6046416 C12.7673013,11.6046416 12.715777,11.4113409 12.6064406,11.3406041 C12.3516132,11.2155889 7.48474388,8.8369751 7.30798906,8.74312621 C7.15900505,8.66678644 7.03098013,8.38208819 7.03098013,8.38208819 L6.64760387,7.62639459 C6.64760387,7.62639459 6.58280544,7.55040502 6.48534579,7.5143362 C6.38788614,7.47826743 3.58076881,6.43735027 3.58076881,6.43735027 C3.58076881,6.43735027 3.38672281,6.32634245 3.45606238,6.54853319 C3.52540195,6.77072392 3.733246,7.96537114 3.733246,7.96537114 C3.733246,7.96537114 3.75630098,8.12592978 3.92711735,8.22923355 L12.9749708,13.702059 C12.9749708,13.702059 13.4772897,14.045763 13.3214939,13.5075327" id="Fill-31" fill="#FFFFFF"></path>
                        <path d="M7.30800653,8.29174111 C7.30800653,8.29174111 7.40144907,8.48959414 7.59898824,8.60427887 C7.79635277,8.71878856 12.7117773,11.0004019 12.7117773,11.0004019 C12.7117773,11.0004019 12.7881032,11.052404 12.8469633,10.8545509 C12.9093165,10.6148511 13.3505048,10.125121 13.3505048,10.125121 C13.3505048,10.125121 13.4808003,9.96211108 13.2106031,9.87526587 C12.8780525,9.76058113 7.12094688,7.68750142 7.12094688,7.68750142 C7.12094688,7.68750142 6.98069581,7.6538839 7.12094688,7.92720123 L7.30800653,8.29174111 Z" id="Fill-33" fill="#FFFFFF"></path>
                        <path d="M16.5754061,14.0760538 C15.6030802,14.0581945 14.7797383,13.2636306 14.7797383,12.285221 C14.7797383,11.3068114 15.6030802,10.5122476 16.5754061,10.4943883 C17.5477321,10.5122476 18.371074,11.3068114 18.371074,12.285221 C18.371074,13.2636306 17.5477321,14.0581945 16.5754061,14.0760538 M19.8432736,11.1670887 C18.7754093,9.24178593 16.8089251,9.29116165 16.5754061,9.3042935 C16.3418872,9.29116165 14.3754031,9.24178593 13.3075387,11.1670887 C13.3075387,11.1670887 13.2521719,11.2989323 13.2521719,11.4031116 C13.2521719,11.5072909 14.3191629,15.3895879 14.3191629,15.3895879 C14.3191629,15.3895879 14.3399473,15.4382632 14.4298966,15.570282 C14.5200206,15.7021257 15.5870116,16.4800559 15.5870116,16.4800559 C15.5870116,16.4800559 15.6631629,16.5842351 15.9333602,16.5980673 C16.1653071,16.6099735 16.4884261,16.6015691 16.5754061,16.5987677 C16.6623863,16.6015691 16.9855052,16.6099735 17.2174522,16.5980673 C17.4876495,16.5842351 17.5638007,16.4800559 17.5638007,16.4800559 C17.5638007,16.4800559 18.6307917,15.7021257 18.7209157,15.570282 C18.810865,15.4382632 18.8316495,15.3895879 18.8316495,15.3895879 C18.8316495,15.3895879 19.8986405,11.5072909 19.8986405,11.4031116 C19.8986405,11.2989323 19.8432736,11.1670887 19.8432736,11.1670887" id="Fill-35" fill="#FFFFFF"></path>
                        <path d="M20.1757368,22.6611952 L20.1757368,21.702746 C20.1757368,21.5777309 20.044044,21.7097497 20.044044,21.7097497 L19.4137001,22.1681384 C19.2126678,22.3278215 19.0671769,22.2098101 19.0671769,22.2098101 C19.0671769,22.2098101 18.3882779,21.5152233 18.2913422,21.3763761 C18.1944065,21.2375287 18.0627138,21.2513609 18.0627138,21.2513609 L15.0880986,21.2513609 C15.0880986,21.2513609 14.9564057,21.2375287 14.8594701,21.3763761 C14.7625344,21.5152233 14.0836354,22.2098101 14.0836354,22.2098101 C14.0836354,22.2098101 13.9381446,22.3278215 13.7371122,22.1681384 L13.1067683,21.7097497 C13.1067683,21.7097497 12.9750756,21.5777309 12.9750756,21.702746 L12.9750756,22.6611952 C12.9750756,22.6611952 12.9680892,22.8417142 13.1205664,22.9599008 C13.2730436,23.0779123 14.3468463,23.8071671 14.3468463,23.8071671 C14.3468463,23.8071671 14.5538171,23.9234276 14.7001812,23.6266481 L15.3652822,22.4249972 C15.3652822,22.4249972 15.406851,22.3278215 15.6630756,22.3208179 C15.8925773,22.3146898 17.2524713,22.3145147 17.4877368,22.3208179 C17.7439613,22.3278215 17.7855302,22.4249972 17.7855302,22.4249972 L18.4506311,23.6266481 C18.5969953,23.9234276 18.803966,23.8071671 18.803966,23.8071671 C18.803966,23.8071671 19.8777687,23.0779123 20.0302459,22.9599008 C20.1827231,22.8417142 20.1757368,22.6611952 20.1757368,22.6611952" id="Fill-37" fill="#FFFFFF"></path>
                        <path d="M20.1236709,18.2525916 L19.2149209,18.6460215 C19.2136983,18.6465467 19.2124756,18.647072 19.211253,18.6477724 C19.1909926,18.6602039 18.9627135,18.7901215 18.6584577,18.591393 C18.6584577,18.591393 16.866807,17.5082789 16.6165209,17.5082789 C16.6151236,17.5082789 16.613901,17.5088042 16.6125037,17.5089792 C16.6112811,17.5089792 16.6102332,17.5082789 16.6088359,17.5082789 L16.5117255,17.5082789 C16.5033419,17.5082789 16.4960062,17.5112554 16.4891946,17.5151075 C16.1199657,17.6073805 14.4923197,18.591393 14.4923197,18.591393 C14.1882386,18.7901215 13.9597848,18.6602039 13.9395244,18.6477724 C13.9383017,18.647072 13.9372538,18.6465467 13.9358565,18.6460215 L13.0271065,18.2525916 C13.0248359,18.251541 12.700145,18.0661195 12.7118472,18.3481913 C12.7127205,18.3690272 12.8919205,20.6749782 12.8919205,20.6749782 C12.8985575,21.0813649 13.0531306,21.1969251 13.0705965,21.2086562 C13.0714698,21.2093565 13.0723431,21.2097067 13.073391,21.2104071 L13.5549255,21.4723435 C13.5563228,21.473219 13.8198831,21.6355285 13.933586,21.5383529 C13.9362058,21.5360767 13.9390004,21.5352012 13.9416203,21.5329251 C13.970439,21.5061361 14.1709474,21.3163373 14.3122464,21.0846916 C14.4587852,20.8442914 14.6950987,20.8222299 14.7129139,20.8208292 C14.7137871,20.8208292 14.7144857,20.8206541 14.7151844,20.8206541 L18.435593,20.8206541 C18.4364663,20.8206541 18.4371649,20.8208292 18.4378635,20.8208292 C18.4558534,20.8222299 18.6919922,20.8442914 18.8387057,21.0846916 C18.97983,21.3163373 19.1805131,21.5061361 19.2093318,21.5329251 C19.211777,21.5352012 19.2147462,21.5360767 19.2173661,21.5383529 C19.3308943,21.6355285 19.5944546,21.473219 19.5958519,21.4723435 L20.077561,21.2104071 C20.078609,21.2097067 20.0793076,21.2093565 20.0803556,21.2086562 C20.0976468,21.1969251 20.2523946,21.0813649 20.2588569,20.6749782 C20.2588569,20.6749782 20.4380569,18.3690272 20.4389302,18.3481913 C20.4506324,18.0661195 20.1261162,18.251541 20.1236709,18.2525916" id="Fill-39" fill="#FFFFFF"></path>
                    </g>
                    <text id="Passenger" font-family="Interface-Bold, Interface" font-size="12" font-weight="bold" line-spacing="24" fill="#FFFFFF">
                        <tspan x="37" y="13">Passenger</tspan>
                    </text>
                </g>
                <rect id="Rectangle-3" fill="#325A7E" x="22" y="63" width="116" height="37" rx="5"></rect>
                <text id="Builtin-web-server" font-family="Interface-Medium, Interface" font-size="12" font-weight="400" letter-spacing="-0.300000012" fill="#FFFFFF">
                    <tspan x="32.4485797" y="85">Builtin web server</tspan>
                </text>
                <g id="Group-10" transform="translate(34.000000, 136.000000)">
                    <g id="Group-12">
                        <text id="Application(s)" font-family="Interface-Bold, Interface" font-size="12" font-weight="bold" line-spacing="24" fill="#656470">
                            <tspan x="14" y="11">Application(s)</tspan>
                        </text>
                        <g id="Group-7" transform="translate(0.000000, 6.000000)" stroke="#72D4B4">
                            <path d="M0.5,0.5 L0.5,11.5 L9.5,11.5 L9.5,2.49811931 L8.53525637,1.52669315 L7.49088864,0.5 L0.5,0.5 Z" id="Rectangle-5"></path>
                            <polyline id="Path-2" points="7.30957031 0.888183594 7.2925415 3.18652344 9.09313965 3.18652344"></polyline>
                        </g>
                    </g>
                </g>
            </g>
            <rect id="Rectangle-2" stroke="#72D4B4" x="200.5" y="200.5" width="159" height="48" rx="4"></rect>
            <rect id="Rectangle-2-Copy-4" stroke="#72D4B4" x="395.5" y="200.5" width="159" height="48" rx="4"></rect>
            <rect id="Rectangle-4" fill="url(#linearGradient-1)" transform="translate(280.000000, 198.000000) rotate(-270.000000) translate(-280.000000, -198.000000) " x="277.5" y="197.5" width="5" height="1"></rect>
            <rect id="Rectangle-4" fill="url(#linearGradient-1)" transform="translate(280.000000, 114.000000) rotate(-270.000000) translate(-280.000000, -114.000000) " x="277.5" y="113.5" width="5" height="1"></rect>
            <rect id="Rectangle" fill="url(#linearGradient-2)" x="200" y="116" width="160" height="80" rx="4"></rect>
            <g id="Group-3" transform="translate(232.000000, 142.000000)">
                <g id="passenger_logo_border" fill-rule="nonzero">
                    <g id="Fill-1" stroke="#FFFFFF">
                        <g id="path-2-link">
                            <path d="M15.6365624,27.8298697 C15.4980579,27.8298697 15.3668891,27.7626347 15.2856727,27.6500511 L13.6213483,25.3330693 C13.5867658,25.2854445 13.5624883,25.2309911 13.5497382,25.1721605 L13.5113132,24.9949682 C13.3621546,25.1275123 13.1847011,25.3476019 12.8952914,25.3700136 C12.7229031,25.3833205 11.9671542,25.3756165 11.650323,25.3714143 C11.5477982,25.3701886 11.448592,25.3320188 11.3708688,25.2637332 L8.65894053,22.8900219 C8.57527891,22.8168338 8.52357987,22.7159812 8.51275102,22.6060239 L8.2937288,20.4103804 L7.27529294,19.4741678 C7.17154558,19.4051819 7.01557521,19.2472496 7.01557521,18.9247316 C7.01557521,18.7888608 6.97749956,17.5530672 6.95287268,16.7802147 L6.37090933,16.3769797 C6.25388789,16.2955623 6.184199,16.1621428 6.184199,16.0201438 L6.184199,13.9102949 C6.184199,13.7052631 6.31763834,13.4443773 6.61019199,13.3564815 C6.66136701,13.3405482 7.04806174,13.1782387 7.5998091,12.9378385 C7.53832919,12.7398103 7.39231438,12.3300969 7.2063027,11.8438687 C7.15076118,11.7827619 7.1030793,11.7403898 7.08456544,11.727433 C6.97068789,11.6724544 6.33545355,11.2709703 0.270424328,7.13724231 C0.205625887,7.09311934 0.153926861,7.0318374 0.120916335,6.96005001 C0.0851112671,6.88248462 -0.0287663158,6.60373944 0.00686409355,6.28174675 C0.0327136062,6.04870036 0.212786901,5.19933296 0.289112827,4.8451235 C0.305181443,4.77193538 0.339414581,4.70435018 0.388144406,4.64919646 C0.55896078,4.45537051 0.867408344,4.29271078 1.2209179,4.41702553 C1.43732024,4.49371548 8.53004227,6.86410003 9.55232061,7.20552788 C9.80749721,6.733482 10.6441132,6.02103595 10.8954473,5.81267742 C10.9682801,5.7520959 11.0568321,5.71795311 11.1516719,5.71357583 L11.3200431,5.70657215 C11.6524189,5.39053257 12.6069296,4.57390725 13.8218567,4.32370193 C13.8784461,4.18485461 14.2579799,2.58136946 14.6865928,0.672525275 C14.6979456,0.620173006 14.7199526,0.569746743 14.7515658,0.523172487 C14.8652688,0.356660761 15.0474379,0.144275143 15.270128,0.0773903076 C15.3136181,0.0642584678 15.4416431,0.0257384054 16.3828797,0.00822928607 L16.5627783,0.00472746222 L16.5753538,0.179818655 L16.5818161,0.00490255341 L16.7590949,0.00227618551 C17.7083658,0.0253882231 17.8370895,0.0642584678 17.8809288,0.0773903076 C18.1030949,0.144275143 18.2854387,0.356660761 18.398967,0.523172487 C18.4304056,0.568871287 18.4525873,0.619647731 18.4642895,0.673400731 C18.8930769,2.58189474 19.2726107,4.18537988 19.3286762,4.32335174 C20.5443019,4.57390725 21.4984633,5.39053257 21.8308391,5.70657215 L21.9985117,5.71357583 C22.0937007,5.71795311 22.1822528,5.7520959 22.2552602,5.81250237 C22.506769,6.02103595 23.3435596,6.7336571 23.565551,7.14949869 C24.6430216,6.85657114 31.7170551,4.49231475 31.9297896,4.41702553 C32.2832992,4.29271078 32.5917468,4.45537051 32.7629124,4.64937155 C32.8118169,4.70470036 32.8458754,4.77246066 32.8615947,4.84494841 C32.9209787,5.1194914 33.1165966,6.03469305 33.1438434,6.28174675 C33.1796485,6.60514016 33.0654216,6.88300988 33.0296165,6.96057527 C32.99713,7.03166235 32.9454309,7.09276913 32.8806325,7.13706721 C26.6753522,11.3662199 26.1538208,11.688913 26.0591557,11.7307598 C26.0509468,11.7374132 26.0025662,11.7799604 25.9444048,11.8438687 C25.7566465,12.3351745 25.6097584,12.7476894 25.5496758,12.9373132 C26.1026457,13.1782387 26.4896898,13.3405482 26.5413888,13.3566566 C26.8332438,13.4445524 26.9665085,13.7052631 26.9665085,13.9102949 L26.9665085,16.0201438 C26.9665085,16.1621428 26.8969943,16.2955623 26.7803222,16.3768046 L26.1978349,16.7802147 C26.173208,17.5530672 26.1351323,18.7888608 26.1351323,18.9247316 C26.1351323,19.2470745 25.9793366,19.4050068 25.8757639,19.4741678 L24.8569787,20.4103804 L24.6379565,22.6061991 C24.6271276,22.7161563 24.5754286,22.8168338 24.492291,22.8898468 L21.7794895,25.2640834 C21.7024649,25.3320188 21.603084,25.3701886 21.5000353,25.3714143 C21.183728,25.3756165 20.4281538,25.3831454 20.2555908,25.3700136 C19.9665304,25.3476019 19.7889023,25.1275123 19.6923159,24.9511954 L19.6013187,25.1716352 C19.5883939,25.2309911 19.5641163,25.2854445 19.5291846,25.3335946 L17.8652095,27.6497009 C17.7841678,27.7624596 17.652999,27.8298697 17.5143198,27.8298697 L15.6365624,27.8298697 Z" id="path-2"></path>
                        </g>
                    </g>
                    <path d="M20.4130109,15.9435239 C20.4130109,15.9435239 20.7818904,16.5530164 20.2830646,17.4072863 C19.7842389,18.2613811 18.6100073,17.6207225 18.6100073,17.6207225 C18.6100073,17.6207225 17.9396666,17.2509298 18.6568159,16.7872884 C19.3737905,16.323822 20.0752206,15.9435239 20.0752206,15.9435239 C20.0752206,15.9435239 20.3468151,15.7885682 20.4130109,15.9435239" id="Fill-7" fill="#FFFFFF"></path>
                    <path d="M21.5613231,16.3498231 C21.6133714,16.5060044 21.7536224,16.3498231 21.7536224,16.3498231 L22.6992256,15.2507756 L22.7771234,15.0580002 C22.7771234,15.0580002 22.8031476,14.7298793 22.787603,14.6465359 C22.7720583,14.5631925 22.8186922,14.5215208 22.8186922,14.5215208 C22.8186922,14.5215208 24.325649,12.6828882 24.3775227,12.5109486 C24.429571,12.339009 24.325649,12.3806808 24.325649,12.3806808 C23.0265363,13.0994301 22.3563702,13.5839075 22.3563702,13.5839075 C22.3563702,13.5839075 21.0988264,14.5476094 21.0053839,14.6465359 C20.9117667,14.7454624 21.0053839,14.8704775 21.0053839,14.8704775" id="Fill-9" fill="#FFFFFF"></path>
                    <path d="M23.9029745,16.8630328 L23.36258,21.8277436 C23.36258,21.8277436 23.376378,21.966766 23.2794424,22.1056133 C23.1825067,22.2444607 21.6028919,23.7308098 21.6028919,23.7308098 C21.6028919,23.7308098 21.5120692,23.8418176 21.5159117,23.4667723 C21.5197543,23.0917269 21.7553691,21.3276832 21.7691671,17.7579239 L21.7969379,17.5082439 C21.7969379,17.5082439 21.8107359,17.2995352 21.9492404,17.1745201 C22.0879195,17.0495049 23.4734883,15.4799875 23.4734883,15.4799875 C23.4734883,15.4799875 23.584222,15.3966441 23.584222,15.2576217 L23.584222,14.5353705 C23.584222,14.5353705 23.556626,14.382691 23.7782681,14.2160042 C23.9999102,14.0493173 24.3186626,13.8826305 24.3186626,13.8826305 L25.8567086,14.2298364 C25.8567086,14.2298364 25.981415,14.2715081 25.981415,14.5077061 L25.981415,15.3271329 C25.981415,15.3271329 25.9674424,15.4938197 25.8011671,15.6050026 C25.6348919,15.7160104 23.9029745,16.8630328 23.9029745,16.8630328" id="Fill-11" fill="#FFFFFF"></path>
                    <path d="M29.22366,8.22923355 L20.1758066,13.702059 C20.1758066,13.702059 19.6734877,14.045763 19.8292834,13.5075327 C19.9817606,12.8962893 20.3836507,11.6046416 20.3836507,11.6046416 C20.3836507,11.6046416 20.4350004,11.4113409 20.5443369,11.3406041 C20.7991641,11.2155889 25.6662082,8.8369751 25.8427883,8.74312621 C25.9917723,8.66678644 26.1199719,8.38208819 26.1199719,8.38208819 L26.5031735,7.62639459 C26.5031735,7.62639459 26.5679719,7.55040502 26.6654316,7.5143362 C26.7628912,7.47826743 29.5700086,6.43735027 29.5700086,6.43735027 C29.5700086,6.43735027 29.7640546,6.32634245 29.694715,6.54853319 C29.6255501,6.77072392 29.4177061,7.96537114 29.4177061,7.96537114 C29.4177061,7.96537114 29.3946511,8.12592978 29.22366,8.22923355" id="Fill-13" fill="#FFFFFF"></path>
                    <path d="M26.0298654,7.92713123 L25.8428057,8.29167106 C25.8428057,8.29167106 25.7493633,8.48969919 25.5518241,8.60420887 C25.3544596,8.71889361 20.439035,11.0003318 20.439035,11.0003318 C20.439035,11.0003318 20.3627091,11.052509 20.3038491,10.8544809 C20.2414958,10.6149561 19.8003075,10.1252261 19.8003075,10.1252261 C19.8003075,10.1252261 19.670012,9.96204108 19.9402093,9.87519581 C20.2727598,9.76068619 26.0298654,7.68760647 26.0298654,7.68760647 C26.0298654,7.68760647 26.1701165,7.65381384 26.0298654,7.92713123" id="Fill-15" fill="#FFFFFF"></path>
                    <path d="M14.0212123,6.06235747 C12.8382478,6.5723981 12.0660809,7.3301928 11.9450424,7.44872956 C11.9233846,7.47009065 11.9071413,7.44085046 11.9071413,7.44085046 L11.5132856,6.99997081 C11.4163499,6.87495568 11.2292903,7.03463885 11.2292903,7.03463885 C10.6957075,7.4513559 10.3839413,7.902741 10.3008037,8.04859196 C10.2293683,8.17063053 10.3563453,8.20845024 10.3563453,8.20845024 C10.3563453,8.20845024 13.0373589,9.15989579 13.1482673,9.18073162 C13.3587312,9.24358939 13.3756732,9.23588535 13.4107796,9.11192079 C13.430516,9.04275976 14.0489831,6.32621993 14.0627811,6.18036896 C14.0931718,6.02068579 14.0212123,6.06235747 14.0212123,6.06235747" id="Fill-17" fill="#FFFFFF"></path>
                    <path d="M22.8499213,8.04866201 C22.7667836,7.90281105 22.4550176,7.45142596 21.9216094,7.0347089 C21.9216094,7.0347089 21.7345497,6.87502573 21.6374394,6.99986576 L21.2435836,7.44092046 C21.2435836,7.44092046 21.227515,7.4699856 21.2058573,7.44879961 C21.0848187,7.33008775 20.3124772,6.57246816 19.1296873,6.06242752 C19.1296873,6.06242752 19.0577279,6.02075579 19.0881185,6.18043896 C19.1019166,6.32628993 19.720209,9.0426547 19.7399454,9.11181574 C19.7752265,9.2357803 19.7921684,9.24365939 20.0024577,9.18080167 C20.1133661,9.15996584 22.7945544,8.20834519 22.7945544,8.20834519 C22.7945544,8.20834519 22.9213567,8.17070059 22.8499213,8.04866201" id="Fill-19" fill="#FFFFFF"></path>
                    <path d="M17.6643518,7.78128027 L16.5776243,7.78128027 L16.5732579,7.78128027 L15.4865304,7.78128027 C15.4865304,7.78128027 15.3202551,7.77865387 15.3202551,7.68620575 C15.3202551,7.59375758 15.8190809,2.72867369 15.8190809,2.72867369 C15.8190809,2.72867369 15.9125234,2.6766716 15.9230029,2.77034539 C15.9333078,2.86419427 15.8723518,6.0468269 15.8723518,6.0468269 C15.8723518,6.0468269 15.8657148,6.1405007 15.9853561,6.14575339 C16.0894528,6.15030578 16.4703838,6.15083104 16.5809428,6.15083104 L16.5956142,6.15083104 L16.6113335,6.15083104 C16.7163035,6.15083104 17.0623027,6.15013067 17.1655261,6.14575339 C17.2849928,6.1405007 17.2785304,6.0468269 17.2785304,6.0468269 C17.2785304,6.0468269 17.2175744,2.86419427 17.2278793,2.77034539 C17.2383588,2.6766716 17.3318013,2.72867369 17.3318013,2.72867369 C17.3318013,2.72867369 17.8306271,7.59375758 17.8306271,7.68620575 C17.8306271,7.77865387 17.6643518,7.78128027 17.6643518,7.78128027 M17.4462029,1.24932819 C17.4254185,1.1139827 17.2902325,1.1139827 17.2902325,1.1139827 L16.5809428,1.08264137 L16.5697647,1.08264137 L15.8606497,1.1139827 C15.8606497,1.1139827 15.7254637,1.1139827 15.7046793,1.24932819 C15.6838949,1.38484877 14.2497709,8.91674664 14.2497709,8.91674664 C14.2497709,8.91674664 14.2082021,9.11477477 14.3952617,9.05226721 C15.2823542,8.60595976 16.5288945,8.57409316 16.5753538,8.57304264 C16.6219877,8.57409316 17.8683534,8.60595976 18.7554457,9.05226721 C18.9425054,9.11477477 18.9009366,8.91674664 18.9009366,8.91674664 C18.9009366,8.91674664 17.4669873,1.38484877 17.4462029,1.24932819" id="Fill-21" fill="#FFFFFF"></path>
                    <path d="M14.4940488,16.7873584 C13.7770742,16.3237169 13.0754695,15.943594 13.0754695,15.943594 C13.0754695,15.943594 12.8040496,15.7884631 12.7378539,15.943594 C12.7378539,15.943594 12.3689743,16.5529113 12.8676254,17.4071812 C13.3664512,18.2614512 14.5408574,17.6207925 14.5408574,17.6207925 C14.5408574,17.6207925 15.2110235,17.2509999 14.4940488,16.7873584" id="Fill-23" fill="#FFFFFF"></path>
                    <path d="M10.794512,13.583925 C10.794512,13.583925 10.1241712,13.0994476 8.8252332,12.3806983 C8.8252332,12.3806983 8.7213112,12.3390266 8.77335952,12.5109661 C8.8252332,12.6827306 10.3320153,14.5215383 10.3320153,14.5215383 C10.3320153,14.5215383 10.3788239,14.56321 10.3632792,14.6465534 C10.3477346,14.7298968 10.3735841,15.0580177 10.3735841,15.0580177 L10.4516566,15.2507931 L11.3972597,16.3498405 C11.3972597,16.3498405 11.5375108,16.5060219 11.5895591,16.3498405 L12.1454983,14.8704951 C12.1454983,14.8704951 12.2389408,14.7454799 12.1454983,14.6465534 C12.0518812,14.5476269 10.794512,13.583925 10.794512,13.583925" id="Fill-25" fill="#FFFFFF"></path>
                    <path d="M11.3816627,17.7579414 L11.3538919,17.5082614 C11.3538919,17.5082614 11.3400939,17.2995527 11.2015894,17.1745376 C11.0629102,17.0495225 9.67734144,15.480005 9.67734144,15.480005 C9.67734144,15.480005 9.56660771,15.3966616 9.56660771,15.2576392 L9.56660771,14.535388 C9.56660771,14.535388 9.59420384,14.3825334 9.3725617,14.2158466 C9.15091961,14.0493349 8.83216719,13.8826481 8.83216719,13.8826481 L7.29412118,14.2298539 C7.29412118,14.2298539 7.16941473,14.2715256 7.16941473,14.5075485 L7.16941473,15.3271504 C7.16941473,15.3271504 7.18338745,15.4938372 7.3496627,15.6050201 C7.51593796,15.7160279 9.2478553,16.8630503 9.2478553,16.8630503 L9.7882498,21.8277611 C9.7882498,21.8277611 9.77445176,21.9666084 9.87138745,22.1056309 C9.96832314,22.2444781 11.547938,23.7308273 11.547938,23.7308273 C11.547938,23.7308273 11.6387606,23.8418351 11.634918,23.4667898 C11.6310756,23.0917445 11.3954607,21.3277007 11.3816627,17.7579414" id="Fill-29" fill="#FFFFFF"></path>
                    <path d="M13.3214939,13.5075327 C13.1690168,12.8962893 12.7673013,11.6046416 12.7673013,11.6046416 C12.7673013,11.6046416 12.715777,11.4113409 12.6064406,11.3406041 C12.3516132,11.2155889 7.48474388,8.8369751 7.30798906,8.74312621 C7.15900505,8.66678644 7.03098013,8.38208819 7.03098013,8.38208819 L6.64760387,7.62639459 C6.64760387,7.62639459 6.58280544,7.55040502 6.48534579,7.5143362 C6.38788614,7.47826743 3.58076881,6.43735027 3.58076881,6.43735027 C3.58076881,6.43735027 3.38672281,6.32634245 3.45606238,6.54853319 C3.52540195,6.77072392 3.733246,7.96537114 3.733246,7.96537114 C3.733246,7.96537114 3.75630098,8.12592978 3.92711735,8.22923355 L12.9749708,13.702059 C12.9749708,13.702059 13.4772897,14.045763 13.3214939,13.5075327" id="Fill-31" fill="#FFFFFF"></path>
                    <path d="M7.30800653,8.29174111 C7.30800653,8.29174111 7.40144907,8.48959414 7.59898824,8.60427887 C7.79635277,8.71878856 12.7117773,11.0004019 12.7117773,11.0004019 C12.7117773,11.0004019 12.7881032,11.052404 12.8469633,10.8545509 C12.9093165,10.6148511 13.3505048,10.125121 13.3505048,10.125121 C13.3505048,10.125121 13.4808003,9.96211108 13.2106031,9.87526587 C12.8780525,9.76058113 7.12094688,7.68750142 7.12094688,7.68750142 C7.12094688,7.68750142 6.98069581,7.6538839 7.12094688,7.92720123 L7.30800653,8.29174111 Z" id="Fill-33" fill="#FFFFFF"></path>
                    <path d="M16.5754061,14.0760538 C15.6030802,14.0581945 14.7797383,13.2636306 14.7797383,12.285221 C14.7797383,11.3068114 15.6030802,10.5122476 16.5754061,10.4943883 C17.5477321,10.5122476 18.371074,11.3068114 18.371074,12.285221 C18.371074,13.2636306 17.5477321,14.0581945 16.5754061,14.0760538 M19.8432736,11.1670887 C18.7754093,9.24178593 16.8089251,9.29116165 16.5754061,9.3042935 C16.3418872,9.29116165 14.3754031,9.24178593 13.3075387,11.1670887 C13.3075387,11.1670887 13.2521719,11.2989323 13.2521719,11.4031116 C13.2521719,11.5072909 14.3191629,15.3895879 14.3191629,15.3895879 C14.3191629,15.3895879 14.3399473,15.4382632 14.4298966,15.570282 C14.5200206,15.7021257 15.5870116,16.4800559 15.5870116,16.4800559 C15.5870116,16.4800559 15.6631629,16.5842351 15.9333602,16.5980673 C16.1653071,16.6099735 16.4884261,16.6015691 16.5754061,16.5987677 C16.6623863,16.6015691 16.9855052,16.6099735 17.2174522,16.5980673 C17.4876495,16.5842351 17.5638007,16.4800559 17.5638007,16.4800559 C17.5638007,16.4800559 18.6307917,15.7021257 18.7209157,15.570282 C18.810865,15.4382632 18.8316495,15.3895879 18.8316495,15.3895879 C18.8316495,15.3895879 19.8986405,11.5072909 19.8986405,11.4031116 C19.8986405,11.2989323 19.8432736,11.1670887 19.8432736,11.1670887" id="Fill-35" fill="#FFFFFF"></path>
                    <path d="M20.1757368,22.6611952 L20.1757368,21.702746 C20.1757368,21.5777309 20.044044,21.7097497 20.044044,21.7097497 L19.4137001,22.1681384 C19.2126678,22.3278215 19.0671769,22.2098101 19.0671769,22.2098101 C19.0671769,22.2098101 18.3882779,21.5152233 18.2913422,21.3763761 C18.1944065,21.2375287 18.0627138,21.2513609 18.0627138,21.2513609 L15.0880986,21.2513609 C15.0880986,21.2513609 14.9564057,21.2375287 14.8594701,21.3763761 C14.7625344,21.5152233 14.0836354,22.2098101 14.0836354,22.2098101 C14.0836354,22.2098101 13.9381446,22.3278215 13.7371122,22.1681384 L13.1067683,21.7097497 C13.1067683,21.7097497 12.9750756,21.5777309 12.9750756,21.702746 L12.9750756,22.6611952 C12.9750756,22.6611952 12.9680892,22.8417142 13.1205664,22.9599008 C13.2730436,23.0779123 14.3468463,23.8071671 14.3468463,23.8071671 C14.3468463,23.8071671 14.5538171,23.9234276 14.7001812,23.6266481 L15.3652822,22.4249972 C15.3652822,22.4249972 15.406851,22.3278215 15.6630756,22.3208179 C15.8925773,22.3146898 17.2524713,22.3145147 17.4877368,22.3208179 C17.7439613,22.3278215 17.7855302,22.4249972 17.7855302,22.4249972 L18.4506311,23.6266481 C18.5969953,23.9234276 18.803966,23.8071671 18.803966,23.8071671 C18.803966,23.8071671 19.8777687,23.0779123 20.0302459,22.9599008 C20.1827231,22.8417142 20.1757368,22.6611952 20.1757368,22.6611952" id="Fill-37" fill="#FFFFFF"></path>
                    <path d="M20.1236709,18.2525916 L19.2149209,18.6460215 C19.2136983,18.6465467 19.2124756,18.647072 19.211253,18.6477724 C19.1909926,18.6602039 18.9627135,18.7901215 18.6584577,18.591393 C18.6584577,18.591393 16.866807,17.5082789 16.6165209,17.5082789 C16.6151236,17.5082789 16.613901,17.5088042 16.6125037,17.5089792 C16.6112811,17.5089792 16.6102332,17.5082789 16.6088359,17.5082789 L16.5117255,17.5082789 C16.5033419,17.5082789 16.4960062,17.5112554 16.4891946,17.5151075 C16.1199657,17.6073805 14.4923197,18.591393 14.4923197,18.591393 C14.1882386,18.7901215 13.9597848,18.6602039 13.9395244,18.6477724 C13.9383017,18.647072 13.9372538,18.6465467 13.9358565,18.6460215 L13.0271065,18.2525916 C13.0248359,18.251541 12.700145,18.0661195 12.7118472,18.3481913 C12.7127205,18.3690272 12.8919205,20.6749782 12.8919205,20.6749782 C12.8985575,21.0813649 13.0531306,21.1969251 13.0705965,21.2086562 C13.0714698,21.2093565 13.0723431,21.2097067 13.073391,21.2104071 L13.5549255,21.4723435 C13.5563228,21.473219 13.8198831,21.6355285 13.933586,21.5383529 C13.9362058,21.5360767 13.9390004,21.5352012 13.9416203,21.5329251 C13.970439,21.5061361 14.1709474,21.3163373 14.3122464,21.0846916 C14.4587852,20.8442914 14.6950987,20.8222299 14.7129139,20.8208292 C14.7137871,20.8208292 14.7144857,20.8206541 14.7151844,20.8206541 L18.435593,20.8206541 C18.4364663,20.8206541 18.4371649,20.8208292 18.4378635,20.8208292 C18.4558534,20.8222299 18.6919922,20.8442914 18.8387057,21.0846916 C18.97983,21.3163373 19.1805131,21.5061361 19.2093318,21.5329251 C19.211777,21.5352012 19.2147462,21.5360767 19.2173661,21.5383529 C19.3308943,21.6355285 19.5944546,21.473219 19.5958519,21.4723435 L20.077561,21.2104071 C20.078609,21.2097067 20.0793076,21.2093565 20.0803556,21.2086562 C20.0976468,21.1969251 20.2523946,21.0813649 20.2588569,20.6749782 C20.2588569,20.6749782 20.4380569,18.3690272 20.4389302,18.3481913 C20.4506324,18.0661195 20.1261162,18.251541 20.1236709,18.2525916" id="Fill-39" fill="#FFFFFF"></path>
                </g>
                <text id="Passenger" font-family="Interface-Bold, Interface" font-size="12" font-weight="bold" line-spacing="24" fill="#FFFFFF">
                    <tspan x="37" y="13">Passenger</tspan>
                </text>
            </g>
            <g id="Group-10" transform="translate(234.000000, 212.000000)">
                <text id="Application(s)" font-family="Interface-Bold, Interface" font-size="12" font-weight="bold" line-spacing="24" fill="#656470">
                    <tspan x="14" y="11">Application(s)</tspan>
                </text>
                <g id="Group-7" transform="translate(0.000000, 6.000000)" stroke="#72D4B4">
                    <path d="M0.5,0.5 L0.5,11.5 L9.5,11.5 L9.5,2.49811931 L8.53525637,1.52669315 L7.49088864,0.5 L0.5,0.5 Z" id="Rectangle-5"></path>
                    <polyline id="Path-2" points="7.30957031 0.888183594 7.2925415 3.18652344 9.09313965 3.18652344"></polyline>
                </g>
            </g>
            <g id="Group-10-Copy" transform="translate(429.000000, 212.000000)">
                <text id="Application(s)" font-family="Interface-Bold, Interface" font-size="12" font-weight="bold" line-spacing="24" fill="#656470">
                    <tspan x="14" y="11">Application(s)</tspan>
                </text>
                <g id="Group-7" transform="translate(0.000000, 6.000000)" stroke="#72D4B4">
                    <path d="M0.5,0.5 L0.5,11.5 L9.5,11.5 L9.5,2.49811931 L8.53525637,1.52669315 L7.49088864,0.5 L0.5,0.5 Z" id="Rectangle-5"></path>
                    <polyline id="Path-2" points="7.30957031 0.888183594 7.2925415 3.18652344 9.09313965 3.18652344"></polyline>
                </g>
            </g>
            <path d="M398,54.5 C396.067003,54.5 394.5,56.0670034 394.5,58 L394.5,108 C394.5,109.932997 396.067003,111.5 398,111.5 L551,111.5 C552.932997,111.5 554.5,109.932997 554.5,108 L554.5,58 C554.5,56.0670034 552.932997,54.5 551,54.5 L398,54.5 Z" id="Rectangle" stroke="#4CBCCA"></path>
            <text id="Apache" font-family="Interface-Bold, Interface" font-size="15" font-weight="bold" fill="#656470">
                <tspan x="450.090909" y="88">Apache</tspan>
            </text>
            <rect id="Rectangle-4" fill="url(#linearGradient-1)" transform="translate(475.000000, 198.000000) rotate(-270.000000) translate(-475.000000, -198.000000) " x="472.5" y="197.5" width="5" height="1"></rect>
            <rect id="Rectangle-4" fill="url(#linearGradient-1)" transform="translate(475.000000, 114.000000) rotate(-270.000000) translate(-475.000000, -114.000000) " x="472.5" y="113.5" width="5" height="1"></rect>
            <rect id="Rectangle" fill="url(#linearGradient-2)" x="395" y="116" width="160" height="80" rx="4"></rect>
            <g id="Group-3" transform="translate(427.000000, 142.000000)">
                <g id="passenger_logo_border" fill-rule="nonzero">
                    <g id="Fill-1" stroke="#FFFFFF">
                        <g id="path-2-link">
                            <path d="M15.6365624,27.8298697 C15.4980579,27.8298697 15.3668891,27.7626347 15.2856727,27.6500511 L13.6213483,25.3330693 C13.5867658,25.2854445 13.5624883,25.2309911 13.5497382,25.1721605 L13.5113132,24.9949682 C13.3621546,25.1275123 13.1847011,25.3476019 12.8952914,25.3700136 C12.7229031,25.3833205 11.9671542,25.3756165 11.650323,25.3714143 C11.5477982,25.3701886 11.448592,25.3320188 11.3708688,25.2637332 L8.65894053,22.8900219 C8.57527891,22.8168338 8.52357987,22.7159812 8.51275102,22.6060239 L8.2937288,20.4103804 L7.27529294,19.4741678 C7.17154558,19.4051819 7.01557521,19.2472496 7.01557521,18.9247316 C7.01557521,18.7888608 6.97749956,17.5530672 6.95287268,16.7802147 L6.37090933,16.3769797 C6.25388789,16.2955623 6.184199,16.1621428 6.184199,16.0201438 L6.184199,13.9102949 C6.184199,13.7052631 6.31763834,13.4443773 6.61019199,13.3564815 C6.66136701,13.3405482 7.04806174,13.1782387 7.5998091,12.9378385 C7.53832919,12.7398103 7.39231438,12.3300969 7.2063027,11.8438687 C7.15076118,11.7827619 7.1030793,11.7403898 7.08456544,11.727433 C6.97068789,11.6724544 6.33545355,11.2709703 0.270424328,7.13724231 C0.205625887,7.09311934 0.153926861,7.0318374 0.120916335,6.96005001 C0.0851112671,6.88248462 -0.0287663158,6.60373944 0.00686409355,6.28174675 C0.0327136062,6.04870036 0.212786901,5.19933296 0.289112827,4.8451235 C0.305181443,4.77193538 0.339414581,4.70435018 0.388144406,4.64919646 C0.55896078,4.45537051 0.867408344,4.29271078 1.2209179,4.41702553 C1.43732024,4.49371548 8.53004227,6.86410003 9.55232061,7.20552788 C9.80749721,6.733482 10.6441132,6.02103595 10.8954473,5.81267742 C10.9682801,5.7520959 11.0568321,5.71795311 11.1516719,5.71357583 L11.3200431,5.70657215 C11.6524189,5.39053257 12.6069296,4.57390725 13.8218567,4.32370193 C13.8784461,4.18485461 14.2579799,2.58136946 14.6865928,0.672525275 C14.6979456,0.620173006 14.7199526,0.569746743 14.7515658,0.523172487 C14.8652688,0.356660761 15.0474379,0.144275143 15.270128,0.0773903076 C15.3136181,0.0642584678 15.4416431,0.0257384054 16.3828797,0.00822928607 L16.5627783,0.00472746222 L16.5753538,0.179818655 L16.5818161,0.00490255341 L16.7590949,0.00227618551 C17.7083658,0.0253882231 17.8370895,0.0642584678 17.8809288,0.0773903076 C18.1030949,0.144275143 18.2854387,0.356660761 18.398967,0.523172487 C18.4304056,0.568871287 18.4525873,0.619647731 18.4642895,0.673400731 C18.8930769,2.58189474 19.2726107,4.18537988 19.3286762,4.32335174 C20.5443019,4.57390725 21.4984633,5.39053257 21.8308391,5.70657215 L21.9985117,5.71357583 C22.0937007,5.71795311 22.1822528,5.7520959 22.2552602,5.81250237 C22.506769,6.02103595 23.3435596,6.7336571 23.565551,7.14949869 C24.6430216,6.85657114 31.7170551,4.49231475 31.9297896,4.41702553 C32.2832992,4.29271078 32.5917468,4.45537051 32.7629124,4.64937155 C32.8118169,4.70470036 32.8458754,4.77246066 32.8615947,4.84494841 C32.9209787,5.1194914 33.1165966,6.03469305 33.1438434,6.28174675 C33.1796485,6.60514016 33.0654216,6.88300988 33.0296165,6.96057527 C32.99713,7.03166235 32.9454309,7.09276913 32.8806325,7.13706721 C26.6753522,11.3662199 26.1538208,11.688913 26.0591557,11.7307598 C26.0509468,11.7374132 26.0025662,11.7799604 25.9444048,11.8438687 C25.7566465,12.3351745 25.6097584,12.7476894 25.5496758,12.9373132 C26.1026457,13.1782387 26.4896898,13.3405482 26.5413888,13.3566566 C26.8332438,13.4445524 26.9665085,13.7052631 26.9665085,13.9102949 L26.9665085,16.0201438 C26.9665085,16.1621428 26.8969943,16.2955623 26.7803222,16.3768046 L26.1978349,16.7802147 C26.173208,17.5530672 26.1351323,18.7888608 26.1351323,18.9247316 C26.1351323,19.2470745 25.9793366,19.4050068 25.8757639,19.4741678 L24.8569787,20.4103804 L24.6379565,22.6061991 C24.6271276,22.7161563 24.5754286,22.8168338 24.492291,22.8898468 L21.7794895,25.2640834 C21.7024649,25.3320188 21.603084,25.3701886 21.5000353,25.3714143 C21.183728,25.3756165 20.4281538,25.3831454 20.2555908,25.3700136 C19.9665304,25.3476019 19.7889023,25.1275123 19.6923159,24.9511954 L19.6013187,25.1716352 C19.5883939,25.2309911 19.5641163,25.2854445 19.5291846,25.3335946 L17.8652095,27.6497009 C17.7841678,27.7624596 17.652999,27.8298697 17.5143198,27.8298697 L15.6365624,27.8298697 Z" id="path-2"></path>
                        </g>
                    </g>
                    <path d="M20.4130109,15.9435239 C20.4130109,15.9435239 20.7818904,16.5530164 20.2830646,17.4072863 C19.7842389,18.2613811 18.6100073,17.6207225 18.6100073,17.6207225 C18.6100073,17.6207225 17.9396666,17.2509298 18.6568159,16.7872884 C19.3737905,16.323822 20.0752206,15.9435239 20.0752206,15.9435239 C20.0752206,15.9435239 20.3468151,15.7885682 20.4130109,15.9435239" id="Fill-7" fill="#FFFFFF"></path>
                    <path d="M21.5613231,16.3498231 C21.6133714,16.5060044 21.7536224,16.3498231 21.7536224,16.3498231 L22.6992256,15.2507756 L22.7771234,15.0580002 C22.7771234,15.0580002 22.8031476,14.7298793 22.787603,14.6465359 C22.7720583,14.5631925 22.8186922,14.5215208 22.8186922,14.5215208 C22.8186922,14.5215208 24.325649,12.6828882 24.3775227,12.5109486 C24.429571,12.339009 24.325649,12.3806808 24.325649,12.3806808 C23.0265363,13.0994301 22.3563702,13.5839075 22.3563702,13.5839075 C22.3563702,13.5839075 21.0988264,14.5476094 21.0053839,14.6465359 C20.9117667,14.7454624 21.0053839,14.8704775 21.0053839,14.8704775" id="Fill-9" fill="#FFFFFF"></path>
                    <path d="M23.9029745,16.8630328 L23.36258,21.8277436 C23.36258,21.8277436 23.376378,21.966766 23.2794424,22.1056133 C23.1825067,22.2444607 21.6028919,23.7308098 21.6028919,23.7308098 C21.6028919,23.7308098 21.5120692,23.8418176 21.5159117,23.4667723 C21.5197543,23.0917269 21.7553691,21.3276832 21.7691671,17.7579239 L21.7969379,17.5082439 C21.7969379,17.5082439 21.8107359,17.2995352 21.9492404,17.1745201 C22.0879195,17.0495049 23.4734883,15.4799875 23.4734883,15.4799875 C23.4734883,15.4799875 23.584222,15.3966441 23.584222,15.2576217 L23.584222,14.5353705 C23.584222,14.5353705 23.556626,14.382691 23.7782681,14.2160042 C23.9999102,14.0493173 24.3186626,13.8826305 24.3186626,13.8826305 L25.8567086,14.2298364 C25.8567086,14.2298364 25.981415,14.2715081 25.981415,14.5077061 L25.981415,15.3271329 C25.981415,15.3271329 25.9674424,15.4938197 25.8011671,15.6050026 C25.6348919,15.7160104 23.9029745,16.8630328 23.9029745,16.8630328" id="Fill-11" fill="#FFFFFF"></path>
                    <path d="M29.22366,8.22923355 L20.1758066,13.702059 C20.1758066,13.702059 19.6734877,14.045763 19.8292834,13.5075327 C19.9817606,12.8962893 20.3836507,11.6046416 20.3836507,11.6046416 C20.3836507,11.6046416 20.4350004,11.4113409 20.5443369,11.3406041 C20.7991641,11.2155889 25.6662082,8.8369751 25.8427883,8.74312621 C25.9917723,8.66678644 26.1199719,8.38208819 26.1199719,8.38208819 L26.5031735,7.62639459 C26.5031735,7.62639459 26.5679719,7.55040502 26.6654316,7.5143362 C26.7628912,7.47826743 29.5700086,6.43735027 29.5700086,6.43735027 C29.5700086,6.43735027 29.7640546,6.32634245 29.694715,6.54853319 C29.6255501,6.77072392 29.4177061,7.96537114 29.4177061,7.96537114 C29.4177061,7.96537114 29.3946511,8.12592978 29.22366,8.22923355" id="Fill-13" fill="#FFFFFF"></path>
                    <path d="M26.0298654,7.92713123 L25.8428057,8.29167106 C25.8428057,8.29167106 25.7493633,8.48969919 25.5518241,8.60420887 C25.3544596,8.71889361 20.439035,11.0003318 20.439035,11.0003318 C20.439035,11.0003318 20.3627091,11.052509 20.3038491,10.8544809 C20.2414958,10.6149561 19.8003075,10.1252261 19.8003075,10.1252261 C19.8003075,10.1252261 19.670012,9.96204108 19.9402093,9.87519581 C20.2727598,9.76068619 26.0298654,7.68760647 26.0298654,7.68760647 C26.0298654,7.68760647 26.1701165,7.65381384 26.0298654,7.92713123" id="Fill-15" fill="#FFFFFF"></path>
                    <path d="M14.0212123,6.06235747 C12.8382478,6.5723981 12.0660809,7.3301928 11.9450424,7.44872956 C11.9233846,7.47009065 11.9071413,7.44085046 11.9071413,7.44085046 L11.5132856,6.99997081 C11.4163499,6.87495568 11.2292903,7.03463885 11.2292903,7.03463885 C10.6957075,7.4513559 10.3839413,7.902741 10.3008037,8.04859196 C10.2293683,8.17063053 10.3563453,8.20845024 10.3563453,8.20845024 C10.3563453,8.20845024 13.0373589,9.15989579 13.1482673,9.18073162 C13.3587312,9.24358939 13.3756732,9.23588535 13.4107796,9.11192079 C13.430516,9.04275976 14.0489831,6.32621993 14.0627811,6.18036896 C14.0931718,6.02068579 14.0212123,6.06235747 14.0212123,6.06235747" id="Fill-17" fill="#FFFFFF"></path>
                    <path d="M22.8499213,8.04866201 C22.7667836,7.90281105 22.4550176,7.45142596 21.9216094,7.0347089 C21.9216094,7.0347089 21.7345497,6.87502573 21.6374394,6.99986576 L21.2435836,7.44092046 C21.2435836,7.44092046 21.227515,7.4699856 21.2058573,7.44879961 C21.0848187,7.33008775 20.3124772,6.57246816 19.1296873,6.06242752 C19.1296873,6.06242752 19.0577279,6.02075579 19.0881185,6.18043896 C19.1019166,6.32628993 19.720209,9.0426547 19.7399454,9.11181574 C19.7752265,9.2357803 19.7921684,9.24365939 20.0024577,9.18080167 C20.1133661,9.15996584 22.7945544,8.20834519 22.7945544,8.20834519 C22.7945544,8.20834519 22.9213567,8.17070059 22.8499213,8.04866201" id="Fill-19" fill="#FFFFFF"></path>
                    <path d="M17.6643518,7.78128027 L16.5776243,7.78128027 L16.5732579,7.78128027 L15.4865304,7.78128027 C15.4865304,7.78128027 15.3202551,7.77865387 15.3202551,7.68620575 C15.3202551,7.59375758 15.8190809,2.72867369 15.8190809,2.72867369 C15.8190809,2.72867369 15.9125234,2.6766716 15.9230029,2.77034539 C15.9333078,2.86419427 15.8723518,6.0468269 15.8723518,6.0468269 C15.8723518,6.0468269 15.8657148,6.1405007 15.9853561,6.14575339 C16.0894528,6.15030578 16.4703838,6.15083104 16.5809428,6.15083104 L16.5956142,6.15083104 L16.6113335,6.15083104 C16.7163035,6.15083104 17.0623027,6.15013067 17.1655261,6.14575339 C17.2849928,6.1405007 17.2785304,6.0468269 17.2785304,6.0468269 C17.2785304,6.0468269 17.2175744,2.86419427 17.2278793,2.77034539 C17.2383588,2.6766716 17.3318013,2.72867369 17.3318013,2.72867369 C17.3318013,2.72867369 17.8306271,7.59375758 17.8306271,7.68620575 C17.8306271,7.77865387 17.6643518,7.78128027 17.6643518,7.78128027 M17.4462029,1.24932819 C17.4254185,1.1139827 17.2902325,1.1139827 17.2902325,1.1139827 L16.5809428,1.08264137 L16.5697647,1.08264137 L15.8606497,1.1139827 C15.8606497,1.1139827 15.7254637,1.1139827 15.7046793,1.24932819 C15.6838949,1.38484877 14.2497709,8.91674664 14.2497709,8.91674664 C14.2497709,8.91674664 14.2082021,9.11477477 14.3952617,9.05226721 C15.2823542,8.60595976 16.5288945,8.57409316 16.5753538,8.57304264 C16.6219877,8.57409316 17.8683534,8.60595976 18.7554457,9.05226721 C18.9425054,9.11477477 18.9009366,8.91674664 18.9009366,8.91674664 C18.9009366,8.91674664 17.4669873,1.38484877 17.4462029,1.24932819" id="Fill-21" fill="#FFFFFF"></path>
                    <path d="M14.4940488,16.7873584 C13.7770742,16.3237169 13.0754695,15.943594 13.0754695,15.943594 C13.0754695,15.943594 12.8040496,15.7884631 12.7378539,15.943594 C12.7378539,15.943594 12.3689743,16.5529113 12.8676254,17.4071812 C13.3664512,18.2614512 14.5408574,17.6207925 14.5408574,17.6207925 C14.5408574,17.6207925 15.2110235,17.2509999 14.4940488,16.7873584" id="Fill-23" fill="#FFFFFF"></path>
                    <path d="M10.794512,13.583925 C10.794512,13.583925 10.1241712,13.0994476 8.8252332,12.3806983 C8.8252332,12.3806983 8.7213112,12.3390266 8.77335952,12.5109661 C8.8252332,12.6827306 10.3320153,14.5215383 10.3320153,14.5215383 C10.3320153,14.5215383 10.3788239,14.56321 10.3632792,14.6465534 C10.3477346,14.7298968 10.3735841,15.0580177 10.3735841,15.0580177 L10.4516566,15.2507931 L11.3972597,16.3498405 C11.3972597,16.3498405 11.5375108,16.5060219 11.5895591,16.3498405 L12.1454983,14.8704951 C12.1454983,14.8704951 12.2389408,14.7454799 12.1454983,14.6465534 C12.0518812,14.5476269 10.794512,13.583925 10.794512,13.583925" id="Fill-25" fill="#FFFFFF"></path>
                    <path d="M11.3816627,17.7579414 L11.3538919,17.5082614 C11.3538919,17.5082614 11.3400939,17.2995527 11.2015894,17.1745376 C11.0629102,17.0495225 9.67734144,15.480005 9.67734144,15.480005 C9.67734144,15.480005 9.56660771,15.3966616 9.56660771,15.2576392 L9.56660771,14.535388 C9.56660771,14.535388 9.59420384,14.3825334 9.3725617,14.2158466 C9.15091961,14.0493349 8.83216719,13.8826481 8.83216719,13.8826481 L7.29412118,14.2298539 C7.29412118,14.2298539 7.16941473,14.2715256 7.16941473,14.5075485 L7.16941473,15.3271504 C7.16941473,15.3271504 7.18338745,15.4938372 7.3496627,15.6050201 C7.51593796,15.7160279 9.2478553,16.8630503 9.2478553,16.8630503 L9.7882498,21.8277611 C9.7882498,21.8277611 9.77445176,21.9666084 9.87138745,22.1056309 C9.96832314,22.2444781 11.547938,23.7308273 11.547938,23.7308273 C11.547938,23.7308273 11.6387606,23.8418351 11.634918,23.4667898 C11.6310756,23.0917445 11.3954607,21.3277007 11.3816627,17.7579414" id="Fill-29" fill="#FFFFFF"></path>
                    <path d="M13.3214939,13.5075327 C13.1690168,12.8962893 12.7673013,11.6046416 12.7673013,11.6046416 C12.7673013,11.6046416 12.715777,11.4113409 12.6064406,11.3406041 C12.3516132,11.2155889 7.48474388,8.8369751 7.30798906,8.74312621 C7.15900505,8.66678644 7.03098013,8.38208819 7.03098013,8.38208819 L6.64760387,7.62639459 C6.64760387,7.62639459 6.58280544,7.55040502 6.48534579,7.5143362 C6.38788614,7.47826743 3.58076881,6.43735027 3.58076881,6.43735027 C3.58076881,6.43735027 3.38672281,6.32634245 3.45606238,6.54853319 C3.52540195,6.77072392 3.733246,7.96537114 3.733246,7.96537114 C3.733246,7.96537114 3.75630098,8.12592978 3.92711735,8.22923355 L12.9749708,13.702059 C12.9749708,13.702059 13.4772897,14.045763 13.3214939,13.5075327" id="Fill-31" fill="#FFFFFF"></path>
                    <path d="M7.30800653,8.29174111 C7.30800653,8.29174111 7.40144907,8.48959414 7.59898824,8.60427887 C7.79635277,8.71878856 12.7117773,11.0004019 12.7117773,11.0004019 C12.7117773,11.0004019 12.7881032,11.052404 12.8469633,10.8545509 C12.9093165,10.6148511 13.3505048,10.125121 13.3505048,10.125121 C13.3505048,10.125121 13.4808003,9.96211108 13.2106031,9.87526587 C12.8780525,9.76058113 7.12094688,7.68750142 7.12094688,7.68750142 C7.12094688,7.68750142 6.98069581,7.6538839 7.12094688,7.92720123 L7.30800653,8.29174111 Z" id="Fill-33" fill="#FFFFFF"></path>
                    <path d="M16.5754061,14.0760538 C15.6030802,14.0581945 14.7797383,13.2636306 14.7797383,12.285221 C14.7797383,11.3068114 15.6030802,10.5122476 16.5754061,10.4943883 C17.5477321,10.5122476 18.371074,11.3068114 18.371074,12.285221 C18.371074,13.2636306 17.5477321,14.0581945 16.5754061,14.0760538 M19.8432736,11.1670887 C18.7754093,9.24178593 16.8089251,9.29116165 16.5754061,9.3042935 C16.3418872,9.29116165 14.3754031,9.24178593 13.3075387,11.1670887 C13.3075387,11.1670887 13.2521719,11.2989323 13.2521719,11.4031116 C13.2521719,11.5072909 14.3191629,15.3895879 14.3191629,15.3895879 C14.3191629,15.3895879 14.3399473,15.4382632 14.4298966,15.570282 C14.5200206,15.7021257 15.5870116,16.4800559 15.5870116,16.4800559 C15.5870116,16.4800559 15.6631629,16.5842351 15.9333602,16.5980673 C16.1653071,16.6099735 16.4884261,16.6015691 16.5754061,16.5987677 C16.6623863,16.6015691 16.9855052,16.6099735 17.2174522,16.5980673 C17.4876495,16.5842351 17.5638007,16.4800559 17.5638007,16.4800559 C17.5638007,16.4800559 18.6307917,15.7021257 18.7209157,15.570282 C18.810865,15.4382632 18.8316495,15.3895879 18.8316495,15.3895879 C18.8316495,15.3895879 19.8986405,11.5072909 19.8986405,11.4031116 C19.8986405,11.2989323 19.8432736,11.1670887 19.8432736,11.1670887" id="Fill-35" fill="#FFFFFF"></path>
                    <path d="M20.1757368,22.6611952 L20.1757368,21.702746 C20.1757368,21.5777309 20.044044,21.7097497 20.044044,21.7097497 L19.4137001,22.1681384 C19.2126678,22.3278215 19.0671769,22.2098101 19.0671769,22.2098101 C19.0671769,22.2098101 18.3882779,21.5152233 18.2913422,21.3763761 C18.1944065,21.2375287 18.0627138,21.2513609 18.0627138,21.2513609 L15.0880986,21.2513609 C15.0880986,21.2513609 14.9564057,21.2375287 14.8594701,21.3763761 C14.7625344,21.5152233 14.0836354,22.2098101 14.0836354,22.2098101 C14.0836354,22.2098101 13.9381446,22.3278215 13.7371122,22.1681384 L13.1067683,21.7097497 C13.1067683,21.7097497 12.9750756,21.5777309 12.9750756,21.702746 L12.9750756,22.6611952 C12.9750756,22.6611952 12.9680892,22.8417142 13.1205664,22.9599008 C13.2730436,23.0779123 14.3468463,23.8071671 14.3468463,23.8071671 C14.3468463,23.8071671 14.5538171,23.9234276 14.7001812,23.6266481 L15.3652822,22.4249972 C15.3652822,22.4249972 15.406851,22.3278215 15.6630756,22.3208179 C15.8925773,22.3146898 17.2524713,22.3145147 17.4877368,22.3208179 C17.7439613,22.3278215 17.7855302,22.4249972 17.7855302,22.4249972 L18.4506311,23.6266481 C18.5969953,23.9234276 18.803966,23.8071671 18.803966,23.8071671 C18.803966,23.8071671 19.8777687,23.0779123 20.0302459,22.9599008 C20.1827231,22.8417142 20.1757368,22.6611952 20.1757368,22.6611952" id="Fill-37" fill="#FFFFFF"></path>
                    <path d="M20.1236709,18.2525916 L19.2149209,18.6460215 C19.2136983,18.6465467 19.2124756,18.647072 19.211253,18.6477724 C19.1909926,18.6602039 18.9627135,18.7901215 18.6584577,18.591393 C18.6584577,18.591393 16.866807,17.5082789 16.6165209,17.5082789 C16.6151236,17.5082789 16.613901,17.5088042 16.6125037,17.5089792 C16.6112811,17.5089792 16.6102332,17.5082789 16.6088359,17.5082789 L16.5117255,17.5082789 C16.5033419,17.5082789 16.4960062,17.5112554 16.4891946,17.5151075 C16.1199657,17.6073805 14.4923197,18.591393 14.4923197,18.591393 C14.1882386,18.7901215 13.9597848,18.6602039 13.9395244,18.6477724 C13.9383017,18.647072 13.9372538,18.6465467 13.9358565,18.6460215 L13.0271065,18.2525916 C13.0248359,18.251541 12.700145,18.0661195 12.7118472,18.3481913 C12.7127205,18.3690272 12.8919205,20.6749782 12.8919205,20.6749782 C12.8985575,21.0813649 13.0531306,21.1969251 13.0705965,21.2086562 C13.0714698,21.2093565 13.0723431,21.2097067 13.073391,21.2104071 L13.5549255,21.4723435 C13.5563228,21.473219 13.8198831,21.6355285 13.933586,21.5383529 C13.9362058,21.5360767 13.9390004,21.5352012 13.9416203,21.5329251 C13.970439,21.5061361 14.1709474,21.3163373 14.3122464,21.0846916 C14.4587852,20.8442914 14.6950987,20.8222299 14.7129139,20.8208292 C14.7137871,20.8208292 14.7144857,20.8206541 14.7151844,20.8206541 L18.435593,20.8206541 C18.4364663,20.8206541 18.4371649,20.8208292 18.4378635,20.8208292 C18.4558534,20.8222299 18.6919922,20.8442914 18.8387057,21.0846916 C18.97983,21.3163373 19.1805131,21.5061361 19.2093318,21.5329251 C19.211777,21.5352012 19.2147462,21.5360767 19.2173661,21.5383529 C19.3308943,21.6355285 19.5944546,21.473219 19.5958519,21.4723435 L20.077561,21.2104071 C20.078609,21.2097067 20.0793076,21.2093565 20.0803556,21.2086562 C20.0976468,21.1969251 20.2523946,21.0813649 20.2588569,20.6749782 C20.2588569,20.6749782 20.4380569,18.3690272 20.4389302,18.3481913 C20.4506324,18.0661195 20.1261162,18.251541 20.1236709,18.2525916" id="Fill-39" fill="#FFFFFF"></path>
                </g>
                <text id="Passenger" font-family="Interface-Bold, Interface" font-size="12" font-weight="bold" line-spacing="24" fill="#FFFFFF">
                    <tspan x="37" y="13">Passenger</tspan>
                </text>
            </g>
        </g>
    </g>
</svg>